<?xml version="1.0" encoding="utf-8"?>
<!-- Generated by IcoMoon.io -->
<!DOCTYPE svg PUBLIC "-//W3C//DTD SVG 1.1//EN" "http://www.w3.org/Graphics/SVG/1.1/DTD/svg11.dtd">
<svg version="1.1" xmlns="http://www.w3.org/2000/svg" xmlns:xlink="http://www.w3.org/1999/xlink" width="32" height="32" viewBox="0 0 32 32">
<path d="M16.247 13.782c0.82 0 1.442-0.179 1.866-0.535 0.423-0.356 0.636-0.883 0.636-1.578 0-0.687-0.211-1.209-0.636-1.566-0.423-0.366-1.046-0.548-1.866-0.548h-2.88v4.229l2.88-0.002zM16.423 22.519c1.046 0 1.831-0.219 2.352-0.655 0.531-0.438 0.797-1.098 0.797-1.981 0-0.866-0.262-1.511-0.785-1.939-0.523-0.438-1.311-0.655-2.366-0.655h-3.054v5.232h3.056zM21.264 15.335c1.117 0.321 1.982 0.914 2.596 1.78s0.92 1.927 0.92 3.184c0 1.927-0.659 3.363-1.974 4.309s-3.317 1.419-6.003 1.419h-8.639v-19.977h7.814c2.804 0 4.831 0.419 6.084 1.257 1.262 0.839 1.893 2.181 1.893 4.027 0 0.973-0.229 1.802-0.689 2.489-0.46 0.677-1.128 1.182-2.002 1.513z"></path>
<path d="M16.802 26.034h-8.647v-19.993h7.822c1.396 0 2.615 0.105 3.626 0.315s1.839 0.527 2.463 0.944c0.63 0.419 1.107 0.97 1.422 1.639s0.475 1.475 0.475 2.395c0 0.97-0.232 1.808-0.691 2.494-0.455 0.671-1.122 1.177-1.982 1.507 1.102 0.321 1.971 0.919 2.578 1.776 0.612 0.863 0.92 1.936 0.92 3.189 0 0.96-0.166 1.81-0.494 2.526s-0.826 1.318-1.483 1.789c-0.655 0.471-1.493 0.829-2.491 1.066-0.998 0.235-2.181 0.355-3.517 0.355zM8.171 26.018h8.631c1.337 0 2.518-0.12 3.514-0.355 0.994-0.235 1.831-0.593 2.484-1.062s1.151-1.070 1.479-1.783c0.328-0.714 0.492-1.561 0.492-2.519 0-1.251-0.308-2.32-0.919-3.181-0.609-0.859-1.48-1.457-2.591-1.776l0.002-0.008-0.003-0.008c0.868-0.328 1.54-0.836 1.997-1.51 0.457-0.682 0.688-1.518 0.688-2.484 0-0.917-0.158-1.721-0.473-2.388-0.313-0.666-0.789-1.216-1.417-1.633-0.623-0.417-1.45-0.733-2.458-0.943s-2.228-0.315-3.622-0.315h-7.803v19.965zM16.423 22.527h-3.064v-5.248h3.064c1.051 0 1.85 0.22 2.371 0.658 0.523 0.428 0.788 1.083 0.788 1.946 0 0.882-0.27 1.55-0.801 1.986-0.521 0.438-1.316 0.658-2.358 0.658zM13.375 22.511h3.048c1.038 0 1.829-0.22 2.347-0.653 0.528-0.433 0.794-1.098 0.794-1.975 0-0.859-0.263-1.51-0.781-1.935-0.518-0.435-1.314-0.653-2.362-0.653h-3.046v5.216zM16.247 13.79c0 0 0 0 0 0v0h-2.888v-4.245h2.888c0.818 0 1.448 0.185 1.871 0.551 0.423 0.356 0.638 0.885 0.638 1.572 0 0.695-0.215 1.229-0.638 1.585s-1.052 0.537-1.871 0.537zM16.247 13.774c0.815 0 1.44-0.179 1.861-0.534 0.42-0.353 0.633-0.883 0.633-1.572 0-0.681-0.213-1.206-0.633-1.559-0.42-0.363-1.046-0.546-1.861-0.546h-2.872v4.213l2.872-0.002z"></path>
<path d="M26.71 31.958h-21.45c-0.702 0-1.386-0.138-2.030-0.413-0.62-0.263-1.179-0.641-1.657-1.119s-0.856-1.037-1.119-1.657c-0.275-0.644-0.413-1.328-0.413-2.030v-21.45c0-0.702 0.138-1.386 0.413-2.030 0.263-0.621 0.641-1.179 1.119-1.657s1.037-0.856 1.657-1.119c0.644-0.275 1.328-0.413 2.030-0.413h21.45c0.702 0 1.386 0.138 2.030 0.413 0.62 0.263 1.179 0.641 1.657 1.119s0.856 1.037 1.119 1.657c0.275 0.644 0.413 1.328 0.413 2.030v21.45c0 0.702-0.138 1.386-0.413 2.030-0.263 0.62-0.641 1.179-1.119 1.657s-1.037 0.856-1.657 1.119c-0.646 0.273-1.328 0.413-2.030 0.413zM5.261 2.479c-0.747 0-1.45 0.294-1.983 0.827s-0.827 1.238-0.827 1.983v21.45c0 0.747 0.294 1.45 0.827 1.983s1.238 0.827 1.983 0.827h21.45c0.747 0 1.45-0.294 1.983-0.827s0.827-1.238 0.827-1.983v-21.45c0-0.747-0.294-1.45-0.827-1.983s-1.238-0.827-1.983-0.827h-21.45z"></path>
</svg>
