<?xml version="1.0" encoding="utf-8"?>
<!-- Generated by IcoMoon.io -->
<!DOCTYPE svg PUBLIC "-//W3C//DTD SVG 1.1//EN" "http://www.w3.org/Graphics/SVG/1.1/DTD/svg11.dtd">
<svg version="1.1" xmlns="http://www.w3.org/2000/svg" xmlns:xlink="http://www.w3.org/1999/xlink" width="32" height="32" viewBox="0 0 32 32">
<path d="M16.627 11.569h3.238v3.309h1.637c0.756 0 1.533-0.135 2.249-0.377 0.352-0.119 0.747-0.285 1.094-0.494-0.457-0.597-0.69-1.35-0.759-2.093-0.093-1.010 0.111-2.325 0.794-3.115l0.34-0.394 0.405 0.326c1.021 0.82 1.88 1.967 2.031 3.273 1.229-0.362 2.673-0.276 3.756 0.349l0.445 0.256-0.234 0.457c-0.916 1.789-2.832 2.343-4.706 2.245-2.803 6.981-8.905 10.286-16.304 10.286-3.823 0-7.33-1.429-9.327-4.82l-0.033-0.055-0.291-0.592c-0.675-1.493-0.899-3.128-0.747-4.762l0.046-0.489h2.768v-3.309h3.237v-3.237h6.475v-3.237h3.885v6.475zM5.92 12.343h0.222v2.338h-0.222v-2.338zM5.495 12.343h0.23v2.338h-0.23v-2.338zM5.070 12.343h0.23v2.338h-0.23v-2.338zM4.645 12.343h0.23v2.338h-0.23v-2.338zM4.219 12.343h0.23v2.338h-0.23v-2.338zM3.803 12.343h0.221v2.338h-0.221v-2.338zM3.57 12.109v2.806h2.806v-2.806h-2.806zM9.157 9.105h0.222v2.338h-0.222v-2.338zM8.732 9.105h0.23v2.338h-0.23v-2.338zM8.307 9.105h0.23v2.338h-0.23v-2.338zM7.882 9.105h0.23v2.338h-0.23v-2.338zM7.457 9.105h0.23v2.338h-0.23v-2.338zM7.041 9.105h0.221v2.338h-0.221v-2.338zM6.807 8.872v2.806h2.806v-2.806h-2.806zM9.157 12.343h0.222v2.338h-0.222v-2.338zM8.732 12.343h0.23v2.338h-0.23v-2.338zM8.307 12.343h0.23v2.338h-0.23v-2.338zM7.882 12.343h0.23v2.338h-0.23v-2.338zM7.457 12.343h0.23v2.338h-0.23v-2.338zM7.041 12.343h0.221v2.338h-0.221v-2.338zM6.807 12.109v2.806h2.806v-2.806h-2.806zM12.395 12.343h0.222v2.338h-0.222v-2.338zM11.97 12.343h0.23v2.338h-0.23v-2.338zM11.545 12.343h0.23v2.338h-0.23v-2.338zM11.12 12.343h0.23v2.338h-0.23v-2.338zM10.694 12.343h0.23v2.338h-0.23v-2.338zM10.278 12.343h0.221v2.338h-0.221v-2.338zM10.044 12.109v2.806h2.806v-2.806h-2.806zM12.395 9.105h0.222v2.338h-0.222v-2.338zM11.97 9.105h0.23v2.338h-0.23v-2.338zM11.545 9.105h0.23v2.338h-0.23v-2.338zM11.12 9.105h0.23v2.338h-0.23v-2.338zM10.694 9.105h0.23v2.338h-0.23v-2.338zM10.278 9.105h0.221v2.338h-0.221v-2.338zM10.044 8.872v2.806h2.806v-2.806h-2.806zM15.632 12.343h0.222v2.338h-0.222v-2.338zM15.207 12.343h0.23v2.338h-0.23v-2.338zM14.782 12.343h0.23v2.338h-0.23v-2.338zM14.357 12.343h0.23v2.338h-0.23v-2.338zM13.932 12.343h0.23v2.338h-0.23v-2.338zM13.516 12.343h0.221v2.338h-0.221v-2.338zM13.282 12.109v2.806h2.806v-2.806h-2.806zM15.632 9.105h0.222v2.338h-0.222v-2.338zM15.207 9.105h0.23v2.338h-0.23v-2.338zM14.782 9.105h0.23v2.338h-0.23v-2.338zM14.357 9.105h0.23v2.338h-0.23v-2.338zM13.932 9.105h0.23v2.338h-0.23v-2.338zM13.516 9.105h0.221v2.338h-0.221v-2.338zM13.282 8.872v2.806h2.806v-2.806h-2.806zM15.632 5.868h0.222v2.338h-0.222v-2.338zM15.207 5.868h0.23v2.338h-0.23v-2.338zM14.782 5.868h0.23v2.338h-0.23v-2.338zM14.357 5.868h0.23v2.338h-0.23v-2.338zM13.932 5.868h0.23v2.338h-0.23v-2.338zM13.516 5.868h0.221v2.338h-0.221v-2.338zM13.282 5.634v2.806h2.806v-2.806h-2.806zM18.87 12.343h0.221v2.338h-0.221v-2.338zM18.445 12.343h0.23v2.338h-0.23v-2.338zM18.019 12.343h0.23v2.338h-0.23v-2.338zM17.594 12.343h0.23v2.338h-0.23v-2.338zM17.169 12.343h0.23v2.338h-0.23v-2.338zM16.753 12.343h0.222v2.338h-0.222v-2.338zM16.519 12.109v2.806h2.806v-2.806h-2.806zM9.437 19.464c-0.428 0-0.774 0.347-0.774 0.774s0.347 0.774 0.774 0.774c0.427 0 0.774-0.346 0.774-0.774s-0.347-0.774-0.774-0.774zM9.437 19.684c0.071 0 0.138 0.013 0.201 0.037-0.068 0.039-0.113 0.112-0.113 0.196 0 0.125 0.101 0.226 0.226 0.226 0.086 0 0.16-0.048 0.198-0.118 0.027 0.065 0.042 0.137 0.042 0.213 0 0.306-0.248 0.554-0.554 0.554s-0.554-0.248-0.554-0.554c-0-0.306 0.248-0.555 0.554-0.555zM11.495 25.042c-1.917-0.91-2.969-2.146-3.555-3.496-0.712 0.203-1.568 0.333-2.563 0.389-0.375 0.021-0.769 0.032-1.182 0.032-0.477 0-0.979-0.014-1.507-0.042 1.758 1.757 3.921 3.11 7.925 3.134 0.296-0 0.589-0.006 0.881-0.017z"></path>
</svg>
