<?xml version="1.0" encoding="utf-8"?>
<!-- Generated by IcoMoon.io -->
<!DOCTYPE svg PUBLIC "-//W3C//DTD SVG 1.1//EN" "http://www.w3.org/Graphics/SVG/1.1/DTD/svg11.dtd">
<svg version="1.1" xmlns="http://www.w3.org/2000/svg" xmlns:xlink="http://www.w3.org/1999/xlink" width="32" height="32" viewBox="0 0 32 32">
<path d="M23.057 13.939c0.432-0.033 0.492-0.033 0.952 0.004 0.936 0.069 1.645 0.296 2.309 0.736 0.359 0.238 0.882 0.782 1.172 1.216 0.136 0.205 0.248 0.38 0.248 0.392 0 0.021-2.195 1.44-2.273 1.473-0.024 0.009-0.093-0.073-0.187-0.221-0.081-0.13-0.256-0.344-0.392-0.477-0.383-0.386-0.761-0.537-1.343-0.537-0.513-0.003-0.845 0.127-1.132 0.438-0.199 0.214-0.29 0.435-0.311 0.761-0.024 0.411 0.087 0.74 0.35 1.020 0.275 0.293 0.691 0.522 1.935 1.057 1.645 0.706 2.469 1.195 3.106 1.841 0.332 0.338 0.525 0.607 0.718 1.005 0.281 0.583 0.405 1.172 0.405 1.926 0 1.18-0.372 2.122-1.126 2.85-0.709 0.688-1.624 1.093-2.844 1.265-0.486 0.066-1.437 0.070-1.944 0-1.938-0.26-3.372-1.165-4.289-2.711-0.118-0.193-0.142-0.256-0.112-0.284 0.048-0.046 2.345-1.371 2.372-1.371 0.012 0 0.1 0.115 0.196 0.254 0.706 1.045 1.585 1.527 2.762 1.527 0.697 0 1.259-0.19 1.615-0.549 0.106-0.106 0.223-0.263 0.269-0.356 0.232-0.483 0.13-1.114-0.239-1.509-0.299-0.32-0.767-0.577-2.026-1.117-0.924-0.399-1.458-0.655-1.851-0.89-1.543-0.933-2.234-2.11-2.234-3.794 0-1.126 0.35-2.014 1.084-2.741 0.712-0.707 1.669-1.117 2.811-1.207zM13.66 19.425l0.012-5.334h2.955v5.351c0 3.55-0.012 5.437-0.030 5.606-0.209 1.669-0.996 2.793-2.34 3.336-1.12 0.45-2.648 0.486-3.837 0.091-1.126-0.374-2.062-1.189-2.602-2.267l-0.091-0.181 1.192-0.724c0.655-0.395 1.201-0.724 1.213-0.73 0.009-0.003 0.087 0.115 0.175 0.26 0.54 0.924 1.005 1.253 1.781 1.25 0.543-0.003 0.87-0.109 1.123-0.362 0.181-0.181 0.284-0.377 0.372-0.706l0.066-0.251zM28.532 32h-25.063c-1.912 0-3.468-1.556-3.468-3.468v-25.063c0-1.912 1.556-3.468 3.468-3.468h25.063c1.913 0 3.468 1.556 3.468 3.468v25.063c0 1.913-1.556 3.468-3.468 3.468zM3.469 1.61c-1.025 0-1.859 0.834-1.859 1.859v25.063c0 1.025 0.834 1.859 1.859 1.859h25.063c1.025 0 1.859-0.834 1.859-1.859v-25.063c0-1.025-0.834-1.859-1.859-1.859h-25.063z"></path>
</svg>
