<?xml version="1.0" encoding="utf-8"?>
<!-- Generated by IcoMoon.io -->
<!DOCTYPE svg PUBLIC "-//W3C//DTD SVG 1.1//EN" "http://www.w3.org/Graphics/SVG/1.1/DTD/svg11.dtd">
<svg version="1.1" xmlns="http://www.w3.org/2000/svg" xmlns:xlink="http://www.w3.org/1999/xlink" width="32" height="32" viewBox="0 0 32 32">
<path d="M2.788 7c-2.788 3.939-2.424 9.152-0.303 13.333 0.061 0.121 0.121 0.182 0.182 0.303 0 0.061 0.061 0.121 0.121 0.182 0 0.061 0.061 0.061 0.061 0.121 0.061 0.061 0.061 0.121 0.121 0.182 0.061 0.121 0.121 0.242 0.182 0.364 0.061 0.061 0.061 0.121 0.121 0.182 0.061 0.121 0.182 0.242 0.242 0.364 0.061 0.061 0.061 0.121 0.121 0.182 0.121 0.182 0.242 0.303 0.364 0.485 0 0 0 0 0 0s0.061 0.061 0.061 0.061c0.121 0.121 0.182 0.303 0.303 0.424 0.061 0.061 0.061 0.121 0.121 0.121 0.121 0.121 0.182 0.242 0.303 0.364 0.061 0.061 0.061 0.061 0.121 0.121 0.121 0.182 0.242 0.303 0.424 0.424 0 0 0 0 0 0s0 0 0 0c0.121 0.121 0.242 0.303 0.424 0.424 0.061 0.061 0.061 0.061 0.121 0.121 0.121 0.121 0.182 0.182 0.303 0.303 0.061 0.061 0.061 0.061 0.121 0.121 0.121 0.121 0.303 0.242 0.424 0.424 0 0 0 0 0 0s0.061 0.061 0.061 0.061c0.121 0.121 0.242 0.242 0.424 0.364 0.061 0.061 0.121 0.061 0.182 0.121 0.121 0.061 0.242 0.182 0.364 0.242 0.061 0.061 0.121 0.061 0.182 0.121 0.121 0.121 0.242 0.182 0.364 0.242 0.061 0.061 0.061 0.061 0.121 0.121 0 0 0 0 0.061 0 0.121 0.061 0.242 0.182 0.364 0.242 0.061 0.061 0.121 0.061 0.182 0.121 0.182 0.121 0.364 0.242 0.545 0.364 0.061 0 0.121 0.061 0.182 0.061 0.121 0.061 0.303 0.182 0.424 0.242 0.061 0.061 0.182 0.061 0.242 0.121 0.121 0.061 0.182 0.121 0.303 0.182 0 0 0.061 0 0.061 0.061 0.061 0 0.061 0.061 0.121 0.061 0.182 0.061 0.303 0.182 0.485 0.242 0.061 0 0.061 0 0.121 0.061 0.182 0.061 0.364 0.182 0.545 0.242 0.061 0 0.061 0.061 0.121 0.061 0.182 0.061 0.364 0.121 0.545 0.182 0 0 0.061 0 0.061 0 0.182 0.061 0.424 0.121 0.606 0.182 0.061 0 0.121 0.061 0.121 0.061 0.182 0.061 0.424 0.121 0.606 0.182 13.333 2.424 17.212-8 17.212-8-3.273 4.242-9.030 5.333-14.545 4.121-0.182-0.061-0.424-0.121-0.606-0.182-0.061 0-0.121 0-0.121-0.061-0.182-0.061-0.424-0.121-0.606-0.182 0 0-0.061 0-0.061-0.061-0.182-0.061-0.364-0.121-0.545-0.182-0.061 0-0.121-0.061-0.121-0.061-0.182-0.061-0.364-0.182-0.545-0.242-0.061 0-0.061-0.061-0.121-0.061-0.182-0.061-0.303-0.121-0.485-0.242-0.061 0-0.061-0.061-0.121-0.061-0.121-0.061-0.242-0.121-0.364-0.182-0.061-0.061-0.182-0.061-0.242-0.121-0.121-0.061-0.303-0.182-0.424-0.242-0.061-0.061-0.121-0.061-0.121-0.061-0.182-0.121-0.364-0.242-0.545-0.364-0.061-0.061-0.121-0.061-0.182-0.121-0.121-0.061-0.303-0.182-0.424-0.242-0.061-0.061-0.061-0.061-0.121-0.121-0.121-0.061-0.242-0.182-0.364-0.303-0.061-0.061-0.121-0.061-0.182-0.121-0.121-0.061-0.242-0.182-0.364-0.242-0.061-0.061-0.121-0.061-0.182-0.121-0.121-0.121-0.303-0.242-0.424-0.364 0 0-0.061 0-0.061-0.061-0.121-0.121-0.303-0.303-0.424-0.424-0.061-0.061-0.061-0.061-0.121-0.121-0.121-0.121-0.242-0.182-0.303-0.303-0.061-0.061-0.061-0.061-0.121-0.121-0.121-0.121-0.242-0.303-0.424-0.424 0 0 0 0 0 0-0.121-0.121-0.242-0.303-0.424-0.485-0.061-0.061-0.061-0.061-0.121-0.121-0.121-0.121-0.182-0.242-0.303-0.364-0.061-0.061-0.061-0.061-0.121-0.121-0.121-0.121-0.242-0.303-0.364-0.424-3.030-4.121-4.121-9.879-1.697-14.545z"></path>
<path d="M11.333 3.667c-2 2.849-1.879 6.727-0.303 9.758 0.242 0.485 0.545 1.030 0.909 1.455 0.303 0.424 0.606 0.909 1.030 1.273 0.121 0.182 0.303 0.303 0.424 0.485 0.061 0.061 0.061 0.061 0.121 0.121 0.121 0.121 0.303 0.303 0.485 0.424 0 0 0 0 0 0s0 0 0 0c0.182 0.182 0.364 0.303 0.545 0.424 0.061 0.061 0.061 0.061 0.121 0.121 0.182 0.121 0.364 0.303 0.545 0.424 0 0 0 0 0 0 0.061 0.061 0.182 0.121 0.242 0.182 0.061 0 0.061 0.061 0.121 0.061 0.121 0.061 0.303 0.182 0.424 0.242 0 0 0.061 0 0.061 0.061 0.121 0.061 0.242 0.121 0.364 0.182 0.061 0 0.061 0.061 0.121 0.061 0.061 0.061 0.182 0.061 0.242 0.121 0 0 0 0 0.061 0 0.182 0.061 0.364 0.182 0.545 0.242 0.061 0 0.061 0.061 0.121 0.061 0.121 0.061 0.303 0.121 0.424 0.182 0.061 0 0.121 0.061 0.182 0.061 0.121 0.061 0.242 0.121 0.424 0.121 0.061 0 0.121 0.061 0.182 0.061 0.182 0.061 0.364 0.121 0.606 0.182 10.303 1.697 12.667-6.242 12.667-6.242-2.121 3.091-6.303 4.545-10.727 3.394-0.182-0.061-0.364-0.121-0.606-0.182-0.061 0-0.121-0.061-0.182-0.061-0.121-0.061-0.303-0.061-0.424-0.121-0.061 0-0.121-0.061-0.182-0.061-0.121-0.061-0.303-0.121-0.424-0.182-0.061 0-0.061-0.061-0.121-0.061-0.182-0.061-0.364-0.182-0.545-0.242-0.061-0.061-0.182-0.121-0.242-0.121s-0.121-0.061-0.182-0.061-0.242-0.121-0.364-0.182c0 0-0.061 0-0.061-0.061-0.121-0.061-0.303-0.182-0.424-0.242-0.061 0-0.061-0.061-0.121-0.061-0.061-0.061-0.182-0.121-0.242-0.182-0.182-0.121-0.364-0.242-0.545-0.424-0.061-0.061-0.061-0.061-0.121-0.121-1.939-1.515-3.455-3.636-4.182-6-0.788-2.485-0.606-5.212 0.727-7.455z"></path>
<path d="M18.545 1.121c-1.151 1.758-1.273 3.879-0.485 5.818 0.848 2.061 2.606 3.636 4.667 4.364 0.061 0.061 0.182 0.061 0.242 0.061s0.061 0 0.121 0.061c0.121 0.061 0.242 0.061 0.364 0.121 5.697 1.091 7.212-2.909 7.636-3.515-1.333 1.939-3.636 2.424-6.424 1.758-0.242-0.061-0.485-0.121-0.667-0.182-0.242-0.121-0.545-0.182-0.788-0.303-0.485-0.242-0.97-0.545-1.394-0.848-2.485-1.879-4.061-5.515-2.424-8.424z"></path>
</svg>
