<?xml version="1.0" encoding="utf-8"?>
<!-- Generated by IcoMoon.io -->
<!DOCTYPE svg PUBLIC "-//W3C//DTD SVG 1.1//EN" "http://www.w3.org/Graphics/SVG/1.1/DTD/svg11.dtd">
<svg version="1.1" xmlns="http://www.w3.org/2000/svg" xmlns:xlink="http://www.w3.org/1999/xlink" width="32" height="32" viewBox="0 0 32 32">
<path d="M20.055 26c-0.25-0.361-3.503-5.992-3.503-5.992l10.6-2.758c0.264-0.083 0.347-0.139 0.514 0.125s3.5 4.792 3.597 4.944c0.097 0.153 0.194 0.25-0.111 0.361s-10.305 3.486-10.5 3.569c-0.195 0.083-0.347 0.111-0.597-0.25zM31.999 21.389c-0.994-1.339-2.398-3.22-3.297-4.422 0.596-0.158 2.104-0.56 3.297-0.878v5.3zM28.693 10.44c0.163-0.037 0.305-0.082 0.505 0.193 0.167 0.228 2.094 2.671 2.802 3.568v0.578c-0.018 0.004-0.037 0.009-0.056 0.013-0.238 0.052-4.13 1.018-4.13 1.018l-3.183-4.368c-0.089-0.126-0.163-0.252 0.059-0.282s3.84-0.683 4.004-0.72zM5.931 3.579c-0.548 0.025-3.651 0.276-5.611 0.438 0.287-0.831 0.766-1.583 1.439-2.256 1.174-1.174 2.587-1.76 4.24-1.76h19.999c1.653 0 3.066 0.587 4.24 1.76s1.761 2.587 1.761 4.24v6.762c-0.943-1.173-1.948-2.424-2.245-2.782-0.579-0.698-0.862-0.572-1.218-0.52s-4.516 0.75-4.999 0.832c-0.483 0.082-0.787 0.275-0.49 0.691 0.264 0.37 2.999 4.247 3.601 5.101l-10.871 2.604-8.647-14.455c-0.344-0.51-0.415-0.689-1.199-0.653zM21.036 27.945c0.617-0.187 8.509-3.020 10.964-3.918v1.972c0 1.653-0.587 3.066-1.761 4.24s-2.587 1.761-4.24 1.761h-20c-1.653 0-3.066-0.587-4.24-1.761s-1.76-2.587-1.76-4.24v-16.793c2.161 4.689 5.55 11.996 5.683 12.295 0.19 0.427 0.684 1.12 1.84 0.842 1.185-0.284 5.292-1.357 7.536-1.944 1.186 2.147 3.604 6.504 4.052 7.128 0.597 0.833 1.008 0.696 1.925 0.418zM7.551 20.661c-0.325 0.074-0.325 0.037-0.362-0.075-0.034-0.102-6.123-12.66-7.184-14.832 0.008-0.227 0.027-0.449 0.057-0.666 1.045-0.087 5.559-0.49 5.737-0.5 0.2-0.011 0.179 0.032 0.253 0.158 0 0 7.977 13.77 8.117 14.011s0.056 0.316-0.074 0.343c-0.13 0.028-6.219 1.485-6.544 1.56z"></path>
</svg>
