<?xml version="1.0" encoding="utf-8"?>
<!-- Generated by IcoMoon.io -->
<!DOCTYPE svg PUBLIC "-//W3C//DTD SVG 1.1//EN" "http://www.w3.org/Graphics/SVG/1.1/DTD/svg11.dtd">
<svg version="1.1" xmlns="http://www.w3.org/2000/svg" xmlns:xlink="http://www.w3.org/1999/xlink" width="32" height="32" viewBox="0 0 32 32">
<path d="M14.174 7.341q-0.196 0.018-0.276 0.187t-0.151 0.169q-0.089 0.018-0.089-0.089 0-0.214 0.339-0.267h0.178zM15.724 7.59q-0.071 0.018-0.205-0.116t-0.312-0.080q0.428-0.196 0.57 0.036 0.053 0.107-0.053 0.16zM9.47 15.198q-0.071-0.018-0.107 0.053t-0.080 0.223-0.098 0.241-0.178 0.232q-0.125 0.178-0.018 0.214 0.071 0.018 0.223-0.125t0.223-0.321q0.018-0.053 0.036-0.125t0.036-0.107 0.027-0.080 0.009-0.071v-0.053t-0.018-0.045-0.053-0.036zM24.704 21.595q0-0.321-0.98-0.748 0.071-0.267 0.134-0.49t0.089-0.463 0.053-0.383 0.009-0.401-0.018-0.347-0.062-0.392-0.071-0.365-0.089-0.445-0.098-0.472q-0.178-0.855-0.837-1.835t-1.283-1.336q0.428 0.356 1.016 1.479 1.55 2.886 0.962 4.953-0.196 0.713-0.891 0.748-0.552 0.071-0.686-0.33t-0.143-1.488-0.205-1.906q-0.16-0.695-0.347-1.229t-0.347-0.811-0.276-0.437-0.232-0.267-0.134-0.125q-0.249-1.105-0.552-1.835t-0.526-0.998-0.419-0.588-0.267-0.713q-0.071-0.374 0.107-0.953t0.080-0.882-0.793-0.445q-0.267-0.053-0.793-0.321t-0.633-0.285q-0.143-0.018-0.196-0.463t0.143-0.909 0.641-0.481q0.659-0.053 0.909 0.535t0.071 1.033q-0.196 0.339-0.036 0.472t0.535 0.009q0.232-0.071 0.232-0.641v-0.659q-0.089-0.535-0.241-0.891t-0.374-0.543-0.419-0.267-0.481-0.134q-1.906 0.143-1.586 2.388 0 0.267-0.018 0.267-0.16-0.16-0.526-0.187t-0.588 0.009-0.276-0.089q0.018-1.016-0.285-1.604t-0.802-0.606q-0.481-0.018-0.739 0.49t-0.294 1.060q-0.018 0.267 0.062 0.659t0.232 0.668 0.276 0.241q0.178-0.053 0.285-0.249 0.071-0.16-0.125-0.143-0.125 0-0.276-0.258t-0.169-0.597q-0.018-0.392 0.16-0.659t0.606-0.249q0.303 0 0.481 0.374t0.169 0.695-0.027 0.392q-0.392 0.267-0.552 0.517-0.143 0.214-0.49 0.419t-0.365 0.223q-0.232 0.249-0.276 0.481t0.134 0.321q0.249 0.143 0.445 0.347t0.285 0.339 0.33 0.232 0.633 0.116q0.837 0.036 1.817-0.267 0.036-0.018 0.41-0.125t0.615-0.187 0.526-0.232 0.374-0.312q0.16-0.249 0.356-0.143 0.089 0.053 0.116 0.151t-0.053 0.214-0.294 0.169q-0.356 0.107-1.007 0.383t-0.811 0.347q-0.784 0.339-1.247 0.41-0.445 0.089-1.408-0.036-0.178-0.036-0.16 0.036t0.303 0.339q0.445 0.41 1.194 0.392 0.303-0.018 0.641-0.125t0.641-0.249 0.597-0.312 0.535-0.303 0.437-0.214 0.312-0.045 0.151 0.196q0 0.036-0.018 0.080t-0.071 0.089-0.107 0.080-0.151 0.089-0.16 0.080-0.178 0.089-0.169 0.080q-0.499 0.249-1.203 0.784t-1.185 0.766-0.873 0.018q-0.374-0.196-1.123-1.301-0.392-0.552-0.445-0.392-0.018 0.053-0.018 0.178 0 0.445-0.267 1.007t-0.526 0.989-0.374 1.033 0.205 1.123q-0.41 0.107-1.114 1.604t-0.846 2.512q-0.036 0.321-0.027 1.229t-0.098 1.051q-0.143 0.428-0.517 0.053-0.57-0.552-0.641-1.675-0.036-0.499 0.071-0.998 0.071-0.339-0.018-0.321l-0.071 0.089q-0.641 1.158 0.178 2.958 0.089 0.214 0.445 0.499t0.428 0.356q0.356 0.41 1.853 1.612t1.657 1.363q0.285 0.267 0.312 0.677t-0.249 0.766-0.811 0.41q0.143 0.267 0.517 0.793t0.499 0.962 0.125 1.256q0.82-0.428 0.125-1.639-0.071-0.143-0.187-0.285t-0.169-0.214-0.036-0.107q0.053-0.089 0.232-0.169t0.356 0.045q0.82 0.927 2.958 0.641 2.37-0.267 3.154-1.55 0.41-0.677 0.606-0.535 0.214 0.107 0.178 0.927-0.018 0.445-0.41 1.639-0.16 0.41-0.107 0.668t0.428 0.276q0.053-0.339 0.258-1.372t0.241-1.604q0.036-0.374-0.116-1.31t-0.134-1.728 0.41-1.256q0.267-0.321 0.909-0.321 0.018-0.659 0.615-0.944t1.292-0.187 1.069 0.401zM13.514 6.86q0.053-0.303-0.045-0.535t-0.205-0.267q-0.16-0.036-0.16 0.125 0.036 0.089 0.089 0.107 0.178 0 0.125 0.267-0.053 0.356 0.143 0.356 0.053 0 0.053-0.053zM20.98 10.37q-0.036-0.143-0.116-0.205t-0.232-0.089-0.258-0.098q-0.089-0.053-0.169-0.143t-0.125-0.143-0.098-0.116-0.071-0.071-0.071 0.027q-0.249 0.285 0.125 0.775t0.695 0.561q0.16 0.018 0.258-0.143t0.062-0.356zM17.808 6.575q0-0.196-0.089-0.347t-0.196-0.223-0.16-0.053q-0.249 0.018-0.125 0.125l0.071 0.036q0.249 0.071 0.321 0.552 0 0.053 0.143-0.036zM18.771 2.423q0-0.036-0.045-0.089t-0.16-0.125-0.169-0.107q-0.267-0.267-0.428-0.267-0.16 0.018-0.205 0.134t-0.018 0.232-0.009 0.223q-0.018 0.071-0.107 0.187t-0.107 0.16 0.053 0.151q0.071 0.053 0.143 0t0.196-0.16 0.267-0.16q0.018-0.018 0.16-0.018t0.267-0.036 0.16-0.125zM28.837 26.316q0.356 0.214 0.552 0.437t0.214 0.428-0.045 0.401-0.276 0.392-0.419 0.347-0.535 0.33-0.561 0.294-0.57 0.276-0.481 0.232q-0.677 0.339-1.523 0.998t-1.345 1.14q-0.303 0.285-1.212 0.347t-1.586-0.258q-0.321-0.16-0.526-0.419t-0.294-0.454-0.392-0.347-0.837-0.169q-0.784-0.018-2.316-0.018-0.339 0-1.016 0.027t-1.033 0.045q-0.784 0.018-1.416 0.267t-0.953 0.535-0.775 0.508-0.953 0.205q-0.517-0.018-1.978-0.552t-2.601-0.766q-0.339-0.071-0.909-0.169t-0.891-0.16-0.704-0.169-0.597-0.258-0.303-0.347q-0.178-0.41 0.125-1.185t0.321-0.971q0.018-0.285-0.071-0.713t-0.178-0.757-0.080-0.65 0.187-0.481q0.249-0.214 1.016-0.249t1.069-0.214q0.535-0.321 0.748-0.624t0.214-0.909q0.374 1.301-0.57 1.889-0.57 0.356-1.479 0.267-0.606-0.053-0.766 0.178-0.232 0.267 0.089 1.016 0.036 0.107 0.143 0.321t0.151 0.321 0.080 0.303 0.018 0.392q0 0.267-0.303 0.873t-0.249 0.855q0.053 0.303 0.659 0.463 0.356 0.107 1.506 0.33t1.773 0.365q0.428 0.107 1.319 0.392t1.47 0.41 0.989 0.071q0.766-0.107 1.149-0.499t0.41-0.855-0.134-1.042-0.339-0.927-0.356-0.65q-2.156-3.385-3.011-4.312-1.212-1.319-2.013-0.713-0.196 0.16-0.267-0.267-0.053-0.285-0.036-0.677 0.018-0.517 0.178-0.927t0.428-0.837 0.392-0.748q0.143-0.374 0.472-1.283t0.526-1.39 0.535-1.087 0.695-0.962q1.96-2.548 2.209-3.474-0.214-1.996-0.285-5.523-0.036-1.604 0.428-2.699t1.889-1.862q0.695-0.374 1.853-0.374 0.944-0.018 1.889 0.241t1.586 0.739q1.016 0.748 1.63 2.165t0.526 2.628q-0.089 1.693 0.535 3.813 0.606 2.013 2.37 3.884 0.98 1.051 1.773 2.904t1.060 3.403q0.143 0.873 0.089 1.506t-0.214 0.989-0.356 0.392q-0.178 0.036-0.419 0.339t-0.481 0.633-0.722 0.597-1.087 0.249q-0.321-0.018-0.561-0.089t-0.401-0.241-0.241-0.276-0.205-0.365-0.16-0.347q-0.392-0.659-0.731-0.535t-0.499 0.873 0.125 1.728q0.356 1.247 0.018 3.474-0.178 1.158 0.321 1.791t1.301 0.588 1.514-0.633q1.051-0.873 1.595-1.185t1.844-0.757q0.944-0.321 1.372-0.65t0.33-0.615-0.445-0.508-0.918-0.419q-0.588-0.196-0.882-0.855t-0.267-1.292 0.276-0.846q0.018 0.552 0.143 1.007t0.258 0.722 0.365 0.508 0.374 0.339 0.383 0.232 0.294 0.169z"></path>
</svg>
