<?xml version="1.0" encoding="utf-8"?>
<!-- Generated by IcoMoon.io -->
<!DOCTYPE svg PUBLIC "-//W3C//DTD SVG 1.1//EN" "http://www.w3.org/Graphics/SVG/1.1/DTD/svg11.dtd">
<svg version="1.1" xmlns="http://www.w3.org/2000/svg" xmlns:xlink="http://www.w3.org/1999/xlink" width="32" height="32" viewBox="0 0 32 32">
<path d="M31.299 4.354c0.45-0.014 0.693 0.249 0.7 0.722 0.021 1.469-0.633 2.097-1.344 2.739s-1.53 1.034-2.272 2.172c-0.493 0.757-0.643 2.625-1.050 4.111-0.38 1.383-0.751 3.059-1.128 4.106-0.398 1.106-0.073 3.616 1.106 3.95-1.343 0.979-3.509 0.69-4.305-0.533-1.429 0.376-1.602 2.111-2.767 2.789-0.948 0.552-1.855 0.801-3.111 1.111-0.698 0.132-1.309 0.108-1.106-0.111 0.657-0.97 1.475-1.777 1.883-2.994-2.754-0.397-5.493-0.917-7.872-0.6-1.839 0.245-2.781 1.27-3.961 1.983-2.535 1.53-5.324 1.141-5.561 0.567-0.226-0.546 0.926-0.857 1.122-1.228-0.945 0.126-1.154-0.010-1.633-0.494 1.489-1.749 4.773-0.624 5.878-1.767 1.032-1.068 1.056-1.82 2.044-2.672 1.273-1.097 2.812-1.998 4.217-2.439 2.138-0.67 4.515-0.78 6.872-2.111 3.154-1.781 3.853-6.75 7.322-8.205 1.162-0.487 2.476-0.407 3.556-0.672 1.069-0.263 0.917-0.406 1.411-0.422zM31.16 4.626c-0.091 0.005-0.108 0.038-0.15 0.056-0.031 0.022-0.058 0.036-0.078 0.050-0.026 0.021-0.057 0.045-0.078 0.061-0.093 0.060-0.204 0.13-0.3 0.189-0.036 0.053 0.012 0.116 0.033 0.161 0.018 0.037 0.039 0.069 0.056 0.106 0.025 0.044 0.063 0.080 0.094 0.117 0.036 0.024 0.053 0.036 0.072 0.050 0.086 0.058 0.201 0.072 0.294 0.089 0.013 0.001 0.079 0.014 0.15 0.022 0.077 0.008 0.177 0.011 0.256 0.017 0.039 0.003 0.061-0.019 0.089-0.022 0.025-0.015 0.047-0.047 0.067-0.067 0.016-0.017 0.008-0.028 0.022-0.044 0.009-0.060 0.016-0.122 0.022-0.178v-0.061c0.004-0.119-0.019-0.217-0.044-0.322-0.007-0.023-0.025-0.059-0.039-0.078-0.038-0.059-0.105-0.086-0.156-0.122-0.025-0.009-0.051-0.013-0.083-0.017-0.038-0.004-0.079-0.005-0.117-0.005s-0.072-0.005-0.111 0zM30.133 5.487c-0.024-0.001-0.064 0.018-0.122 0.072-0.35 0.359-1.043 1.166-1.294 1.917-0.065 0.205 0.067 0.148 0.111 0.017 0.249-0.77 1.036-1.616 1.278-1.872 0.059-0.069 0.068-0.132 0.028-0.133zM30.238 5.665c-0.024 0.003-0.061 0.027-0.111 0.089-0.296 0.404-0.868 1.016-1.011 1.794-0.035 0.212 0.086 0.136 0.111 0 0.139-0.798 0.802-1.463 1.006-1.75 0.049-0.076 0.045-0.138 0.006-0.133zM30.366 5.821c-0.024 0.005-0.056 0.035-0.1 0.1-0.261 0.428-0.606 0.918-0.683 1.706-0.017 0.214 0.092 0.133 0.106-0.006 0.071-0.807 0.505-1.363 0.683-1.667 0.043-0.080 0.034-0.141-0.006-0.133zM30.51 5.943c-0.023 0.007-0.056 0.037-0.094 0.106-0.222 0.449-0.437 0.792-0.444 1.583 0.002 0.214 0.11 0.122 0.111-0.017 0-0.809 0.287-1.221 0.439-1.539 0.035-0.083 0.027-0.144-0.011-0.133zM27.788 6.326c-0.694 0.017-1.105 0.323-1.239 0.9 0.57 0.495 1.764 0.096 1.55-0.889-0.111-0.009-0.212-0.014-0.311-0.011zM25.416 19.431c-0.467 0.494-1.375 1.214-1.55 2 0.341 0.544 1.667 0.854 2.439 0.667-0.394-0.371-0.841-1.898-0.889-2.667z"></path>
</svg>
