<?xml version="1.0" encoding="utf-8"?>
<!-- Generated by IcoMoon.io -->
<!DOCTYPE svg PUBLIC "-//W3C//DTD SVG 1.1//EN" "http://www.w3.org/Graphics/SVG/1.1/DTD/svg11.dtd">
<svg version="1.1" xmlns="http://www.w3.org/2000/svg" xmlns:xlink="http://www.w3.org/1999/xlink" width="32" height="32" viewBox="0 0 32 32">
<path d="M27.967 24.766l-0 0c-0.051-0.457-1.079-1.012-1.413-1.265-0.669-0.506-1.36-1.056-2.073-1.518-0.373-0.242-1.019-0.428-1.413-0.607-0.562-0.255-1.799-0.502-2.12-0.961-0.609-0.874-1.029-1.934-1.46-2.985-0.432-1.053-0.979-2.161-1.413-3.238-0.215-0.534-0.321-1.014-0.565-1.518-1.518-3.127-3.738-5.748-6.454-7.589-0.891-0.604-1.873-1.16-2.968-1.518-0.62-0.202-1.362-0.089-2.026-0.253h-0.424c-0.371-0.117-0.682-0.54-0.989-0.759-0.64-0.455-1.27-0.776-2.026-1.113-0.285-0.127-1.045-0.429-1.319-0.202-0.16 0.057-0.232 0.129-0.283 0.304-0.16 0.258-0.013 0.66 0.094 0.911 0.303 0.706 0.74 1.136 1.13 1.72 0.353 0.527 0.782 1.127 1.036 1.72 0.531 1.24 0.767 2.618 1.272 3.845 0.194 0.471 0.474 1.008 0.754 1.417 0.226 0.33 0.631 0.58 0.754 1.012 0.257 0.433-0.378 1.909-0.518 2.378-0.543 1.811-0.428 4.346 0.189 5.919 0.244 0.622 0.474 1.348 1.13 1.518 0.048-0.041 0.012-0.019 0.094-0.050 0.14-1.212 0.188-2.381 0.565-3.339 0.236-0.6 0.685-1.010 0.989-1.518 0.223 0.138 0.222 0.542 0.33 0.809 0.278 0.693 0.565 1.444 0.895 2.125 0.691 1.426 1.45 2.796 2.308 4.047 0.305 0.445 0.715 0.927 1.084 1.315 0.157 0.165 0.348 0.25 0.471 0.455h0.047v0.051c-0.633-0.232-1.018-0.918-1.507-1.315-0.944-0.765-2.057-1.9-2.685-2.985-0.283-0.607-0.565-1.214-0.848-1.821v-0.051c-0.118 0.169-0.081 0.355-0.141 0.607-0.266 1.113-0.058 2.375-0.989 2.783-1.064 0.466-1.838-0.749-2.167-1.315-1.071-1.845-1.349-4.944-0.612-7.437 0.163-0.554 0.18-1.232 0.471-1.669-0.047-0.393-0.344-0.505-0.518-0.759-0.283-0.414-0.53-0.903-0.754-1.366-0.443-0.916-0.741-1.994-1.083-2.985-0.139-0.402-0.167-0.784-0.33-1.164-0.247-0.578-0.69-1.155-1.036-1.669-0.493-0.733-1.871-2.145-1.319-3.592 0.875-2.292 3.906-0.549 5.087 0.253 0.297 0.201 0.626 0.617 0.942 0.759 0.518 0.034 1.037 0.068 1.554 0.101 0.966 0.246 1.879 0.434 2.638 0.911 3.567 2.241 5.869 4.52 8.008 8.297 0.445 0.787 0.679 1.652 1.036 2.53 0.524 1.287 1.105 2.622 1.696 3.844 0.282 0.584 0.482 1.219 0.848 1.72 0.155 0.212 0.567 0.278 0.801 0.405 0.697 0.378 1.509 0.667 2.167 1.113 1.186 0.804 2.337 1.767 3.392 2.732 0.403 0.369 0.667 0.908 1.037 1.315v0.202c-0.33 0.101-0.66 0.202-0.989 0.304-0.731 0.203-1.364 0.15-2.073 0.354-0.422 0.121-0.957 0.299-1.413 0.354l0.047 0.051c0.269 0.805 1.711 1.476 2.355 1.973 0.808 0.623 1.568 1.372 2.167 2.226l0.612 0.658c0.139 0.216 0.178 0.501 0.33 0.708v0.050c-0.288-0.11-0.438-0.382-0.659-0.556-0.449-0.354-0.906-0.749-1.366-1.062-0.781-0.532-1.686-0.835-2.496-1.366-0.456-0.298-0.894-0.667-1.319-1.012-0.389-0.316-0.825-0.917-1.084-1.366-0.134-0.234-0.161-0.518-0.329-0.708 0.050-0.414 0.54-0.417 0.848-0.557 1.082-0.49 2.347-0.655 4.004-0.607zM6.154 5.799v0c0.168 0.174 0.425 0.292 0.559 0.5 0.1 0.156 0.117 0.32 0.233 0.45 0.001 0.533-0.131 0.882-0.419 1.1-0.015 0.017-0.031 0.033-0.046 0.050-0.155-0.35-0.311-0.7-0.466-1.050-0.201-0.31-0.489-0.541-0.652-0.9h-0.047v-0.050c0.255-0.060 0.497-0.107 0.838-0.1z"></path>
</svg>
