<?xml version="1.0" encoding="utf-8"?>
<!-- Generated by IcoMoon.io -->
<!DOCTYPE svg PUBLIC "-//W3C//DTD SVG 1.1//EN" "http://www.w3.org/Graphics/SVG/1.1/DTD/svg11.dtd">
<svg version="1.1" xmlns="http://www.w3.org/2000/svg" xmlns:xlink="http://www.w3.org/1999/xlink" width="32" height="32" viewBox="0 0 32 32">
<path d="M28.461-0v0c1.253 0 2.286 1.032 2.286 2.175v0.037c0 0.074-0.037 0.184-0.037 0.258l-2.434 22.305c0.037 0.884-0.442 1.732-1.253 2.138l-9.88 4.866c-0.332 0.147-0.664 0.221-0.995 0.221s-0.664-0.074-0.995-0.221l-9.917-4.867c-0.442-0.221-0.811-0.553-1.032-0.995-0.184-0.258-0.295-0.553-0.332-0.885l-2.507-22.488c0-0.074-0.111-0.184-0.111-0.258v-0.037c0-1.217 1.106-2.249 2.359-2.249h24.848zM5.518 18.7l1.94 0 0.408-2.144h1.838c1.736 0.102 3.675-1.327 3.675-3.777 0-1.429-0.817-2.246-2.45-2.348h-3.777zM8.274 15.025l0.51-3.063h1.327c0.715 0 1.225 0.306 1.225 0.919-0.102 1.736-0.919 2.042-1.838 2.144zM12.766 16.556l1.94 0 0.919-4.594h1.531c0.715 0 0.715 0.306 0.613 0.817l-0.715 3.777h2.042l0.715-4.186c0.204-1.021-0.408-1.838-2.042-1.94h-1.838l0.408-2.144h-1.94zM19.26 18.584l1.928 0 0.406-2.13h1.826c1.725 0.101 3.652-1.319 3.652-3.754 0-1.42-0.812-2.232-2.435-2.333h-3.754zM22 14.932l0.507-3.043h1.319c0.71 0 1.217 0.304 1.217 0.913-0.101 1.725-0.913 2.029-1.826 2.13z"></path>
</svg>
