<?xml version="1.0" encoding="utf-8"?>
<!-- Generated by IcoMoon.io -->
<!DOCTYPE svg PUBLIC "-//W3C//DTD SVG 1.1//EN" "http://www.w3.org/Graphics/SVG/1.1/DTD/svg11.dtd">
<svg version="1.1" xmlns="http://www.w3.org/2000/svg" xmlns:xlink="http://www.w3.org/1999/xlink" width="32" height="32" viewBox="0 0 32 32">
<path fill="#000" d="M16 0c8.836 0 16 7.164 16 16s-7.164 16-16 16-16-7.164-16-16 7.164-16 16-16v0z"></path>
<path fill="#fff" d="M26.016 6.766c-0.727-2.852-5.453-3.789-9.93-2.195-2.664 0.945-5.547 2.43-7.617 4.367-2.461 2.305-2.859 4.313-2.695 5.148 0.57 2.961 4.625 4.891 6.289 6.328v0.008c-0.492 0.242-4.086 2.063-4.93 3.922-0.891 1.961 0.141 3.367 0.82 3.563 2.109 0.586 4.273-0.469 5.438-2.203 1.125-1.68 1.031-3.836 0.539-4.914 0.672-0.18 1.461-0.258 2.453-0.141 2.813 0.328 3.367 2.086 3.266 2.82s-0.695 1.141-0.891 1.266-0.258 0.164-0.242 0.258c0.023 0.133 0.117 0.125 0.281 0.102 0.234-0.039 1.477-0.602 1.531-1.953 0.070-1.727-1.586-3.656-4.508-3.602-1.203 0.023-1.961 0.133-2.508 0.336-0.039-0.047-0.078-0.094-0.125-0.141-1.805-1.93-5.156-3.297-5.008-5.891 0.055-0.945 0.383-3.43 6.422-6.438 4.953-2.477 8.914-1.797 9.602-0.289 0.977 2.148-2.117 6.148-7.266 6.727-1.961 0.219-2.992-0.539-3.25-0.82-0.273-0.297-0.313-0.313-0.414-0.258-0.164 0.094-0.063 0.352 0 0.508 0.156 0.398 0.781 1.109 1.859 1.461 0.945 0.313 3.242 0.477 6.031-0.594 3.133-1.219 5.57-4.57 4.852-7.375zM12.758 21.297c0.234 0.867 0.211 1.672-0.031 2.398-0.023 0.078-0.055 0.164-0.086 0.242s-0.070 0.156-0.102 0.234c-0.195 0.391-0.445 0.758-0.742 1.078-0.93 1.016-2.234 1.406-2.797 1.078-0.602-0.352-0.297-1.781 0.781-2.93 1.164-1.227 2.836-2.023 2.836-2.023v-0.008l0.141-0.070z"></path>
</svg>
