<?xml version="1.0" encoding="utf-8"?>
<!-- Generated by IcoMoon.io -->
<!DOCTYPE svg PUBLIC "-//W3C//DTD SVG 1.1//EN" "http://www.w3.org/Graphics/SVG/1.1/DTD/svg11.dtd">
<svg version="1.1" xmlns="http://www.w3.org/2000/svg" xmlns:xlink="http://www.w3.org/1999/xlink" width="32" height="32" viewBox="0 0 32 32">
<path d="M15.97 0.353v0c4.001 0.007 8.158 1.59 11.681 5.186-2.308 0.586-2.548 2.063-2.033 3.832 0.926 2.636 1.659 5.325 0.88 8.123l-2.379 6.674-4.352-11.433c-0.804-2.581 0.713-2.19 1.973-2.264v-0.829l-10.761-0.026-0.034 0.739c2.415-0.109 2.428 1.047 3.018 2.088l1.625 3.889-3.54 8.299-4.817-12.071c-0.32-1.245-0.519-2.419 1.74-2.147v-0.803l-7.337-0.018c2.61-5.67 8.295-9.252 14.336-9.242zM30.606 10.908v0c0.786 3.894 0.951 7.452-0.657 11.293-2.417 4.617-4.393 5.225-6.32 6.893zM0.895 11.203v0l7.387 18.056c-2.419-1.647-4.122-2.532-6.32-6.73-1.686-4.384-1.748-5.956-1.067-11.325zM16.242 18.015v0l4.679 12.229c-2.973 1.152-6.22 1.282-9.849 0.246z"></path>
</svg>
