<svg version="1.1" id="boilerLayer" xmlns="http://www.w3.org/2000/svg" x="0" y="0" viewBox="0 0 402 688" xml:space="preserve"><style type="text/css">.st0{display:none;fill:#45362e}.st1{fill:#ebbd63}.st2{opacity:.1;fill:url(#jar_shadow_1_);enable-background:new}.st3{fill:#fff}.st4{opacity:.1;fill:url(#puff_shadow_2_);enable-background:new}</style><g id="boilerGroup"><path id="bg_4_" class="st0" d="M-314-67H686V933H-314z"/><g id="jar_group"><path id="jar" class="st1" d="M259.9 286.7l-8.7-59.3c9.7-.3 16.7-2 16.7-3.7v-24.1c0-1.8-8-1.7-19-1.7h-95c-11 0-21-.1-21 1.7v24.1c0 1.7 8.8 3.5 19.1 3.7l-8.7 59.3C63.7 289 1 305.5 1 326v320c0 22.1 72.9 41 161.2 41h80c88.4 0 158.8-18.9 158.8-41V326c0-20.6-61.2-37.1-141.1-39.3z"/><linearGradient id="jar_shadow_1_" gradientUnits="userSpaceOnUse" x1="1" y1="210.45" x2="401" y2="210.45" gradientTransform="translate(0 232)"><stop offset=".5" stop-color="#fff"/><stop offset=".5" stop-color="#fefefe"/><stop offset=".5" stop-color="#c3c3c3"/><stop offset=".5" stop-color="#8f8f8f"/><stop offset=".5" stop-color="#636363"/><stop offset=".5" stop-color="#3f3f3f"/><stop offset=".5" stop-color="#242424"/><stop offset=".5" stop-color="#101010"/><stop offset=".5" stop-color="#040404"/><stop offset=".5" stop-color="#000"/></linearGradient><path id="jar_shadow" class="st2" d="M259.9 286.7l-8.7-59.3c9.7-.3 16.7-2 16.7-3.7v-24.1c0-1.8-8-1.7-19-1.7h-95c-11 0-21-.1-21 1.7v24.1c0 1.7 8.8 3.5 19.1 3.7l-8.7 59.3C63.7 289 1 305.5 1 326v320c0 22.1 72.9 41 161.2 41h80c88.4 0 158.8-18.9 158.8-41V326c0-20.6-61.2-37.1-141.1-39.3z"/></g><g id="puff_group"><path id="puff_1_" class="st3" d="M253.2 52.4c-5-16.2-22.2-25.3-38.4-20.3l-.9.3c4.2-5 5.9-11.9 3.9-18.6-3.2-10.4-14.3-16.3-24.7-13-10.4 3.2-16.3 14.3-13 24.7v.1c-2.5.3-5 .8-7.4 1.5-1.8.6-3.5 1.2-5.2 2-7.7-6.4-18.4-8.9-28.6-5.7-16.2 5-25.3 22.2-20.3 38.4 3.5 11.2 12.8 19 23.5 21.1-2.3 4.4-2.9 9.7-1.3 14.8 3.2 10.4 14.3 16.3 24.7 13 4.9-1.5 8.7-4.7 11.1-8.8 3 .6 6.2.8 9.3.7.7 8 7.4 14.2 15.6 14.2 8.6 0 15.6-7 15.6-15.6 0-4.3-1.8-8.2-4.6-11.1V90c6.3 2.5 13.4 2.9 20.3.8 16.3-5.1 25.3-22.3 20.4-38.4z"/><linearGradient id="puff_shadow_2_" gradientUnits="userSpaceOnUse" x1="117.228" y1="-173.658" x2="254.534" y2="-173.658" gradientTransform="translate(0 232)"><stop offset=".5" stop-color="#fff"/><stop offset=".5" stop-color="#fefefe"/><stop offset=".5" stop-color="#c3c3c3"/><stop offset=".5" stop-color="#8f8f8f"/><stop offset=".5" stop-color="#636363"/><stop offset=".5" stop-color="#3f3f3f"/><stop offset=".5" stop-color="#242424"/><stop offset=".5" stop-color="#101010"/><stop offset=".5" stop-color="#040404"/><stop offset=".5" stop-color="#000"/></linearGradient><path id="puff_shadow_1_" class="st4" d="M253.2 52.4c-5-16.2-22.2-25.3-38.4-20.3l-.9.3c4.2-5 5.9-11.9 3.9-18.6-3.2-10.4-14.3-16.3-24.7-13-10.4 3.2-16.3 14.3-13 24.7v.1c-2.5.3-5 .8-7.4 1.5-1.8.6-3.5 1.2-5.2 2-7.7-6.4-18.4-8.9-28.6-5.7-16.2 5-25.3 22.2-20.3 38.4 3.5 11.2 12.8 19 23.5 21.1-2.3 4.4-2.9 9.7-1.3 14.8 3.2 10.4 14.3 16.3 24.7 13 4.9-1.5 8.7-4.7 11.1-8.8 3 .6 6.2.8 9.3.7.7 8 7.4 14.2 15.6 14.2 8.6 0 15.6-7 15.6-15.6 0-4.3-1.8-8.2-4.6-11.1V90c6.3 2.5 13.4 2.9 20.3.8 16.3-5.1 25.3-22.3 20.4-38.4z"/></g></g></svg>