<svg version="1.1" id="bottleLayer" xmlns="http://www.w3.org/2000/svg" x="0" y="0" viewBox="0 0 272.5 715.5" xml:space="preserve"><style type="text/css">.st0{fill:#87766c}.st1{fill:#eb6361}.st2,.st3{opacity:.2;enable-background:new}.st3{opacity:.1;fill:url(#shadow_1_);stroke:#000;stroke-miterlimit:10}</style><g id="bottleGroup"><g id="bottle"><path class="st0" d="M271.6 378c-2.7-34-18.1-64.7-41.5-87.1-10.6-14.8-25.2-46.4-22.6-105.7 0 0-1.6-90.6-20.7-116 0 0-9.3-31-5.3-49.3 4.3-1.1 7.6-5.1 7.6-9.8 0-5.5-4.5-10.1-10-10.1h-88c-5.5 0-10 4.6-10 10.1 0 5.3 4.2 9.8 9.5 10 3.8 18.3-5.5 49.1-5.5 49.1-19.1 25.4-20.7 116-20.7 116 2.6 60-12.4 91.5-22.9 106.1-23 22.3-38.2 52.6-40.9 86.6H0v297.2c0 22.1 17.9 39.8 40 39.8h192c22.1 0 40-17.7 40-39.8V378h-.4z"/><g id="label"><path class="st1" d="M137.4 614.7c-28.6 0-55.8-12.7-74.5-33.7H38.5C17.2 581 10 566.6 10 558.5v-87.9c0-11 10.7-21.6 28.5-21.6h24.8c18.7-21 45.8-33.2 74.1-33.2s55.4 12.2 74.1 33.2h23.8c17.8 0 26.7 10.6 26.7 21.6v87.9c0 8.1-5.3 22.5-26.7 22.5h-23.4c-18.7 21-45.9 33.7-74.5 33.7z"/><path class="st2" d="M236.7 470h-33c-14.6-19-38.2-33.2-65-33.2S88.3 451 73.7 470H39.8c-4.3 0-9.9-.9-9.9.6v87.9c0 1.5 5.5 5.5 9.9 5.5h33.6c14.5 20 38.4 33.7 65.3 33.7S189.5 584 204 564h32.7c4.3 0 5.3-4 5.3-5.5v-87.9c0-1.5-1-.6-5.3-.6z"/></g><linearGradient id="shadow_1_" gradientUnits="userSpaceOnUse" x1="-.4" y1="590.1" x2="272" y2="590.1" gradientTransform="matrix(1 0 0 -1 0 948)"><stop offset=".5" stop-color="#fff"/><stop offset=".5" stop-color="#fefefe"/><stop offset=".5" stop-color="#c3c3c3"/><stop offset=".5" stop-color="#8f8f8f"/><stop offset=".5" stop-color="#636363"/><stop offset=".5" stop-color="#3f3f3f"/><stop offset=".5" stop-color="#242424"/><stop offset=".5" stop-color="#101010"/><stop offset=".5" stop-color="#040404"/><stop offset=".5" stop-color="#000"/></linearGradient><path id="shadow" class="st3" d="M272 378.5c-2.7-35-18.1-64.9-41.5-87.3-10.6-14.8-25.2-46.5-22.6-105.8 0 0-1.6-90.6-20.7-116.1 0 0-9.3-31.1-5.3-49.4 4.3-1.1 7.6-4.9 7.6-9.6 0-5.5-4.5-9.9-10-9.9h-88c-5.5 0-10 4.4-10 9.9 0 5.3 4.2 9.6 9.5 9.9 3.8 18.3-5.5 49-5.5 49-19.1 25.4-20.7 116-20.7 116 2.6 60-12.4 91.8-22.9 106.4-23 22.3-38.2 52.8-40.9 86.8H-.4v296.8c0 22.1 18.9 40.2 41 40.2h192c22.1 0 39-18.2 39-40.2V378.5h.4z"/></g></g></svg>