<svg version="1.1" id="Layer_1" xmlns="http://www.w3.org/2000/svg" x="0" y="0" viewBox="0 0 1000 1000" xml:space="preserve"><style type="text/css">.st0{display:none;fill:#eb6361}.st1{fill:#ebbd63}.st2{opacity:.1}.st3{fill:url(#SVGID_1_)}.st4{fill:url(#SVGID_2_)}.st5{fill:url(#SVGID_3_)}.st6{fill:url(#SVGID_4_)}.st7{fill:url(#SVGID_5_)}.st8{fill:url(#SVGID_6_)}.st9{fill:url(#SVGID_7_)}.st10{fill:url(#SVGID_8_)}.st11{fill:url(#SVGID_9_)}</style><g id="_x35__-_Grain_1_"><path id="bg_2_" class="st0" d="M0 0h1000v1000H0z"/><g id="grain_group_1_"><g id="grain_group"><path class="st1" d="M592 169h-19v244.2l19-8.4zM601.8 674.9l-88.4 38.8c-5 2.2-9.5 8.4-9.9 13.9l-3.5 46-3.5-46c-.4-5.5-4.8-11.7-9.9-13.9l-88.4-38.8c-5-2.2-8.8.4-8.4 5.9l7.4 96.4c.4 5.5 4.8 11.7 9.9 13.9l88.4 38.8c1.7.7 3.2.9 4.5.6 1.3.3 2.8.1 4.5-.6l88.4-38.8c5-2.2 9.5-8.4 9.9-13.9l7.4-96.4c.4-5.4-3.4-8.1-8.4-5.9z"/><path class="st1" d="M601.8 545.9l-88.4 38.8c-5 2.2-9.5 8.4-9.9 13.9l-3.5 46-3.5-46c-.4-5.5-4.8-11.7-9.9-13.9l-88.4-38.8c-5-2.2-8.8.4-8.4 5.9l7.4 96.4c.4 5.5 4.8 11.7 9.9 13.9l88.4 38.8c1.7.7 3.2.9 4.5.6 1.3.3 2.8.1 4.5-.6l88.4-38.8c5-2.2 9.5-8.4 9.9-13.9l7.4-96.4c.4-5.5-3.4-8.2-8.4-5.9z"/><path class="st1" d="M397.2 519.1c.4 5.5 4.8 11.7 9.9 13.9l88.4 38.8c1.7.7 3.2.9 4.5.6 1.3.3 2.8.1 4.5-.6l88.4-38.8c5-2.2 9.5-8.4 9.9-13.9l7.4-96.4c.4-5.5-3.3-8.1-8.4-5.9l-88.4 38.8c-5 2.2-9.5 8.4-9.9 13.9l-3.5 46-3.5-46c-.4-5.5-4.8-11.7-9.9-13.9l-88.4-38.8c-5-2.2-8.8.4-8.4 5.9l7.4 96.4z"/><path class="st1" d="M496.7 322.8l-41.6 69.4c-2.4 4-2.4 10.4 0 14.3l15.3 25.5 22.3 9.8c2.6 1.2 5.1 2.8 7.4 4.7 2.3-2 4.7-3.6 7.4-4.7l24.8-10.9 14.7-24.5c2.4-4 2.4-10.4 0-14.3l-41.6-69.3c-2.5-3.9-6.3-3.9-8.7 0zM552 169h-19v170.4l19 31.6zM511 307.6V169h-19v138.4c3-1.6 6-2.5 9.3-2.5 3.4 0 6.7.9 9.7 2.7zM430 169h-19v236.9l19 8.3zM471 169h-19v199.7l19-31.7z"/></g><g id="grain_group_shadow" class="st2"><linearGradient id="SVGID_1_" gradientUnits="userSpaceOnUse" x1="573" y1="708.917" x2="592" y2="708.917" gradientTransform="matrix(1 0 0 -1 0 1000)"><stop offset=".5" stop-color="#FFF"/><stop offset=".5" stop-color="#000"/></linearGradient><path class="st3" d="M592 169h-19v244.2l19-8.4z"/><linearGradient id="SVGID_2_" gradientUnits="userSpaceOnUse" x1="389.813" y1="247.556" x2="610.187" y2="247.556" gradientTransform="matrix(1 0 0 -1 0 1000)"><stop offset=".5" stop-color="#FFF"/><stop offset=".5" stop-color="#000"/></linearGradient><path class="st4" d="M601.8 674.9l-88.4 38.8c-5 2.2-9.5 8.4-9.9 13.9l-3.5 46-3.5-46c-.4-5.5-4.8-11.7-9.9-13.9l-88.4-38.8c-5-2.2-8.8.4-8.4 5.9l7.4 96.4c.4 5.5 4.8 11.7 9.9 13.9l88.4 38.8c1.7.7 3.2.9 4.5.6 1.3.3 2.8.1 4.5-.6l88.4-38.8c5-2.2 9.5-8.4 9.9-13.9l7.4-96.4c.4-5.4-3.4-8.1-8.4-5.9z"/><linearGradient id="SVGID_3_" gradientUnits="userSpaceOnUse" x1="389.813" y1="376.634" x2="610.187" y2="376.634" gradientTransform="matrix(1 0 0 -1 0 1000)"><stop offset=".5" stop-color="#FFF"/><stop offset=".5" stop-color="#000"/></linearGradient><path class="st5" d="M601.8 545.9l-88.4 38.8c-5 2.2-9.5 8.4-9.9 13.9l-3.5 46-3.5-46c-.4-5.5-4.8-11.7-9.9-13.9l-88.4-38.8c-5-2.2-8.8.4-8.4 5.9l7.4 96.4c.4 5.5 4.8 11.7 9.9 13.9l88.4 38.8c1.7.7 3.2.9 4.5.6 1.3.3 2.8.1 4.5-.6l88.4-38.8c5-2.2 9.5-8.4 9.9-13.9l7.4-96.4c.4-5.5-3.4-8.2-8.4-5.9z"/><linearGradient id="SVGID_4_" gradientUnits="userSpaceOnUse" x1="389.813" y1="505.712" x2="610.187" y2="505.712" gradientTransform="matrix(1 0 0 -1 0 1000)"><stop offset=".5" stop-color="#FFF"/><stop offset=".5" stop-color="#000"/></linearGradient><path class="st6" d="M397.2 519.1c.4 5.5 4.8 11.7 9.9 13.9l88.4 38.8c1.7.7 3.2.9 4.5.6 1.3.3 2.8.1 4.5-.6l88.4-38.8c5-2.2 9.5-8.4 9.9-13.9l7.4-96.4c.4-5.5-3.3-8.1-8.4-5.9l-88.4 38.8c-5 2.2-9.5 8.4-9.9 13.9l-3.5 46-3.5-46c-.4-5.5-4.8-11.7-9.9-13.9l-88.4-38.8c-5-2.2-8.8.4-8.4 5.9l7.4 96.4z"/><linearGradient id="SVGID_5_" gradientUnits="userSpaceOnUse" x1="453.277" y1="616.772" x2="548.66" y2="616.772" gradientTransform="matrix(1 0 0 -1 0 1000)"><stop offset=".5" stop-color="#FFF"/><stop offset=".5" stop-color="#000"/></linearGradient><path class="st7" d="M496.7 322.8l-41.6 69.4c-2.4 4-2.4 10.4 0 14.3l15.3 25.5 22.3 9.8c2.6 1.2 5.1 2.8 7.4 4.7 2.3-2 4.7-3.6 7.4-4.7l24.8-10.9 14.7-24.5c2.4-4 2.4-10.4 0-14.3l-41.6-69.3c-2.5-3.9-6.3-3.9-8.7 0z"/><linearGradient id="SVGID_6_" gradientUnits="userSpaceOnUse" x1="533" y1="729.982" x2="552" y2="729.982" gradientTransform="matrix(1 0 0 -1 0 1000)"><stop offset=".5" stop-color="#FFF"/><stop offset=".5" stop-color="#000"/></linearGradient><path class="st8" d="M552 169h-19v170.4l19 31.6z"/><linearGradient id="SVGID_7_" gradientUnits="userSpaceOnUse" x1="492" y1="761.708" x2="511" y2="761.708" gradientTransform="matrix(1 0 0 -1 0 1000)"><stop offset=".5" stop-color="#FFF"/><stop offset=".5" stop-color="#000"/></linearGradient><path class="st9" d="M511 307.6V169h-19v138.4c3-1.6 6-2.5 9.3-2.5 3.4 0 6.7.9 9.7 2.7z"/><linearGradient id="SVGID_8_" gradientUnits="userSpaceOnUse" x1="411" y1="708.392" x2="430" y2="708.392" gradientTransform="matrix(1 0 0 -1 0 1000)"><stop offset=".5" stop-color="#FFF"/><stop offset=".5" stop-color="#000"/></linearGradient><path class="st10" d="M430 169h-19v236.9l19 8.3z"/><linearGradient id="SVGID_9_" gradientUnits="userSpaceOnUse" x1="452" y1="731.152" x2="471" y2="731.152" gradientTransform="matrix(1 0 0 -1 0 1000)"><stop offset=".5" stop-color="#FFF"/><stop offset=".5" stop-color="#000"/></linearGradient><path class="st11" d="M471 169h-19v199.7l19-31.7z"/></g></g></g></svg>