<svg version="1.1" id="grainLayer" xmlns="http://www.w3.org/2000/svg" x="0" y="0" viewBox="0 0 222 663" xml:space="preserve"><style type="text/css">.st0{display:none;fill:#eb6361}.st1{fill:#ebbd63}.st2{opacity:.1}.st3{fill:url(#SVGID_1_)}.st4{fill:url(#SVGID_2_)}.st5{fill:url(#SVGID_3_)}.st6{fill:url(#SVGID_4_)}.st7{fill:url(#SVGID_5_)}.st8{fill:url(#SVGID_6_)}.st9{fill:url(#SVGID_7_)}.st10{fill:url(#SVGID_8_)}.st11{fill:url(#SVGID_9_)}</style><g id="grainGroup"><path id="bg_2_" class="st0" d="M-390-169H610V831H-390z"/><g id="grainGroup"><g id="grain_group"><path class="st1" d="M202 0h-19v244.2l19-8.4zM211.8 505.9l-88.4 38.8c-5 2.2-9.5 8.4-9.9 13.9l-3.5 46-3.5-46c-.4-5.5-4.8-11.7-9.9-13.9L8.2 505.9c-5-2.2-8.8.4-8.4 5.9l7.4 96.4c.4 5.5 4.8 11.7 9.9 13.9l88.4 38.8c1.7.7 3.2.9 4.5.6 1.3.3 2.8.1 4.5-.6l88.4-38.8c5-2.2 9.5-8.4 9.9-13.9l7.4-96.4c.4-5.4-3.4-8.1-8.4-5.9z"/><path class="st1" d="M211.8 376.9l-88.4 38.8c-5 2.2-9.5 8.4-9.9 13.9l-3.5 46-3.5-46c-.4-5.5-4.8-11.7-9.9-13.9L8.2 376.9c-5-2.2-8.8.4-8.4 5.9l7.4 96.4c.4 5.5 4.8 11.7 9.9 13.9l88.4 38.8c1.7.7 3.2.9 4.5.6 1.3.3 2.8.1 4.5-.6l88.4-38.8c5-2.2 9.5-8.4 9.9-13.9l7.4-96.4c.4-5.5-3.4-8.2-8.4-5.9z"/><path class="st1" d="M7.2 350.1c.4 5.5 4.8 11.7 9.9 13.9l88.4 38.8c1.7.7 3.2.9 4.5.6 1.3.3 2.8.1 4.5-.6l88.4-38.8c5-2.2 9.5-8.4 9.9-13.9l7.4-96.4c.4-5.5-3.3-8.1-8.4-5.9l-88.4 38.8c-5 2.2-9.5 8.4-9.9 13.9l-3.5 46-3.5-46c-.4-5.5-4.8-11.7-9.9-13.9L8.2 247.8c-5-2.2-8.8.4-8.4 5.9l7.4 96.4z"/><path class="st1" d="M106.7 153.8l-41.6 69.4c-2.4 4-2.4 10.4 0 14.3L80.4 263l22.3 9.8c2.6 1.2 5.1 2.8 7.4 4.7 2.3-2 4.7-3.6 7.4-4.7l24.8-10.9 14.7-24.5c2.4-4 2.4-10.4 0-14.3l-41.6-69.3c-2.5-3.9-6.3-3.9-8.7 0zM162 0h-19v170.4l19 31.6zM121 138.6V0h-19v138.4c3-1.6 6-2.5 9.3-2.5 3.4 0 6.7.9 9.7 2.7zM40 0H21v236.9l19 8.3zM81 0H62v199.7L81 168z"/></g><g id="grain_group_shadow" class="st2"><linearGradient id="SVGID_1_" gradientUnits="userSpaceOnUse" x1="183" y1="-109.9" x2="202" y2="-109.9" gradientTransform="translate(0 232)"><stop offset=".5" stop-color="#fff"/><stop offset=".5" stop-color="#000"/></linearGradient><path class="st3" d="M202 0h-19v244.2l19-8.4z"/><linearGradient id="SVGID_2_" gradientUnits="userSpaceOnUse" x1="-.229" y1="351.377" x2="220.229" y2="351.377" gradientTransform="translate(0 232)"><stop offset=".5" stop-color="#fff"/><stop offset=".5" stop-color="#000"/></linearGradient><path class="st4" d="M211.8 505.9l-88.4 38.8c-5 2.2-9.5 8.4-9.9 13.9l-3.5 46-3.5-46c-.4-5.5-4.8-11.7-9.9-13.9L8.2 505.9c-5-2.2-8.8.4-8.4 5.9l7.4 96.4c.4 5.5 4.8 11.7 9.9 13.9l88.4 38.8c1.7.7 3.2.9 4.5.6 1.3.3 2.8.1 4.5-.6l88.4-38.8c5-2.2 9.5-8.4 9.9-13.9l7.4-96.4c.4-5.4-3.4-8.1-8.4-5.9z"/><linearGradient id="SVGID_3_" gradientUnits="userSpaceOnUse" x1="-.229" y1="222.356" x2="220.229" y2="222.356" gradientTransform="translate(0 232)"><stop offset=".5" stop-color="#fff"/><stop offset=".5" stop-color="#000"/></linearGradient><path class="st5" d="M211.8 376.9l-88.4 38.8c-5 2.2-9.5 8.4-9.9 13.9l-3.5 46-3.5-46c-.4-5.5-4.8-11.7-9.9-13.9L8.2 376.9c-5-2.2-8.8.4-8.4 5.9l7.4 96.4c.4 5.5 4.8 11.7 9.9 13.9l88.4 38.8c1.7.7 3.2.9 4.5.6 1.3.3 2.8.1 4.5-.6l88.4-38.8c5-2.2 9.5-8.4 9.9-13.9l7.4-96.4c.4-5.5-3.4-8.2-8.4-5.9z"/><linearGradient id="SVGID_4_" gradientUnits="userSpaceOnUse" x1="-.229" y1="93.277" x2="220.23" y2="93.277" gradientTransform="translate(0 232)"><stop offset=".5" stop-color="#fff"/><stop offset=".5" stop-color="#000"/></linearGradient><path class="st6" d="M7.2 350.1c.4 5.5 4.8 11.7 9.9 13.9l88.4 38.8c1.7.7 3.2.9 4.5.6 1.3.3 2.8.1 4.5-.6l88.4-38.8c5-2.2 9.5-8.4 9.9-13.9l7.4-96.4c.4-5.5-3.3-8.1-8.4-5.9l-88.4 38.8c-5 2.2-9.5 8.4-9.9 13.9l-3.5 46-3.5-46c-.4-5.5-4.8-11.7-9.9-13.9L8.2 247.8c-5-2.2-8.8.4-8.4 5.9l7.4 96.4z"/><linearGradient id="SVGID_5_" gradientUnits="userSpaceOnUse" x1="63.3" y1="-17.813" x2="158.683" y2="-17.813" gradientTransform="translate(0 232)"><stop offset=".5" stop-color="#fff"/><stop offset=".5" stop-color="#000"/></linearGradient><path class="st7" d="M106.7 153.8l-41.6 69.4c-2.4 4-2.4 10.4 0 14.3L80.4 263l22.3 9.8c2.6 1.2 5.1 2.8 7.4 4.7 2.3-2 4.7-3.6 7.4-4.7l24.8-10.9 14.7-24.5c2.4-4 2.4-10.4 0-14.3l-41.6-69.3c-2.5-3.9-6.3-3.9-8.7 0z"/><linearGradient id="SVGID_6_" gradientUnits="userSpaceOnUse" x1="143" y1="-131" x2="162" y2="-131" gradientTransform="translate(0 232)"><stop offset=".5" stop-color="#fff"/><stop offset=".5" stop-color="#000"/></linearGradient><path class="st8" d="M162 0h-19v170.4l19 31.6z"/><linearGradient id="SVGID_7_" gradientUnits="userSpaceOnUse" x1="102" y1="-162.7" x2="121" y2="-162.7" gradientTransform="translate(0 232)"><stop offset=".5" stop-color="#fff"/><stop offset=".5" stop-color="#000"/></linearGradient><path class="st9" d="M121 138.6V0h-19v138.4c3-1.6 6-2.5 9.3-2.5 3.4 0 6.7.9 9.7 2.7z"/><linearGradient id="SVGID_8_" gradientUnits="userSpaceOnUse" x1="21" y1="-109.4" x2="40" y2="-109.4" gradientTransform="translate(0 232)"><stop offset=".5" stop-color="#fff"/><stop offset=".5" stop-color="#000"/></linearGradient><path class="st10" d="M40 0H21v236.9l19 8.3z"/><linearGradient id="SVGID_9_" gradientUnits="userSpaceOnUse" x1="62" y1="-132.15" x2="81" y2="-132.15" gradientTransform="translate(0 232)"><stop offset=".5" stop-color="#fff"/><stop offset=".5" stop-color="#000"/></linearGradient><path class="st11" d="M81 0H62v199.7L81 168z"/></g></g></g></svg>