<svg version="1.1" id="grinderLayer" xmlns="http://www.w3.org/2000/svg" x="0" y="0" viewBox="0 0 312 670" xml:space="preserve"><style type="text/css">.st0{display:none;fill:#87766c}.st1{fill:#ebbd63}.st2,.st3,.st4,.st5,.st6,.st7{opacity:.1;fill:url(#flake_shadow_1_);enable-background:new}.st3,.st4,.st5,.st6,.st7{fill:url(#flake_shadow_2_)}.st4,.st5,.st6,.st7{fill:url(#flake_shadow_3_)}.st5,.st6,.st7{fill:url(#flake_shadow_4_)}.st6,.st7{fill:url(#flake_shadow_5_)}.st7{fill:url(#flake_shadow_6_)}.st10,.st11,.st12,.st13,.st8,.st9{opacity:.1;fill:url(#flake_shadow_7_);enable-background:new}.st10,.st11,.st12,.st13,.st9{fill:url(#flake_shadow_8_)}.st10,.st11,.st12,.st13{fill:url(#flake_shadow_9_)}.st11,.st12,.st13{fill:url(#flake_shadow_10_)}.st12,.st13{fill:url(#flake_shadow_11_)}.st13{fill:url(#flake_shadow_12_)}.st14{fill:#eb6361}.st15{opacity:.1;fill:url(#tub_shadow_1_);enable-background:new}</style><g id="grinderGroup"><path id="bg_3_" class="st0" d="M-343-99H657V901H-343z"/><g id="falling_grain"><path id="flake_93_" class="st1" d="M205.3 662.2l-20.2 6-15.3-14.5 4.9-20.5 20.2-6 15.3 14.5z"/><linearGradient id="flake_shadow_1_" gradientUnits="userSpaceOnUse" x1="169.8" y1="415.7" x2="210.2" y2="415.7" gradientTransform="translate(0 232)"><stop offset=".5" stop-color="#fff"/><stop offset=".5" stop-color="#000"/></linearGradient><path id="flake_shadow_93_" class="st2" d="M205.3 662.2l-20.2 6-15.3-14.5 4.9-20.5 20.2-6 15.3 14.5z"/><path id="flake_90_" class="st1" d="M205.3 602.2l-20.2 6-15.3-14.5 4.9-20.5 20.2-6 15.3 14.5z"/><linearGradient id="flake_shadow_2_" gradientUnits="userSpaceOnUse" x1="169.8" y1="355.7" x2="210.2" y2="355.7" gradientTransform="translate(0 232)"><stop offset=".5" stop-color="#fff"/><stop offset=".5" stop-color="#000"/></linearGradient><path id="flake_shadow_90_" class="st3" d="M205.3 602.2l-20.2 6-15.3-14.5 4.9-20.5 20.2-6 15.3 14.5z"/><g><path id="flake_87_" class="st1" d="M205.3 542.2l-20.2 6-15.3-14.5 4.9-20.5 20.2-6 15.3 14.5z"/><linearGradient id="flake_shadow_3_" gradientUnits="userSpaceOnUse" x1="169.8" y1="295.7" x2="210.2" y2="295.7" gradientTransform="translate(0 232)"><stop offset=".5" stop-color="#fff"/><stop offset=".5" stop-color="#000"/></linearGradient><path id="flake_shadow_87_" class="st4" d="M205.3 542.2l-20.2 6-15.3-14.5 4.9-20.5 20.2-6 15.3 14.5z"/></g><g><path id="flake_84_" class="st1" d="M205.3 482.2l-20.2 6-15.3-14.5 4.9-20.5 20.2-6 15.3 14.5z"/><linearGradient id="flake_shadow_4_" gradientUnits="userSpaceOnUse" x1="169.8" y1="235.7" x2="210.2" y2="235.7" gradientTransform="translate(0 232)"><stop offset=".5" stop-color="#fff"/><stop offset=".5" stop-color="#000"/></linearGradient><path id="flake_shadow_84_" class="st5" d="M205.3 482.2l-20.2 6-15.3-14.5 4.9-20.5 20.2-6 15.3 14.5z"/></g><g><path id="flake_81_" class="st1" d="M205.3 422.2l-20.2 6-15.3-14.5 4.9-20.5 20.2-6 15.3 14.5z"/><linearGradient id="flake_shadow_5_" gradientUnits="userSpaceOnUse" x1="169.8" y1="175.7" x2="210.2" y2="175.7" gradientTransform="translate(0 232)"><stop offset=".5" stop-color="#fff"/><stop offset=".5" stop-color="#000"/></linearGradient><path id="flake_shadow_81_" class="st6" d="M205.3 422.2l-20.2 6-15.3-14.5 4.9-20.5 20.2-6 15.3 14.5z"/></g><g><path id="flake_78_" class="st1" d="M205.3 362.2l-20.2 6-15.3-14.5 4.9-20.5 20.2-6 15.3 14.5z"/><linearGradient id="flake_shadow_6_" gradientUnits="userSpaceOnUse" x1="169.8" y1="115.7" x2="210.2" y2="115.7" gradientTransform="translate(0 232)"><stop offset=".5" stop-color="#fff"/><stop offset=".5" stop-color="#000"/></linearGradient><path id="flake_shadow_78_" class="st7" d="M205.3 362.2l-20.2 6-15.3-14.5 4.9-20.5 20.2-6 15.3 14.5z"/></g><g><path id="flake_75_" class="st1" d="M139.3 627.2l-20.2 6-15.3-14.5 4.9-20.5 20.2-6 15.3 14.5z"/><linearGradient id="flake_shadow_7_" gradientUnits="userSpaceOnUse" x1="103.8" y1="380.7" x2="144.2" y2="380.7" gradientTransform="translate(0 232)"><stop offset=".5" stop-color="#fff"/><stop offset=".5" stop-color="#000"/></linearGradient><path id="flake_shadow_75_" class="st8" d="M139.3 627.2l-20.2 6-15.3-14.5 4.9-20.5 20.2-6 15.3 14.5z"/><path id="flake_72_" class="st1" d="M139.3 567.2l-20.2 6-15.3-14.5 4.9-20.5 20.2-6 15.3 14.5z"/><linearGradient id="flake_shadow_8_" gradientUnits="userSpaceOnUse" x1="103.8" y1="320.7" x2="144.2" y2="320.7" gradientTransform="translate(0 232)"><stop offset=".5" stop-color="#fff"/><stop offset=".5" stop-color="#000"/></linearGradient><path id="flake_shadow_72_" class="st9" d="M139.3 567.2l-20.2 6-15.3-14.5 4.9-20.5 20.2-6 15.3 14.5z"/><g><path id="flake_69_" class="st1" d="M139.3 507.2l-20.2 6-15.3-14.5 4.9-20.5 20.2-6 15.3 14.5z"/><linearGradient id="flake_shadow_9_" gradientUnits="userSpaceOnUse" x1="103.8" y1="260.7" x2="144.2" y2="260.7" gradientTransform="translate(0 232)"><stop offset=".5" stop-color="#fff"/><stop offset=".5" stop-color="#000"/></linearGradient><path id="flake_shadow_69_" class="st10" d="M139.3 507.2l-20.2 6-15.3-14.5 4.9-20.5 20.2-6 15.3 14.5z"/></g><g><path id="flake_66_" class="st1" d="M139.3 447.2l-20.2 6-15.3-14.5 4.9-20.5 20.2-6 15.3 14.5z"/><linearGradient id="flake_shadow_10_" gradientUnits="userSpaceOnUse" x1="103.8" y1="200.7" x2="144.2" y2="200.7" gradientTransform="translate(0 232)"><stop offset=".5" stop-color="#fff"/><stop offset=".5" stop-color="#000"/></linearGradient><path id="flake_shadow_66_" class="st11" d="M139.3 447.2l-20.2 6-15.3-14.5 4.9-20.5 20.2-6 15.3 14.5z"/></g><g><path id="flake_63_" class="st1" d="M139.3 387.2l-20.2 6-15.3-14.5 4.9-20.5 20.2-6 15.3 14.5z"/><linearGradient id="flake_shadow_11_" gradientUnits="userSpaceOnUse" x1="103.8" y1="140.7" x2="144.2" y2="140.7" gradientTransform="translate(0 232)"><stop offset=".5" stop-color="#fff"/><stop offset=".5" stop-color="#000"/></linearGradient><path id="flake_shadow_63_" class="st12" d="M139.3 387.2l-20.2 6-15.3-14.5 4.9-20.5 20.2-6 15.3 14.5z"/></g><g><path id="flake_60_" class="st1" d="M139.3 327.2l-20.2 6-15.3-14.5 4.9-20.5 20.2-6 15.3 14.5z"/><linearGradient id="flake_shadow_12_" gradientUnits="userSpaceOnUse" x1="103.8" y1="80.7" x2="144.2" y2="80.7" gradientTransform="translate(0 232)"><stop offset=".5" stop-color="#fff"/><stop offset=".5" stop-color="#000"/></linearGradient><path id="flake_shadow_60_" class="st13" d="M139.3 327.2l-20.2 6-15.3-14.5 4.9-20.5 20.2-6 15.3 14.5z"/></g></g></g><path id="tub" class="st14" d="M64.1 311L2.2 1h309.6l-62 310z"/><g id="cogs"><path class="st1" d="M169 177.3v-7.7l.5-5-12.5-3.2c-1-5.3-2.8-10.2-5.4-14.7l7.5-10.3-8.2-9.8-11.6 5.7c-4.1-3.2-8.7-5.8-13.7-7.6l-.9-12.8-12.5-2.2-5.4 12.2c-5.2.2-10.2 1.3-14.8 3l-9.3-9.6-11 6.4 3.9 13.5c-3.5 3.3-6.5 7.1-9 11.3l-14-1.5-4.4 12 12.1 8.2c-.2 1.9-.4 3.9-.4 5.9 0 2.7.2 5.3.6 7.9l-12 8.1 4.4 12 14.8-1.5c2.5 3.9 5.5 7.3 8.9 10.4l-4 14 11 6.4 10.2-10.5c4.4 1.4 9 2.3 13.8 2.4l5.8 13 12.5-2.2 1-14c4.6-1.8 8.9-4.2 12.7-7.3l12.2 5.9 8.2-9.8-7.9-10.8c2.5-4.4 3.9-9.3 4.9-14.4l12-3.4zm-60 30c-20.1 0-36.4-16.3-36.4-36.4s16.3-36.4 36.4-36.4 36.4 16.3 36.4 36.4-16.3 36.4-36.4 36.4z"/><path class="st1" d="M265 138.2v-6.8l1.1-4.4-10.6-2.8c-.9-4.6-2.3-9-4.6-12.9l6.7-9-7.1-8.6-10.2 5c-3.6-2.8-7.6-5.1-12-6.7l-.8-11.3-11-1.9-4.8 10.7c-4.6.2-8.9 1.1-13 2.6l-8.2-8.5-9.7 5.6 3.4 11.8c-3.1 2.9-5.7 6.2-7.9 9.9l-12.3-1.3-3.8 10.5 10.6 7.2c-.2 1.7-.3 3.4-.3 5.2 0 2.4.2 4.7.6 6.9l-10.6 7.1 3.8 10.5 13-1.4c2.2 3.4 4.8 6.4 7.8 9.1l-3.5 12.3 9.7 5.6 8.9-9.2c3.8 1.3 7.9 2 12.1 2.1l5.1 11.4 11-1.9.9-12.3c4.1-1.6 7.8-3.7 11.2-6.4l10.7 5.2 7.2-8.6-6.9-9.5c2.2-3.9 2.7-8.1 3.6-12.7l9.9-2.5zm-51.4 26.4c-17.7 0-32-14.3-32-32s14.3-32 32-32 32 14.3 32 32-14.3 32-32 32z"/></g><linearGradient id="tub_shadow_1_" gradientUnits="userSpaceOnUse" x1="2.2" y1="-76" x2="311.8" y2="-76" gradientTransform="translate(0 232)"><stop offset=".5" stop-color="#fff"/><stop offset=".5" stop-color="#000"/></linearGradient><path id="tub_shadow" class="st15" d="M64.1 311L2.2 1h309.6l-62 310z"/></g></svg>