<svg version="1.1" id="Layer_1" xmlns="http://www.w3.org/2000/svg" x="0" y="0" viewBox="0 0 1000 1000" xml:space="preserve"><style type="text/css">.st0{opacity:.1}.st1{display:none;fill:#87766c}.st2{fill:#ebbd63}.st3{fill:url(#flake_shadow_1_)}.st3,.st4{opacity:.1;enable-background:new}.st4{fill:url(#flake_shadow_2_)}.st5{fill:url(#flake_shadow_3_)}.st5,.st6{opacity:.1;enable-background:new}.st6{fill:url(#flake_shadow_4_)}.st7{fill:url(#flake_shadow_5_)}.st7,.st8{opacity:.1;enable-background:new}.st8{fill:url(#flake_shadow_6_)}.st9{fill:url(#flake_shadow_7_)}.st9,.st10{opacity:.1;enable-background:new}.st10{fill:url(#flake_shadow_8_)}.st11{fill:url(#flake_shadow_9_)}.st11,.st12{opacity:.1;enable-background:new}.st12{fill:url(#flake_shadow_10_)}.st13{fill:url(#flake_shadow_11_)}.st13,.st14{opacity:.1;enable-background:new}.st14{fill:url(#flake_shadow_12_)}.st15{fill:#eb6361}.st16{opacity:.1;fill:url(#tub_shadow_1_);enable-background:new}</style><g id="_x32__-_Grinder"><path id="bg_3_" class="st1" d="M0 0h1000v1000H0z"/><g id="falling_grain"><path id="flake_93_" class="st2" d="M548.3 761.2l-20.2 6-15.3-14.5 4.9-20.5 20.2-6 15.3 14.5z"/><linearGradient id="flake_shadow_1_" gradientUnits="userSpaceOnUse" x1="512.795" y1="253.314" x2="553.205" y2="253.314" gradientTransform="matrix(1 0 0 -1 0 1000)"><stop offset=".5" stop-color="#FFF"/><stop offset=".5" stop-color="#000"/></linearGradient><path id="flake_shadow_93_" class="st3" d="M548.3 761.2l-20.2 6-15.3-14.5 4.9-20.5 20.2-6 15.3 14.5z"/><path id="flake_90_" class="st2" d="M548.3 701.2l-20.2 6-15.3-14.5 4.9-20.5 20.2-6 15.3 14.5z"/><linearGradient id="flake_shadow_2_" gradientUnits="userSpaceOnUse" x1="512.795" y1="313.313" x2="553.205" y2="313.313" gradientTransform="matrix(1 0 0 -1 0 1000)"><stop offset=".5" stop-color="#FFF"/><stop offset=".5" stop-color="#000"/></linearGradient><path id="flake_shadow_90_" class="st4" d="M548.3 701.2l-20.2 6-15.3-14.5 4.9-20.5 20.2-6 15.3 14.5z"/><g><path id="flake_87_" class="st2" d="M548.3 641.2l-20.2 6-15.3-14.5 4.9-20.5 20.2-6 15.3 14.5z"/><linearGradient id="flake_shadow_3_" gradientUnits="userSpaceOnUse" x1="512.795" y1="373.313" x2="553.205" y2="373.313" gradientTransform="matrix(1 0 0 -1 0 1000)"><stop offset=".5" stop-color="#FFF"/><stop offset=".5" stop-color="#000"/></linearGradient><path id="flake_shadow_87_" class="st5" d="M548.3 641.2l-20.2 6-15.3-14.5 4.9-20.5 20.2-6 15.3 14.5z"/></g><g><path id="flake_84_" class="st2" d="M548.3 581.2l-20.2 6-15.3-14.5 4.9-20.5 20.2-6 15.3 14.5z"/><linearGradient id="flake_shadow_4_" gradientUnits="userSpaceOnUse" x1="512.795" y1="433.313" x2="553.205" y2="433.313" gradientTransform="matrix(1 0 0 -1 0 1000)"><stop offset=".5" stop-color="#FFF"/><stop offset=".5" stop-color="#000"/></linearGradient><path id="flake_shadow_84_" class="st6" d="M548.3 581.2l-20.2 6-15.3-14.5 4.9-20.5 20.2-6 15.3 14.5z"/></g><g><path id="flake_81_" class="st2" d="M548.3 521.2l-20.2 6-15.3-14.5 4.9-20.5 20.2-6 15.3 14.5z"/><linearGradient id="flake_shadow_5_" gradientUnits="userSpaceOnUse" x1="512.795" y1="493.313" x2="553.205" y2="493.313" gradientTransform="matrix(1 0 0 -1 0 1000)"><stop offset=".5" stop-color="#FFF"/><stop offset=".5" stop-color="#000"/></linearGradient><path id="flake_shadow_81_" class="st7" d="M548.3 521.2l-20.2 6-15.3-14.5 4.9-20.5 20.2-6 15.3 14.5z"/></g><g><path id="flake_78_" class="st2" d="M548.3 461.2l-20.2 6-15.3-14.5 4.9-20.5 20.2-6 15.3 14.5z"/><linearGradient id="flake_shadow_6_" gradientUnits="userSpaceOnUse" x1="512.795" y1="553.313" x2="553.205" y2="553.313" gradientTransform="matrix(1 0 0 -1 0 1000)"><stop offset=".5" stop-color="#FFF"/><stop offset=".5" stop-color="#000"/></linearGradient><path id="flake_shadow_78_" class="st8" d="M548.3 461.2l-20.2 6-15.3-14.5 4.9-20.5 20.2-6 15.3 14.5z"/></g><g><path id="flake_75_" class="st2" d="M482.3 726.2l-20.2 6-15.3-14.5 4.9-20.5 20.2-6 15.3 14.5z"/><linearGradient id="flake_shadow_7_" gradientUnits="userSpaceOnUse" x1="446.794" y1="288.313" x2="487.206" y2="288.313" gradientTransform="matrix(1 0 0 -1 0 1000)"><stop offset=".5" stop-color="#FFF"/><stop offset=".5" stop-color="#000"/></linearGradient><path id="flake_shadow_75_" class="st9" d="M482.3 726.2l-20.2 6-15.3-14.5 4.9-20.5 20.2-6 15.3 14.5z"/><path id="flake_72_" class="st2" d="M482.3 666.2l-20.2 6-15.3-14.5 4.9-20.5 20.2-6 15.3 14.5z"/><linearGradient id="flake_shadow_8_" gradientUnits="userSpaceOnUse" x1="446.794" y1="348.313" x2="487.206" y2="348.313" gradientTransform="matrix(1 0 0 -1 0 1000)"><stop offset=".5" stop-color="#FFF"/><stop offset=".5" stop-color="#000"/></linearGradient><path id="flake_shadow_72_" class="st10" d="M482.3 666.2l-20.2 6-15.3-14.5 4.9-20.5 20.2-6 15.3 14.5z"/><g><path id="flake_69_" class="st2" d="M482.3 606.2l-20.2 6-15.3-14.5 4.9-20.5 20.2-6 15.3 14.5z"/><linearGradient id="flake_shadow_9_" gradientUnits="userSpaceOnUse" x1="446.794" y1="408.313" x2="487.206" y2="408.313" gradientTransform="matrix(1 0 0 -1 0 1000)"><stop offset=".5" stop-color="#FFF"/><stop offset=".5" stop-color="#000"/></linearGradient><path id="flake_shadow_69_" class="st11" d="M482.3 606.2l-20.2 6-15.3-14.5 4.9-20.5 20.2-6 15.3 14.5z"/></g><g><path id="flake_66_" class="st2" d="M482.3 546.2l-20.2 6-15.3-14.5 4.9-20.5 20.2-6 15.3 14.5z"/><linearGradient id="flake_shadow_10_" gradientUnits="userSpaceOnUse" x1="446.794" y1="468.313" x2="487.206" y2="468.313" gradientTransform="matrix(1 0 0 -1 0 1000)"><stop offset=".5" stop-color="#FFF"/><stop offset=".5" stop-color="#000"/></linearGradient><path id="flake_shadow_66_" class="st12" d="M482.3 546.2l-20.2 6-15.3-14.5 4.9-20.5 20.2-6 15.3 14.5z"/></g><g><path id="flake_63_" class="st2" d="M482.3 486.2l-20.2 6-15.3-14.5 4.9-20.5 20.2-6 15.3 14.5z"/><linearGradient id="flake_shadow_11_" gradientUnits="userSpaceOnUse" x1="446.794" y1="528.313" x2="487.206" y2="528.313" gradientTransform="matrix(1 0 0 -1 0 1000)"><stop offset=".5" stop-color="#FFF"/><stop offset=".5" stop-color="#000"/></linearGradient><path id="flake_shadow_63_" class="st13" d="M482.3 486.2l-20.2 6-15.3-14.5 4.9-20.5 20.2-6 15.3 14.5z"/></g><g><path id="flake_60_" class="st2" d="M482.3 426.2l-20.2 6-15.3-14.5 4.9-20.5 20.2-6 15.3 14.5z"/><linearGradient id="flake_shadow_12_" gradientUnits="userSpaceOnUse" x1="446.794" y1="588.313" x2="487.206" y2="588.313" gradientTransform="matrix(1 0 0 -1 0 1000)"><stop offset=".5" stop-color="#FFF"/><stop offset=".5" stop-color="#000"/></linearGradient><path id="flake_shadow_60_" class="st14" d="M482.3 426.2l-20.2 6-15.3-14.5 4.9-20.5 20.2-6 15.3 14.5z"/></g></g></g><path id="tub" class="st15" d="M407.1 410l-61.9-310h309.6l-62 310z"/><g id="cogs"><path class="st2" d="M512 276.3v-7.7l.5-5-12.5-3.2c-1-5.3-2.8-10.2-5.4-14.7l7.5-10.3-8.2-9.8-11.6 5.7c-4.1-3.2-8.7-5.8-13.7-7.6l-.9-12.8-12.5-2.2-5.4 12.2c-5.2.2-10.2 1.3-14.8 3l-9.3-9.6-11 6.4 3.9 13.5c-3.5 3.3-6.5 7.1-9 11.3l-14-1.5-4.4 12 12.1 8.2c-.2 1.9-.4 3.9-.4 5.9 0 2.7.2 5.3.6 7.9l-12 8.1 4.4 12 14.8-1.5c2.5 3.9 5.5 7.3 8.9 10.4l-4 14 11 6.4 10.2-10.5c4.4 1.4 9 2.3 13.8 2.4l5.8 13 12.5-2.2 1-14c4.6-1.8 8.9-4.2 12.7-7.3l12.2 5.9 8.2-9.8-7.9-10.8c2.5-4.4 3.9-9.3 4.9-14.4l12-3.4zm-60 30c-20.1 0-36.4-16.3-36.4-36.4 0-20.1 16.3-36.4 36.4-36.4 20.1 0 36.4 16.3 36.4 36.4 0 20.1-16.3 36.4-36.4 36.4z"/><path class="st2" d="M608 237.2v-6.8l1.1-4.4-10.6-2.8c-.9-4.6-2.3-9-4.6-12.9l6.7-9-7.1-8.6-10.2 5c-3.6-2.8-7.6-5.1-12-6.7l-.8-11.3-11-1.9-4.8 10.7c-4.6.2-8.9 1.1-13 2.6l-8.2-8.5-9.7 5.6 3.4 11.8c-3.1 2.9-5.7 6.2-7.9 9.9l-12.3-1.3-3.8 10.5 10.6 7.2c-.2 1.7-.3 3.4-.3 5.2 0 2.4.2 4.7.6 6.9l-10.6 7.1 3.8 10.5 13-1.4c2.2 3.4 4.8 6.4 7.8 9.1l-3.5 12.3 9.7 5.6 8.9-9.2c3.8 1.3 7.9 2 12.1 2.1l5.1 11.4 11-1.9.9-12.3c4.1-1.6 7.8-3.7 11.2-6.4l10.7 5.2 7.2-8.6-6.9-9.5c2.2-3.9 2.7-8.1 3.6-12.7l9.9-2.5zm-51.4 26.4c-17.7 0-32-14.3-32-32s14.3-32 32-32 32 14.3 32 32-14.3 32-32 32z"/></g><linearGradient id="tub_shadow_1_" gradientUnits="userSpaceOnUse" x1="345.25" y1="745" x2="654.75" y2="745" gradientTransform="matrix(1 0 0 -1 0 1000)"><stop offset=".5" stop-color="#FFF"/><stop offset=".5" stop-color="#000"/></linearGradient><path id="tub_shadow" class="st16" d="M407.1 410l-61.9-310h309.6l-62 310z"/></g></svg>