<svg version="1.1" xmlns="http://www.w3.org/2000/svg" x="0" y="0" width="1000" height="1000" viewBox="0 0 1000 1000" xml:space="preserve"><g id="_x36__-_Glass"><path id="bg_5_" fill="#6C8784" d="M0 0h1000v1000H0z"/><g id="Glass"><path d="M601.667 769.348c-32.667-8.667-58-9.334-72.667-25.334s-15.334-60 5.333-98.666 51.07-101.823 57.334-116.667c19.832-47.007 22.666-82.67 22.666-121.337s-26-176-26-176 5.334-9.335-17.333-15.335-71-5.334-71-5.334-48.333-.666-71 5.334-17.333 15.335-17.333 15.335-26 137.333-26 176 2.834 74.33 22.666 121.338c6.263 14.845 36.667 78 57.334 116.668s20 82.666 5.333 98.666-40 16.667-72.667 25.334-4 14-4 14c53.333 6 105.667 6 105.667 6s52.334 0 105.667-6c0 0 28.667-5.333-4-14z" id="glass" opacity=".2"/><path opacity=".7" fill="#EBBD63" d="M576.707 251H423.29c-6.853 37.623-22.623 127.37-22.623 156.343 0 40.9 1.845 73.655 21.486 115.507 56.887 121.214 104.46 123.232 155.693.005 21.944-52.782 21.486-74.603 21.486-115.5 0-28.98-15.775-118.746-22.625-156.355z"/><linearGradient id="glass_shadow_1_" gradientUnits="userSpaceOnUse" x1="382.699" y1="500" x2="617.301" y2="500"><stop offset=".5" stop-color="#FFF"/><stop offset=".5" stop-color="#000"/></linearGradient><path id="glass_shadow" opacity=".2" fill="url(#glass_shadow_1_)" d="M601.667 769.348c-32.667-8.667-58-9.334-72.667-25.334s-15.334-60 5.333-98.666 51.07-101.823 57.334-116.667c19.832-47.007 22.666-82.67 22.666-121.337s-26-176-26-176 5.334-9.335-17.333-15.335-71-5.334-71-5.334-48.333-.666-71 5.334-17.333 15.335-17.333 15.335-26 137.333-26 176 2.834 74.33 22.666 121.338c6.263 14.845 36.667 78 57.334 116.668s20 82.666 5.333 98.666-40 16.667-72.667 25.334-4 14-4 14c53.333 6 105.667 6 105.667 6s52.334 0 105.667-6c0 0 28.667-5.333-4-14z"/></g></g></svg>