<svg version="1.1" xmlns="http://www.w3.org/2000/svg" x="0" y="0" width="1000" height="1000" viewBox="0 0 1000 1000" xml:space="preserve"><g id="_x35__-_Grain_1_"><path id="bg_2_" fill="#EB6361" d="M0 0h1000v1000H0z"/><g id="grain_group_1_"><g fill="#EBBD63" id="grain_group"><path d="M592 169h-19v244.166l19-8.34zM601.802 674.93l-88.412 38.806c-5.03 2.205-9.45 8.443-9.873 13.934L500 773.63l-3.517-45.96c-.422-5.49-4.842-11.73-9.873-13.935l-88.41-38.807c-5.034-2.21-8.775.447-8.355 5.934l7.373 96.365c.422 5.49 4.842 11.73 9.874 13.936l88.41 38.807c1.68.738 3.212.922 4.498.65 1.286.27 2.817.088 4.5-.65l88.41-38.807c5.03-2.207 9.45-8.445 9.872-13.936l7.373-96.365c.42-5.486-3.32-8.144-8.353-5.933z"/><path d="M601.802 545.85L513.39 584.66c-5.03 2.205-9.45 8.443-9.873 13.934L500 644.552l-3.517-45.96c-.422-5.49-4.842-11.73-9.873-13.935L398.2 545.85c-5.034-2.21-8.775.447-8.355 5.934l7.373 96.365c.422 5.49 4.842 11.728 9.874 13.935l88.41 38.807c1.68.738 3.212.922 4.498.65 1.286.27 2.817.088 4.5-.65l88.41-38.807c5.03-2.207 9.45-8.445 9.872-13.936l7.373-96.366c.42-5.486-3.32-8.144-8.353-5.933z"/><path d="M397.218 519.072c.422 5.49 4.842 11.73 9.874 13.936l88.41 38.806c1.68.738 3.212.922 4.498.65 1.286.27 2.817.088 4.5-.65l88.41-38.806c5.03-2.207 9.45-8.446 9.872-13.936l7.373-96.365c.42-5.486-3.32-8.145-8.354-5.935l-88.41 38.807c-5.032 2.205-9.452 8.442-9.874 13.933L500 515.475l-3.517-45.962c-.422-5.49-4.842-11.728-9.873-13.934L398.2 416.77c-5.034-2.21-8.775.448-8.355 5.935l7.373 96.365z"/><path d="M496.702 322.842l-41.645 69.407c-2.37 3.953-2.373 10.356-.005 14.303l15.307 25.512 22.28 9.78c2.63 1.153 5.11 2.78 7.36 4.734 2.25-1.957 4.73-3.583 7.365-4.738l24.838-10.902 14.678-24.463c2.372-3.955 2.373-10.357.005-14.303l-41.602-69.34c-2.368-3.947-6.21-3.943-8.58.008zM552 169h-19v170.368l19 31.668zM511 307.583V169h-19v138.36c3-1.605 6.015-2.484 9.3-2.484 3.44 0 6.7.954 9.7 2.707zM430 169h-19v236.876l19 8.34zM471 169h-19v199.696l19-31.666z"/></g><g id="grain_group_shadow" opacity=".1"><linearGradient id="SVGID_1_" gradientUnits="userSpaceOnUse" x1="573" y1="291.083" x2="592" y2="291.083"><stop offset=".5" stop-color="#FFF"/><stop offset=".5" stop-color="#000"/></linearGradient><path fill="url(#SVGID_1_)" d="M592 169h-19v244.166l19-8.34z"/><linearGradient id="SVGID_2_" gradientUnits="userSpaceOnUse" x1="389.813" y1="752.444" x2="610.188" y2="752.444"><stop offset=".5" stop-color="#FFF"/><stop offset=".5" stop-color="#000"/></linearGradient><path fill="url(#SVGID_2_)" d="M601.802 674.93l-88.412 38.806c-5.03 2.205-9.45 8.443-9.873 13.934L500 773.63l-3.517-45.96c-.422-5.49-4.842-11.73-9.873-13.935l-88.41-38.807c-5.034-2.21-8.775.447-8.355 5.934l7.373 96.365c.422 5.49 4.842 11.73 9.874 13.936l88.41 38.807c1.68.738 3.212.922 4.498.65 1.286.27 2.817.088 4.5-.65l88.41-38.807c5.03-2.207 9.45-8.445 9.872-13.936l7.373-96.365c.42-5.486-3.32-8.144-8.353-5.933z"/><linearGradient id="SVGID_3_" gradientUnits="userSpaceOnUse" x1="389.813" y1="623.366" x2="610.188" y2="623.366"><stop offset=".5" stop-color="#FFF"/><stop offset=".5" stop-color="#000"/></linearGradient><path fill="url(#SVGID_3_)" d="M601.802 545.85L513.39 584.66c-5.03 2.205-9.45 8.443-9.873 13.934L500 644.552l-3.517-45.96c-.422-5.49-4.842-11.73-9.873-13.935L398.2 545.85c-5.034-2.21-8.775.447-8.355 5.934l7.373 96.365c.422 5.49 4.842 11.728 9.874 13.935l88.41 38.807c1.68.738 3.212.922 4.498.65 1.286.27 2.817.088 4.5-.65l88.41-38.807c5.03-2.207 9.45-8.445 9.872-13.936l7.373-96.366c.42-5.486-3.32-8.144-8.353-5.933z"/><linearGradient id="SVGID_4_" gradientUnits="userSpaceOnUse" x1="389.813" y1="494.288" x2="610.188" y2="494.288"><stop offset=".5" stop-color="#FFF"/><stop offset=".5" stop-color="#000"/></linearGradient><path fill="url(#SVGID_4_)" d="M397.218 519.072c.422 5.49 4.842 11.73 9.874 13.936l88.41 38.806c1.68.738 3.212.922 4.498.65 1.286.27 2.817.088 4.5-.65l88.41-38.806c5.03-2.207 9.45-8.446 9.872-13.936l7.373-96.365c.42-5.486-3.32-8.145-8.354-5.935l-88.41 38.807c-5.032 2.205-9.452 8.442-9.874 13.933L500 515.475l-3.517-45.962c-.422-5.49-4.842-11.728-9.873-13.934L398.2 416.77c-5.034-2.21-8.775.448-8.355 5.935l7.373 96.365z"/><linearGradient id="SVGID_5_" gradientUnits="userSpaceOnUse" x1="453.278" y1="383.228" x2="548.661" y2="383.228"><stop offset=".5" stop-color="#FFF"/><stop offset=".5" stop-color="#000"/></linearGradient><path fill="url(#SVGID_5_)" d="M496.702 322.842l-41.645 69.407c-2.37 3.953-2.373 10.356-.005 14.303l15.307 25.512 22.28 9.78c2.63 1.153 5.11 2.78 7.36 4.734 2.25-1.957 4.73-3.583 7.365-4.738l24.838-10.902 14.678-24.463c2.372-3.955 2.373-10.357.005-14.303l-41.602-69.34c-2.368-3.947-6.21-3.943-8.58.008z"/><linearGradient id="SVGID_6_" gradientUnits="userSpaceOnUse" x1="533" y1="270.018" x2="552" y2="270.018"><stop offset=".5" stop-color="#FFF"/><stop offset=".5" stop-color="#000"/></linearGradient><path fill="url(#SVGID_6_)" d="M552 169h-19v170.368l19 31.668z"/><linearGradient id="SVGID_7_" gradientUnits="userSpaceOnUse" x1="492" y1="238.291" x2="511" y2="238.291"><stop offset=".5" stop-color="#FFF"/><stop offset=".5" stop-color="#000"/></linearGradient><path fill="url(#SVGID_7_)" d="M511 307.583V169h-19v138.36c3-1.605 6.015-2.484 9.3-2.484 3.44 0 6.7.954 9.7 2.707z"/><linearGradient id="SVGID_8_" gradientUnits="userSpaceOnUse" x1="411" y1="291.607" x2="430" y2="291.607"><stop offset=".5" stop-color="#FFF"/><stop offset=".5" stop-color="#000"/></linearGradient><path fill="url(#SVGID_8_)" d="M430 169h-19v236.876l19 8.34z"/><linearGradient id="SVGID_9_" gradientUnits="userSpaceOnUse" x1="452" y1="268.848" x2="471" y2="268.848"><stop offset=".5" stop-color="#FFF"/><stop offset=".5" stop-color="#000"/></linearGradient><path fill="url(#SVGID_9_)" d="M471 169h-19v199.696l19-31.666z"/></g></g></g></svg>