<svg version="1.1" xmlns="http://www.w3.org/2000/svg" x="0" y="0" width="1000" height="1000" viewBox="0 0 1000 1000" xml:space="preserve"><g id="_x31__-_Boiler"><path id="bg_4_" fill="#45362E" d="M0 0h1000v1000H0z"/><g id="jar_group"><path id="jar" fill="#EBBD63" d="M573.933 353.745l-8.655-59.288c9.714-.278 16.723-2.04 16.723-3.668v-24.08c0-1.773-7.953-1.71-19-1.71h-95c-11.045 0-21-.063-21 1.71v24.08c0 1.683 8.778 3.51 19.095 3.69l-8.654 59.277C377.664 355.982 315 372.467 315 393v320c0 22.09 72.885 41 161.25 41h80C644.615 754 715 735.09 715 713V393c0-20.575-61.24-37.084-141.067-39.255z"/><linearGradient id="jar_shadow_1_" gradientUnits="userSpaceOnUse" x1="315" y1="509.5" x2="715" y2="509.5"><stop offset=".5" stop-color="#FFF"/><stop offset=".5" stop-color="#fefefe"/><stop offset=".5" stop-color="#c3c3c3"/><stop offset=".5" stop-color="#8f8f8f"/><stop offset=".5" stop-color="#636363"/><stop offset=".5" stop-color="#3f3f3f"/><stop offset=".5" stop-color="#242424"/><stop offset=".5" stop-color="#101010"/><stop offset=".5" stop-color="#040404"/><stop offset=".5" stop-color="#000"/></linearGradient><path id="jar_shadow" opacity=".1" fill="url(#jar_shadow_1_)" d="M573.933 353.745l-8.655-59.288c9.714-.278 16.723-2.04 16.723-3.668v-24.08c0-1.773-7.953-1.71-19-1.71h-95c-11.045 0-21-.063-21 1.71v24.08c0 1.683 8.778 3.51 19.095 3.69l-8.654 59.277C377.664 355.982 315 372.467 315 393v320c0 22.09 72.885 41 161.25 41h80C644.615 754 715 735.09 715 713V393c0-20.575-61.24-37.084-141.067-39.255z"/></g><g id="puff_group"><path id="puff_1_" fill="#FFF" d="M567.155 119.356c-4.995-16.19-22.167-25.264-38.357-20.27-.295.092-.583.196-.874.295 4.248-4.972 5.95-11.934 3.88-18.645-3.216-10.418-14.267-16.258-24.685-13.043-10.418 3.214-16.258 14.265-13.044 24.684.007.023.018.045.025.068a38.87 38.87 0 0 0-7.438 1.517 39.11 39.11 0 0 0-5.2 2.03c-7.7-6.368-18.352-8.86-28.613-5.694-16.19 4.995-25.264 22.167-20.27 38.356 3.46 11.216 12.768 19.01 23.542 21.084-2.262 4.42-2.877 9.687-1.298 14.806 3.214 10.417 14.266 16.257 24.683 13.042 4.867-1.5 8.715-4.725 11.127-8.783 3.032.597 6.157.833 9.314.677.726 7.955 7.408 14.188 15.552 14.188 8.63 0 15.625-6.996 15.625-15.625 0-4.322-1.755-8.233-4.59-11.062.015-.018.033-.034.05-.052a30.537 30.537 0 0 0 20.3.784c16.19-4.993 25.264-22.166 20.27-38.354z"/><linearGradient id="puff_shadow_5_" gradientUnits="userSpaceOnUse" x1="431.209" y1="125.238" x2="568.526" y2="125.238"><stop offset=".5" stop-color="#FFF"/><stop offset=".5" stop-color="#fefefe"/><stop offset=".5" stop-color="#c3c3c3"/><stop offset=".5" stop-color="#8f8f8f"/><stop offset=".5" stop-color="#636363"/><stop offset=".5" stop-color="#3f3f3f"/><stop offset=".5" stop-color="#242424"/><stop offset=".5" stop-color="#101010"/><stop offset=".5" stop-color="#040404"/><stop offset=".5" stop-color="#000"/></linearGradient><path id="puff_shadow_1_" opacity=".1" fill="url(#puff_shadow_5_)" d="M567.155 119.356c-4.995-16.19-22.167-25.264-38.357-20.27-.295.092-.583.196-.874.295 4.248-4.972 5.95-11.934 3.88-18.645-3.216-10.418-14.267-16.258-24.685-13.043-10.418 3.214-16.258 14.265-13.044 24.684.007.023.018.045.025.068a38.87 38.87 0 0 0-7.438 1.517 39.11 39.11 0 0 0-5.2 2.03c-7.7-6.368-18.352-8.86-28.613-5.694-16.19 4.995-25.264 22.167-20.27 38.356 3.46 11.216 12.768 19.01 23.542 21.084-2.262 4.42-2.877 9.687-1.298 14.806 3.214 10.417 14.266 16.257 24.683 13.042 4.867-1.5 8.715-4.725 11.127-8.783 3.032.597 6.157.833 9.314.677.726 7.955 7.408 14.188 15.552 14.188 8.63 0 15.625-6.996 15.625-15.625 0-4.322-1.755-8.233-4.59-11.062.015-.018.033-.034.05-.052a30.537 30.537 0 0 0 20.3.784c16.19-4.993 25.264-22.166 20.27-38.354z"/></g></g></svg>