<svg version="1.1" xmlns="http://www.w3.org/2000/svg" x="0" y="0" width="1000" height="1000" viewBox="0 0 1000 1000" xml:space="preserve"><g id="_x32__-_Grinder"><path id="bg_3_" fill="#87766C" d="M0 0h1000v1000H0z"/><g id="falling_grain"><path id="flake_93_" fill="#EBBD63" d="M548.275 761.2l-20.205 5.972-15.275-14.512 4.93-20.485 20.205-5.974 15.275 14.514z"/><linearGradient id="flake_shadow_1_" gradientUnits="userSpaceOnUse" x1="512.795" y1="746.687" x2="553.205" y2="746.687"><stop offset=".5" stop-color="#FFF"/><stop offset=".5" stop-color="#000"/></linearGradient><path id="flake_shadow_93_" opacity=".1" fill="url(#flake_shadow_1_)" d="M548.275 761.2l-20.205 5.972-15.275-14.512 4.93-20.485 20.205-5.974 15.275 14.514z"/><path id="flake_90_" fill="#EBBD63" d="M548.275 701.2l-20.205 5.972-15.275-14.512 4.93-20.485 20.205-5.974 15.275 14.514z"/><linearGradient id="flake_shadow_2_" gradientUnits="userSpaceOnUse" x1="512.795" y1="686.687" x2="553.205" y2="686.687"><stop offset=".5" stop-color="#FFF"/><stop offset=".5" stop-color="#000"/></linearGradient><path id="flake_shadow_90_" opacity=".1" fill="url(#flake_shadow_2_)" d="M548.275 701.2l-20.205 5.972-15.275-14.512 4.93-20.485 20.205-5.974 15.275 14.514z"/><g><path id="flake_87_" fill="#EBBD63" d="M548.275 641.2l-20.205 5.972-15.275-14.512 4.93-20.485 20.205-5.974 15.275 14.514z"/><linearGradient id="flake_shadow_3_" gradientUnits="userSpaceOnUse" x1="512.795" y1="626.687" x2="553.205" y2="626.687"><stop offset=".5" stop-color="#FFF"/><stop offset=".5" stop-color="#000"/></linearGradient><path id="flake_shadow_87_" opacity=".1" fill="url(#flake_shadow_3_)" d="M548.275 641.2l-20.205 5.972-15.275-14.512 4.93-20.485 20.205-5.974 15.275 14.514z"/></g><g><path id="flake_84_" fill="#EBBD63" d="M548.275 581.2l-20.205 5.972-15.275-14.512 4.93-20.485 20.205-5.974 15.275 14.514z"/><linearGradient id="flake_shadow_4_" gradientUnits="userSpaceOnUse" x1="512.795" y1="566.687" x2="553.205" y2="566.687"><stop offset=".5" stop-color="#FFF"/><stop offset=".5" stop-color="#000"/></linearGradient><path id="flake_shadow_84_" opacity=".1" fill="url(#flake_shadow_4_)" d="M548.275 581.2l-20.205 5.972-15.275-14.512 4.93-20.485 20.205-5.974 15.275 14.514z"/></g><g><path id="flake_81_" fill="#EBBD63" d="M548.275 521.2l-20.205 5.972-15.275-14.512 4.93-20.485 20.205-5.974 15.275 14.514z"/><linearGradient id="flake_shadow_5_" gradientUnits="userSpaceOnUse" x1="512.795" y1="506.687" x2="553.205" y2="506.687"><stop offset=".5" stop-color="#FFF"/><stop offset=".5" stop-color="#000"/></linearGradient><path id="flake_shadow_81_" opacity=".1" fill="url(#flake_shadow_5_)" d="M548.275 521.2l-20.205 5.972-15.275-14.512 4.93-20.485 20.205-5.974 15.275 14.514z"/></g><g><path id="flake_78_" fill="#EBBD63" d="M548.275 461.2l-20.205 5.972-15.275-14.512 4.93-20.485 20.205-5.974 15.275 14.514z"/><linearGradient id="flake_shadow_6_" gradientUnits="userSpaceOnUse" x1="512.795" y1="446.687" x2="553.205" y2="446.687"><stop offset=".5" stop-color="#FFF"/><stop offset=".5" stop-color="#000"/></linearGradient><path id="flake_shadow_78_" opacity=".1" fill="url(#flake_shadow_6_)" d="M548.275 461.2l-20.205 5.972-15.275-14.512 4.93-20.485 20.205-5.974 15.275 14.514z"/></g><g><path id="flake_75_" fill="#EBBD63" d="M482.276 726.2l-20.206 5.972-15.276-14.512 4.93-20.485 20.206-5.974 15.276 14.514z"/><linearGradient id="flake_shadow_7_" gradientUnits="userSpaceOnUse" x1="446.794" y1="711.687" x2="487.206" y2="711.687"><stop offset=".5" stop-color="#FFF"/><stop offset=".5" stop-color="#000"/></linearGradient><path id="flake_shadow_75_" opacity=".1" fill="url(#flake_shadow_7_)" d="M482.276 726.2l-20.206 5.972-15.276-14.512 4.93-20.485 20.206-5.974 15.276 14.514z"/><path id="flake_72_" fill="#EBBD63" d="M482.276 666.2l-20.206 5.972-15.276-14.512 4.93-20.485 20.206-5.974 15.276 14.514z"/><linearGradient id="flake_shadow_8_" gradientUnits="userSpaceOnUse" x1="446.794" y1="651.687" x2="487.206" y2="651.687"><stop offset=".5" stop-color="#FFF"/><stop offset=".5" stop-color="#000"/></linearGradient><path id="flake_shadow_72_" opacity=".1" fill="url(#flake_shadow_8_)" d="M482.276 666.2l-20.206 5.972-15.276-14.512 4.93-20.485 20.206-5.974 15.276 14.514z"/><g><path id="flake_69_" fill="#EBBD63" d="M482.276 606.2l-20.206 5.972-15.276-14.512 4.93-20.485 20.206-5.974 15.276 14.514z"/><linearGradient id="flake_shadow_9_" gradientUnits="userSpaceOnUse" x1="446.794" y1="591.687" x2="487.206" y2="591.687"><stop offset=".5" stop-color="#FFF"/><stop offset=".5" stop-color="#000"/></linearGradient><path id="flake_shadow_69_" opacity=".1" fill="url(#flake_shadow_9_)" d="M482.276 606.2l-20.206 5.972-15.276-14.512 4.93-20.485 20.206-5.974 15.276 14.514z"/></g><g><path id="flake_66_" fill="#EBBD63" d="M482.276 546.2l-20.206 5.972-15.276-14.512 4.93-20.485 20.206-5.974 15.276 14.514z"/><linearGradient id="flake_shadow_10_" gradientUnits="userSpaceOnUse" x1="446.794" y1="531.687" x2="487.206" y2="531.687"><stop offset=".5" stop-color="#FFF"/><stop offset=".5" stop-color="#000"/></linearGradient><path id="flake_shadow_66_" opacity=".1" fill="url(#flake_shadow_10_)" d="M482.276 546.2l-20.206 5.972-15.276-14.512 4.93-20.485 20.206-5.974 15.276 14.514z"/></g><g><path id="flake_63_" fill="#EBBD63" d="M482.276 486.2l-20.206 5.972-15.276-14.512 4.93-20.485 20.206-5.974 15.276 14.514z"/><linearGradient id="flake_shadow_11_" gradientUnits="userSpaceOnUse" x1="446.794" y1="471.687" x2="487.206" y2="471.687"><stop offset=".5" stop-color="#FFF"/><stop offset=".5" stop-color="#000"/></linearGradient><path id="flake_shadow_63_" opacity=".1" fill="url(#flake_shadow_11_)" d="M482.276 486.2l-20.206 5.972-15.276-14.512 4.93-20.485 20.206-5.974 15.276 14.514z"/></g><g><path id="flake_60_" fill="#EBBD63" d="M482.276 426.2l-20.206 5.972-15.276-14.512 4.93-20.485 20.206-5.974 15.276 14.514z"/><linearGradient id="flake_shadow_12_" gradientUnits="userSpaceOnUse" x1="446.794" y1="411.687" x2="487.206" y2="411.687"><stop offset=".5" stop-color="#FFF"/><stop offset=".5" stop-color="#000"/></linearGradient><path id="flake_shadow_60_" opacity=".1" fill="url(#flake_shadow_12_)" d="M482.276 426.2l-20.206 5.972-15.276-14.512 4.93-20.485 20.206-5.974 15.276 14.514z"/></g></g></g><path id="tub" fill="#EB6361" d="M407.15 410l-61.9-310h309.5l-61.9 310z"/><g id="cogs" fill="#EBBD63"><path d="M512 276.275v-7.738l.46-4.992-12.487-3.19c-1.04-5.257-2.82-10.212-5.39-14.718l7.493-10.26-8.16-9.752-11.622 5.664a49.07 49.07 0 0 0-13.7-7.59l-.902-12.823-12.537-2.21-5.443 12.206a48.838 48.838 0 0 0-14.824 3.004l-9.316-9.635-11.026 6.365 3.857 13.484a49.26 49.26 0 0 0-8.955 11.263l-13.982-1.46-4.354 11.964 12.102 8.174a49.432 49.432 0 0 0 .28 13.803l-12.03 8.126 4.355 11.964 14.753-1.54a49.406 49.406 0 0 0 8.873 10.362l-4.008 14.012 11.027 6.365 10.157-10.506a48.997 48.997 0 0 0 13.768 2.426l5.78 12.96 12.54-2.21.988-14.016c4.62-1.785 8.9-4.25 12.724-7.27l12.18 5.93 8.184-9.754-7.87-10.848c2.47-4.426 3.875-9.275 4.88-14.408L512 276.275zm-60.016 30.065c-20.1 0-36.394-16.295-36.394-36.395 0-20.102 16.294-36.395 36.394-36.395 20.1 0 36.395 16.293 36.395 36.395-.002 20.1-16.296 36.395-36.396 36.395z"/><path d="M608 237.17v-6.8l1.067-4.384-10.636-2.803c-.913-4.617-2.31-8.97-4.567-12.93l6.664-9.01-7.126-8.566-10.186 4.977a43.004 43.004 0 0 0-12.023-6.666l-.787-11.264-11.01-1.943-4.78 10.724a42.887 42.887 0 0 0-13.018 2.64l-8.184-8.466-9.685 5.592 3.387 11.846a43.34 43.34 0 0 0-7.865 9.893l-12.28-1.284-3.827 10.508 10.63 7.18a43.253 43.253 0 0 0 .244 12.125l-10.563 7.138 3.825 10.51 12.96-1.355a43.358 43.358 0 0 0 7.794 9.102l-3.522 12.31 9.688 5.593 8.922-9.23a43.038 43.038 0 0 0 12.092 2.13l5.078 11.388 11.016-1.943.867-12.31a43.13 43.13 0 0 0 11.18-6.388l10.698 5.21 7.188-8.57-6.912-9.526c2.168-3.89 2.74-8.147 3.62-12.657L608 237.17zm-51.39 26.406c-17.655 0-31.968-14.313-31.968-31.97s14.313-31.968 31.97-31.968c17.653 0 31.968 14.313 31.968 31.97s-14.314 31.968-31.97 31.968z"/></g><linearGradient id="tub_shadow_1_" gradientUnits="userSpaceOnUse" x1="345.25" y1="255" x2="654.75" y2="255"><stop offset=".5" stop-color="#FFF"/><stop offset=".5" stop-color="#000"/></linearGradient><path id="tub_shadow" opacity=".1" fill="url(#tub_shadow_1_)" d="M407.15 410l-61.9-310h309.5l-61.9 310z"/></g></svg>