<svg version="1.1" xmlns="http://www.w3.org/2000/svg" x="0" y="0" width="1000" height="1000" viewBox="0 0 1000 1000" xml:space="preserve"><g id="_x33__-_Bottle"><path fill="#EBBD63" d="M0 0h1000v1000H0z" id="bg"/><g id="bottle"><path fill="#87766C" d="M635.563 520c-2.737-34-18.128-64.697-41.482-87.077-10.553-14.834-25.24-46.383-22.634-105.674 0 0-1.606-90.574-20.675-116 0 0-9.318-31.035-5.32-49.33 4.34-1.09 7.558-5.124 7.558-9.803 0-5.523-4.477-10.117-10-10.117h-88c-5.523 0-10 4.602-10 10.125 0 5.34 4.188 9.75 9.456 10.035 3.837 18.33-5.46 49.09-5.46 49.09-19.067 25.425-20.713 116.045-20.713 116.045 2.638 59.994-12.37 91.53-22.905 106.14C382.335 455.77 367.167 486 364.45 520H364v297.25c0 22.09 17.915 39.75 40.007 39.75h192C618.1 857 636 839.34 636 817.25V520h-.437z"/><g id="label"><path fill="#EB6361" d="M501.374 756.66c-28.604 0-55.78-12.66-74.54-33.66h-24.35C381.133 723 374 708.596 374 700.508V612.63c0-11.05 10.73-21.63 28.483-21.63h24.765c18.746-21 45.773-33.202 74.126-33.202S556.754 570 575.5 591h23.848C617.104 591 626 601.58 626 612.63v87.878c0 8.088-5.303 22.492-26.652 22.492h-23.434c-18.76 21-45.936 33.66-74.54 33.66z"/><path opacity=".2" d="M600.73 612h-33.02c-14.56-19-38.228-33.202-64.956-33.202S452.357 593 437.798 612h-33.935c-4.314 0-9.863-.9-9.863.63v87.878c0 1.53 5.55 5.492 9.863 5.492h33.602c14.53 20 38.357 33.66 65.29 33.66s50.76-13.66 65.29-33.66h32.684c4.313 0 5.27-3.96 5.27-5.492V612.63c0-1.53-.957-.63-5.27-.63z"/></g><linearGradient id="shadow_1_" gradientUnits="userSpaceOnUse" x1="363.5" y1="500" x2="636.035" y2="500"><stop offset=".5" stop-color="#FFF"/><stop offset=".5" stop-color="#fefefe"/><stop offset=".5" stop-color="#c3c3c3"/><stop offset=".5" stop-color="#8f8f8f"/><stop offset=".5" stop-color="#636363"/><stop offset=".5" stop-color="#3f3f3f"/><stop offset=".5" stop-color="#242424"/><stop offset=".5" stop-color="#101010"/><stop offset=".5" stop-color="#040404"/><stop offset=".5" stop-color="#000"/></linearGradient><path id="shadow" opacity=".1" fill="url(#shadow_1_)" stroke="#000" stroke-miterlimit="10" d="M636.035 520.5c-2.738-35-18.13-64.947-41.482-87.327-10.555-14.834-25.242-46.508-22.635-105.8 0 0-1.607-90.635-20.676-116.06 0 0-9.318-31.066-5.32-49.36 4.34-1.09 7.557-4.89 7.557-9.57 0-5.523-4.478-9.883-10-9.883h-88c-5.524 0-10 4.352-10 9.875 0 5.34 4.187 9.626 9.456 9.91 3.836 18.33-5.46 49.028-5.46 49.028-19.067 25.424-20.714 116.013-20.714 116.013 2.637 59.994-12.37 91.766-22.906 106.375-23.047 22.334-38.217 52.8-40.932 86.8H363.5v296.75c0 22.09 18.887 40.25 40.98 40.25h192c22.09 0 39.02-18.16 39.02-40.25V520.5h.535z"/></g></g></svg>