<svg version="1.1" xmlns="http://www.w3.org/2000/svg" x="0" y="0" width="1000" height="1000" viewBox="0 0 1000 1000" xml:space="preserve"><g id="_x34__-_Tap"><path id="bg_1_" fill="#6C8784" d="M0 0h1000v1000H0z"/><g id="tap"><path id="tap_body" fill="#999" d="M780 347H511.035l-.74-.274c-2.623.04-64.983.88-127.785 27.147-39.34 16.455-71.122 39.706-94.464 68.298C259.484 477.153 244.3 520 242.83 569h-13.898c-4.656 0-8.932 5.514-8.932 12.063v9.882c0 6.55 4.275 11.055 8.932 11.055h121.55c4.656 0 7.52-4.505 7.52-11.055v-9.882c0-6.55-2.863-12.063-7.52-12.063h-8.8c1.375-33 12.975-74.68 76.85-102.23 37.195-16.042 75.942-20.307 88.892-21.236 15.385 41.622 57.417 70.764 106.87 70.764 49.54 0 91.63-29.297 106.95-71.297H780v-98z"/><g id="handle"><path fill="#4D4D4D" d="M737.174 182.7c-14.158 0-26.445 7.3-32.622 19.3H649.49c-6.175-12-18.463-19.693-32.618-19.693-14.158 0-26.444 7.693-32.62 19.693h-59.827c-6.175-12-18.464-19.3-32.62-19.3-20.357 0-36.862 16.7-36.862 37.058 0 20.36 16.505 37.393 36.862 37.393 14.554 0 27.13-9.15 33.127-20.15h58.814c3.568 5 9.468 13.04 16.73 16.653L600.245 295h-57.78c-5.61 0-11.464 4.71-11.464 12.603v11.91c0 7.896 5.854 14.487 11.465 14.487H688.97c5.613 0 9.03-6.592 9.03-14.486v-11.91c0-7.895-3.417-12.604-9.03-12.604h-55.898l.23-41.366C640.55 250.02 646.437 242 649.998 237h54.05c5.992 11 18.57 20.25 33.127 20.25 20.357 0 36.86-16.916 36.86-37.276 0-20.358-16.503-37.275-36.86-37.275z"/><linearGradient id="SVGID_1_" gradientUnits="userSpaceOnUse" x1="454.942" y1="258.153" x2="774.033" y2="258.153"><stop offset=".5" stop-color="#FFF"/><stop offset=".5" stop-color="#fefefe"/><stop offset=".5" stop-color="#c3c3c3"/><stop offset=".5" stop-color="#8f8f8f"/><stop offset=".5" stop-color="#636363"/><stop offset=".5" stop-color="#3f3f3f"/><stop offset=".5" stop-color="#242424"/><stop offset=".5" stop-color="#101010"/><stop offset=".5" stop-color="#040404"/><stop offset=".5" stop-color="#000"/></linearGradient><path opacity=".1" fill="url(#SVGID_1_)" d="M737.174 182.7c-14.158 0-26.445 7.3-32.622 19.3H649.49c-6.175-12-18.463-19.693-32.618-19.693-14.158 0-26.444 7.693-32.62 19.693h-59.827c-6.175-12-18.464-19.3-32.62-19.3-20.357 0-36.862 16.7-36.862 37.058 0 20.36 16.505 37.393 36.862 37.393 14.554 0 27.13-9.15 33.127-20.15h58.814c3.568 5 9.468 13.04 16.73 16.653L600.245 295h-57.78c-5.61 0-11.464 4.71-11.464 12.603v11.91c0 7.896 5.854 14.487 11.465 14.487H688.97c5.613 0 9.03-6.592 9.03-14.486v-11.91c0-7.895-3.417-12.604-9.03-12.604h-55.898l.23-41.366C640.55 250.02 646.437 242 649.998 237h54.05c5.992 11 18.57 20.25 33.127 20.25 20.357 0 36.86-16.916 36.86-37.276 0-20.358-16.503-37.275-36.86-37.275z"/></g><g id="drip"><path fill="#EBBD63" d="M332.362 732.797l-39.353-78.79-45.274 78.417c-2.454 3.287-4.53 8.207-6.173 12.024l-1.28 3.552h.39c-2.175 6-3.374 10.686-3.374 17.216 0 29.06 23.557 51.95 52.615 51.95 29.062 0 52.62-23.89 52.62-52.95 0-11.63-3.784-22.71-10.173-31.42z"/><linearGradient id="SVGID_2_" gradientUnits="userSpaceOnUse" x1="237.299" y1="735.587" x2="342.534" y2="735.587"><stop offset=".5" stop-color="#FFF"/><stop offset=".5" stop-color="#fefefe"/><stop offset=".5" stop-color="#c3c3c3"/><stop offset=".5" stop-color="#8f8f8f"/><stop offset=".5" stop-color="#636363"/><stop offset=".5" stop-color="#3f3f3f"/><stop offset=".5" stop-color="#242424"/><stop offset=".5" stop-color="#101010"/><stop offset=".5" stop-color="#040404"/><stop offset=".5" stop-color="#000"/></linearGradient><path opacity=".1" fill="url(#SVGID_2_)" d="M332.362 732.797l-39.353-78.79-45.274 78.417c-2.454 3.287-4.53 8.207-6.173 12.024l-1.28 3.552h.39c-2.175 6-3.374 10.686-3.374 17.216 0 29.06 23.557 51.95 52.615 51.95 29.062 0 52.62-23.89 52.62-52.95 0-11.63-3.784-22.71-10.173-31.42z"/></g></g></g></svg>