<svg version="1.1" id="pintLayer" xmlns="http://www.w3.org/2000/svg" x="0" y="0" viewBox="0 0 235 580" xml:space="preserve"><style type="text/css">.st0{display:none;fill:#6c8784}.st1{opacity:.2}.st2,.st3,.st4{enable-background:new}.st2{display:none;opacity:.2}.st3,.st4{opacity:.7;fill:#ebbd63}.st4{opacity:.2;fill:url(#glass_shadow_1_)}.st5{display:none;fill:#fff}</style><g id="glassGroup"><path id="bg_5_" class="st0" d="M-383-210.3h100v100h-100z"/><g id="Glass"><path d="M218.7 559c-32.7-8.7-58-9.3-72.7-25.3s-15.3-60 5.3-98.7 51.1-101.8 57.3-116.7c19.8-47 22.7-82.7 22.7-121.3s-26-176-26-176 5.3-9.3-17.3-15.3-71-5.3-71-5.3-48.3-.8-71 5.2-17.3 15.3-17.3 15.3-26 137.3-26 176 2.8 74.3 22.7 121.3c6.3 14.8 36.7 78 57.3 116.7s20 82.7 5.3 98.7-40 16.8-72.7 25.4-4 14-4 14c53.3 6 105.7 6 105.7 6s52.3 0 105.7-6c0 0 28.6-5.3-4-14z" id="glass" class="st1"/><path id="glass_1_" class="st2" d="M218.7 559c-32.7-8.7-58-9.3-72.7-25.3s-15.3-60 5.3-98.7 51.1-101.8 57.3-116.7c19.8-47 22.7-82.7 22.7-121.3s-26-176-26-176 5.3-9.3-17.3-15.3-71-5.3-71-5.3-48.3-.8-71 5.2-17.3 15.3-17.3 15.3-26 137.3-26 176 2.8 74.3 22.7 121.3c6.3 14.8 36.7 78 57.3 116.7s20 82.7 5.3 98.7-40 16.8-72.7 25.4-4 14-4 14c53.3 6 105.7 6 105.7 6s52.3 0 105.7-6c0 0 28.6-5.3-4-14z"/><path class="st3" d="M193.7 40.7H40.3C33.4 78.3 17.7 168.1 17.7 197c0 40.9 1.8 73.7 21.5 115.5 56.9 121.2 104.5 123.2 155.7 0 21.9-52.8 21.5-74.6 21.5-115.5-.1-28.9-15.8-118.7-22.7-156.3z"/><linearGradient id="glass_shadow_1_" gradientUnits="userSpaceOnUse" x1="-.348" y1="957.638" x2="234.304" y2="957.638" gradientTransform="translate(0 -668)"><stop offset=".5" stop-color="#fff"/><stop offset=".5" stop-color="#000"/></linearGradient><path id="glass_shadow" class="st4" d="M218.7 559c-32.7-8.7-58-9.3-72.7-25.3s-15.3-60 5.3-98.7 51.1-101.8 57.3-116.7c19.8-47 22.7-82.7 22.7-121.3s-26-176-26-176 5.3-9.3-17.3-15.3-71-5.3-71-5.3-48.3-.8-71 5.2-17.3 15.3-17.3 15.3-26 137.3-26 176 2.8 74.3 22.7 121.3c6.3 14.8 36.7 78 57.3 116.7s20 82.7 5.3 98.7-40 16.8-72.7 25.4-4 14-4 14c53.3 6 105.7 6 105.7 6s52.3 0 105.7-6c0 0 28.6-5.3-4-14z"/><path id="puff_shadow_3_" class="st5" d="M138.5-3.6c-3.6-11.8-16.2-18.5-28-14.8-.2.1-.4.1-.6.2 3.1-3.6 4.3-8.7 2.8-13.6-2.3-7.6-10.4-11.9-18-9.5-7.6 2.3-11.9 10.4-9.5 18v.1c-1.8.2-3.6.6-5.4 1.1-1.3.4-2.6.9-3.8 1.5-5.6-4.7-13.4-6.5-20.9-4.2-11.8 3.6-18.5 16.2-14.8 28 2.5 8.2 9.3 13.9 17.2 15.4-1.7 3.2-2.1 7.1-.9 10.8 2.3 7.6 10.4 11.9 18 9.5 3.6-1.1 6.4-3.5 8.1-6.4 2.2.4 4.5.6 6.8.5.5 5.8 5.4 10.4 11.4 10.4 6.3 0 11.4-5.1 11.4-11.4 0-3.2-1.3-6-3.4-8.1 4.6 1.8 9.8 2.1 14.8.6 11.8-3.7 18.5-16.3 14.8-28.1z"/><path id="puff_shadow_2_" class="st5" d="M194.1-12.3c-2.8-9.2-12.5-14.3-21.7-11.5-.2.1-.3.1-.5.2 2.4-2.8 3.4-6.8 2.2-10.5-1.8-5.9-8.1-9.2-14-7.4s-9.2 8.1-7.4 14c-1.4.1-2.8.4-4.2.9-1 .3-2 .7-2.9 1.1-4.4-3.6-10.4-5-16.2-3.2-9.2 2.8-14.3 12.5-11.5 21.7 2 6.3 7.2 10.8 13.3 11.9-1.3 2.5-1.6 5.5-.7 8.4 1.8 5.9 8.1 9.2 14 7.4 2.8-.9 4.9-2.7 6.3-5 1.7.3 3.5.5 5.3.4.4 4.5 4.2 8 8.8 8 4.9 0 8.8-4 8.8-8.8 0-2.4-1-4.7-2.6-6.3 3.5 1.4 7.6 1.7 11.5.4 9.2-2.8 14.4-12.5 11.5-21.7z"/><path id="puff_shadow_4_" class="st5" d="M147.9-44c-2.3-8-10.4-12.5-18-10-.1 0-.3.1-.4.1 2-2.5 2.8-5.9 1.8-9.2-1.5-5.2-6.7-8.1-11.6-6.5s-7.6 7.1-6.1 12.2c-1.2.1-2.3.4-3.5.8-.8.3-1.7.6-2.4 1-3.6-3.2-8.6-4.4-13.4-2.8-7.6 2.5-11.8 11-9.5 19 1.6 5.6 6 9.4 11 10.4-1.1 2.2-1.3 4.8-.6 7.3 1.5 5.2 6.7 8.1 11.6 6.5 2.3-.7 4.1-2.3 5.2-4.3 1.4.3 2.9.4 4.4.3.3 3.9 3.5 7 7.3 7 4 0 7.3-3.5 7.3-7.7 0-2.1-.8-4.1-2.1-5.5 2.9 1.2 6.3 1.4 9.5.4 7.6-2.5 11.8-11 9.5-19z"/></g></g></svg>