<svg version="1.1" id="Layer_1" xmlns="http://www.w3.org/2000/svg" x="0" y="0" viewBox="0 0 1000 1000" xml:space="preserve"><style type="text/css">.st0{opacity:.1}.st1{display:none;fill:#6c8784}.st2{fill:#999}.st3{fill:#4d4d4d}.st4{opacity:.1;fill:url(#SVGID_1_);enable-background:new}.st5{fill:#ebbd63}.st6{opacity:.1;fill:url(#SVGID_2_);enable-background:new}</style><g id="_x34__-_Tap"><path id="bg_1_" class="st1" d="M0 0h1000v1000H0z"/><g id="tap"><path id="tap_body" class="st2" d="M780 347H511l-.7-.3c-2.6 0-65 .9-127.8 27.1-39.3 16.5-71.1 39.7-94.5 68.3-28.6 35-43.7 77.8-45.2 126.8h-13.9c-4.7 0-8.9 5.5-8.9 12.1v9.9c0 6.5 4.3 11.1 8.9 11.1h121.6c4.7 0 7.5-4.5 7.5-11.1V581c0-6.5-2.9-12.1-7.5-12.1h-8.8c1.4-33 13-74.7 76.9-102.2 37.2-16 75.9-20.3 88.9-21.2 15.4 41.6 57.4 70.8 106.9 70.8 49.5 0 91.6-29.3 106.9-71.3H780v-98z"/><g id="handle"><path class="st3" d="M737.2 182.7c-14.2 0-26.4 7.3-32.6 19.3h-55.1c-6.2-12-18.5-19.7-32.6-19.7-14.2 0-26.4 7.7-32.6 19.7h-59.8c-6.2-12-18.5-19.3-32.6-19.3-20.4 0-36.9 16.7-36.9 37.1 0 20.4 16.5 37.4 36.9 37.4 14.6 0 27.1-9.1 33.1-20.1h58.8c3.6 5 9.5 13 16.7 16.7l-.2 41.3h-57.8c-5.6 0-11.5 4.7-11.5 12.6v11.9c0 7.9 5.9 14.5 11.5 14.5H689c5.6 0 9-6.6 9-14.5v-11.9c0-7.9-3.4-12.6-9-12.6h-55.9l.2-41.4c7.2-3.6 13.1-11.6 16.7-16.6h54c6 11 18.6 20.2 33.1 20.2 20.4 0 36.9-16.9 36.9-37.3s-16.5-37.3-36.8-37.3z"/><linearGradient id="SVGID_1_" gradientUnits="userSpaceOnUse" x1="454.943" y1="741.846" x2="774.033" y2="741.846" gradientTransform="matrix(1 0 0 -1 0 1000)"><stop offset=".5" stop-color="#FFF"/><stop offset=".5" stop-color="#fefefe"/><stop offset=".5" stop-color="#c3c3c3"/><stop offset=".5" stop-color="#8f8f8f"/><stop offset=".5" stop-color="#636363"/><stop offset=".5" stop-color="#3f3f3f"/><stop offset=".5" stop-color="#242424"/><stop offset=".5" stop-color="#101010"/><stop offset=".5" stop-color="#040404"/><stop offset=".5" stop-color="#000"/></linearGradient><path class="st4" d="M737.2 182.7c-14.2 0-26.4 7.3-32.6 19.3h-55.1c-6.2-12-18.5-19.7-32.6-19.7-14.2 0-26.4 7.7-32.6 19.7h-59.8c-6.2-12-18.5-19.3-32.6-19.3-20.4 0-36.9 16.7-36.9 37.1 0 20.4 16.5 37.4 36.9 37.4 14.6 0 27.1-9.1 33.1-20.1h58.8c3.6 5 9.5 13 16.7 16.7l-.2 41.3h-57.8c-5.6 0-11.5 4.7-11.5 12.6v11.9c0 7.9 5.9 14.5 11.5 14.5H689c5.6 0 9-6.6 9-14.5v-11.9c0-7.9-3.4-12.6-9-12.6h-55.9l.2-41.4c7.2-3.6 13.1-11.6 16.7-16.6h54c6 11 18.6 20.2 33.1 20.2 20.4 0 36.9-16.9 36.9-37.3s-16.5-37.3-36.8-37.3z"/></g><g id="drip"><path class="st5" d="M332.4 732.8L293 654l-45.3 78.4c-2.5 3.3-4.5 8.2-6.2 12l-1.3 3.6h.4c-2.2 6-3.4 10.7-3.4 17.2 0 29.1 23.6 52 52.6 52 29.1 0 52.6-23.9 52.6-52.9.1-11.7-3.6-22.8-10-31.5z"/><linearGradient id="SVGID_2_" gradientUnits="userSpaceOnUse" x1="237.299" y1="264.413" x2="342.534" y2="264.413" gradientTransform="matrix(1 0 0 -1 0 1000)"><stop offset=".5" stop-color="#FFF"/><stop offset=".5" stop-color="#fefefe"/><stop offset=".5" stop-color="#c3c3c3"/><stop offset=".5" stop-color="#8f8f8f"/><stop offset=".5" stop-color="#636363"/><stop offset=".5" stop-color="#3f3f3f"/><stop offset=".5" stop-color="#242424"/><stop offset=".5" stop-color="#101010"/><stop offset=".5" stop-color="#040404"/><stop offset=".5" stop-color="#000"/></linearGradient><path class="st6" d="M332.4 732.8L293 654l-45.3 78.4c-2.5 3.3-4.5 8.2-6.2 12l-1.3 3.6h.4c-2.2 6-3.4 10.7-3.4 17.2 0 29.1 23.6 52 52.6 52 29.1 0 52.6-23.9 52.6-52.9.1-11.7-3.6-22.8-10-31.5z"/></g></g></g></svg>