<?xml version="1.0" encoding="utf-8"?>
<!-- Generator: Adobe Illustrator 19.2.0, SVG Export Plug-In . SVG Version: 6.00 Build 0)  -->
<svg version="1.1" id="Layer_1" xmlns="http://www.w3.org/2000/svg" xmlns:xlink="http://www.w3.org/1999/xlink" x="0px" y="0px"
	 viewBox="0 0 1000 1000" style="enable-background:new 0 0 1000 1000;" xml:space="preserve">
<style type="text/css">
	.st0{opacity:0.1;}
	.st1{display:none;fill:#45362E;}
	.st2{fill:#EBBD63;}
	.st3{opacity:0.1;fill:url(#jar_shadow_1_);enable-background:new    ;}
	.st4{fill:#FFFFFF;}
	.st5{opacity:0.1;fill:url(#puff_shadow_2_);enable-background:new    ;}
</style>

<g id="_x31__-_Boiler">
	<rect id="bg_4_" class="st1" width="1000" height="1000"/>
	<g id="jar_group">
		<path id="jar" class="st2" d="M573.9,353.7l-8.7-59.3c9.7-0.3,16.7-2,16.7-3.7v-24.1c0-1.8-8-1.7-19-1.7h-95c-11,0-21-0.1-21,1.7
			v24.1c0,1.7,8.8,3.5,19.1,3.7l-8.7,59.3C377.7,356,315,372.5,315,393v320c0,22.1,72.9,41,161.2,41h80c88.4,0,158.8-18.9,158.8-41
			V393C715,372.4,653.8,355.9,573.9,353.7z"/>

			<linearGradient id="jar_shadow_1_" gradientUnits="userSpaceOnUse" x1="315" y1="490.5002" x2="715" y2="490.5002" gradientTransform="matrix(1 0 0 -1 0 1000)">
			<stop  offset="0.5" style="stop-color:#FFFFFF"/>
			<stop  offset="0.5" style="stop-color:#FEFEFE"/>
			<stop  offset="0.5" style="stop-color:#C3C3C3"/>
			<stop  offset="0.5" style="stop-color:#8F8F8F"/>
			<stop  offset="0.5" style="stop-color:#636363"/>
			<stop  offset="0.5" style="stop-color:#3F3F3F"/>
			<stop  offset="0.5" style="stop-color:#242424"/>
			<stop  offset="0.5" style="stop-color:#101010"/>
			<stop  offset="0.5" style="stop-color:#040404"/>
			<stop  offset="0.5" style="stop-color:#000000"/>
		</linearGradient>
		<path id="jar_shadow" class="st3" d="M573.9,353.7l-8.7-59.3c9.7-0.3,16.7-2,16.7-3.7v-24.1c0-1.8-8-1.7-19-1.7h-95
			c-11,0-21-0.1-21,1.7v24.1c0,1.7,8.8,3.5,19.1,3.7l-8.7,59.3C377.7,356,315,372.5,315,393v320c0,22.1,72.9,41,161.2,41h80
			c88.4,0,158.8-18.9,158.8-41V393C715,372.4,653.8,355.9,573.9,353.7z"/>
	</g>
	<g id="puff_group">
		<path id="puff_1_" class="st4" d="M567.2,119.4c-5-16.2-22.2-25.3-38.4-20.3c-0.3,0.1-0.6,0.2-0.9,0.3c4.2-5,5.9-11.9,3.9-18.6
			c-3.2-10.4-14.3-16.3-24.7-13c-10.4,3.2-16.3,14.3-13,24.7c0,0,0,0,0,0.1c-2.5,0.3-5,0.8-7.4,1.5c-1.8,0.6-3.5,1.2-5.2,2
			c-7.7-6.4-18.4-8.9-28.6-5.7c-16.2,5-25.3,22.2-20.3,38.4c3.5,11.2,12.8,19,23.5,21.1c-2.3,4.4-2.9,9.7-1.3,14.8
			c3.2,10.4,14.3,16.3,24.7,13c4.9-1.5,8.7-4.7,11.1-8.8c3,0.6,6.2,0.8,9.3,0.7c0.7,8,7.4,14.2,15.6,14.2c8.6,0,15.6-7,15.6-15.6
			c0-4.3-1.8-8.2-4.6-11.1c0,0,0,0,0-0.1c6.3,2.5,13.4,2.9,20.3,0.8C563.1,152.7,572.1,135.5,567.2,119.4z"/>

			<linearGradient id="puff_shadow_2_" gradientUnits="userSpaceOnUse" x1="431.2094" y1="874.763" x2="568.5263" y2="874.763" gradientTransform="matrix(1 0 0 -1 0 1000)">
			<stop  offset="0.5" style="stop-color:#FFFFFF"/>
			<stop  offset="0.5" style="stop-color:#FEFEFE"/>
			<stop  offset="0.5" style="stop-color:#C3C3C3"/>
			<stop  offset="0.5" style="stop-color:#8F8F8F"/>
			<stop  offset="0.5" style="stop-color:#636363"/>
			<stop  offset="0.5" style="stop-color:#3F3F3F"/>
			<stop  offset="0.5" style="stop-color:#242424"/>
			<stop  offset="0.5" style="stop-color:#101010"/>
			<stop  offset="0.5" style="stop-color:#040404"/>
			<stop  offset="0.5" style="stop-color:#000000"/>
		</linearGradient>
		<path id="puff_shadow_1_" class="st5" d="M567.2,119.4c-5-16.2-22.2-25.3-38.4-20.3c-0.3,0.1-0.6,0.2-0.9,0.3
			c4.2-5,5.9-11.9,3.9-18.6c-3.2-10.4-14.3-16.3-24.7-13c-10.4,3.2-16.3,14.3-13,24.7c0,0,0,0,0,0.1c-2.5,0.3-5,0.8-7.4,1.5
			c-1.8,0.6-3.5,1.2-5.2,2c-7.7-6.4-18.4-8.9-28.6-5.7c-16.2,5-25.3,22.2-20.3,38.4c3.5,11.2,12.8,19,23.5,21.1
			c-2.3,4.4-2.9,9.7-1.3,14.8c3.2,10.4,14.3,16.3,24.7,13c4.9-1.5,8.7-4.7,11.1-8.8c3,0.6,6.2,0.8,9.3,0.7c0.7,8,7.4,14.2,15.6,14.2
			c8.6,0,15.6-7,15.6-15.6c0-4.3-1.8-8.2-4.6-11.1c0,0,0,0,0-0.1c6.3,2.5,13.4,2.9,20.3,0.8C563.1,152.7,572.1,135.5,567.2,119.4z"
			/>
	</g>
</g>
</svg>
