<?xml version="1.0" encoding="utf-8"?>
<svg version="1.1" id="glassLayer" xmlns="http://www.w3.org/2000/svg" xmlns:xlink="http://www.w3.org/1999/xlink"
     x="0px" y="0px" viewBox="0 0 235 580" style="enable-background:new 0 0 235 580;" xml:space="preserve">
<style type="text/css">
	.st0{display:none;fill:#6C8784;}
	.st1{opacity:0.2;}
	.st2{display:none;opacity:0.2;enable-background:new    ;}
	.st3{opacity:0.7;fill:#EBBD63;enable-background:new    ;}
	.st4{opacity:0.2;fill:url(#glass_shadow_1_);enable-background:new    ;}
	.st5{display:none;fill:#FFFFFF;}
</style>
<g id="glassGroup">
	<rect id="bg_5_" x="-383" y="-210.3" class="st0" width="100" height="100"/>
	<g id="Glass">
		<g id="glass" class="st1">
			<path d="M218.7,559c-32.7-8.7-58-9.3-72.7-25.3s-15.3-60,5.3-98.7s51.1-101.8,57.3-116.7c19.8-47,22.7-82.7,22.7-121.3
				s-26-176-26-176s5.3-9.3-17.3-15.3s-71-5.3-71-5.3S68.7-0.4,46,5.6S28.7,20.9,28.7,20.9s-26,137.3-26,176s2.8,74.3,22.7,121.3
				c6.3,14.8,36.7,78,57.3,116.7s20,82.7,5.3,98.7S48,550.4,15.3,559s-4,14-4,14c53.3,6,105.7,6,105.7,6s52.3,0,105.7-6
				C222.7,573,251.3,567.7,218.7,559z"/>
		</g>
		<path id="glass_1_" class="st2" d="M218.7,559c-32.7-8.7-58-9.3-72.7-25.3s-15.3-60,5.3-98.7s51.1-101.8,57.3-116.7
			c19.8-47,22.7-82.7,22.7-121.3s-26-176-26-176s5.3-9.3-17.3-15.3s-71-5.3-71-5.3S68.7-0.4,46,5.6S28.7,20.9,28.7,20.9
			s-26,137.3-26,176s2.8,74.3,22.7,121.3c6.3,14.8,36.7,78,57.3,116.7s20,82.7,5.3,98.7S48,550.4,15.3,559s-4,14-4,14
			c53.3,6,105.7,6,105.7,6s52.3,0,105.7-6C222.7,573,251.3,567.7,218.7,559z"/>
		<path id="liquid1" class="st3" d="M193.7,40.7H40.3c-6.9,37.6-22.6,127.4-22.6,156.3c0,40.9,1.8,73.7,21.5,115.5
			c56.9,121.2,104.5,123.2,155.7,0c21.9-52.8,21.5-74.6,21.5-115.5C216.3,168.1,200.6,78.3,193.7,40.7z"/>

			<linearGradient id="glass_shadow_1_" gradientUnits="userSpaceOnUse" x1="-0.3481" y1="957.6375" x2="234.3039" y2="957.6375" gradientTransform="matrix(1 0 0 1 0 -668)">
			<stop  offset="0.5" style="stop-color:#FFFFFF"/>
			<stop  offset="0.5" style="stop-color:#000000"/>
		</linearGradient>
		<path id="glass_shadow" class="st4" d="M218.7,559c-32.7-8.7-58-9.3-72.7-25.3s-15.3-60,5.3-98.7s51.1-101.8,57.3-116.7
			c19.8-47,22.7-82.7,22.7-121.3s-26-176-26-176s5.3-9.3-17.3-15.3s-71-5.3-71-5.3S68.7-0.4,46,5.6S28.7,20.9,28.7,20.9
			s-26,137.3-26,176s2.8,74.3,22.7,121.3c6.3,14.8,36.7,78,57.3,116.7s20,82.7,5.3,98.7S48,550.4,15.3,559s-4,14-4,14
			c53.3,6,105.7,6,105.7,6s52.3,0,105.7-6C222.7,573,251.3,567.7,218.7,559z"/>
		<path id="puff_shadow_3_" class="st5" d="M138.5-3.6c-3.6-11.8-16.2-18.5-28-14.8c-0.2,0.1-0.4,0.1-0.6,0.2
			c3.1-3.6,4.3-8.7,2.8-13.6c-2.3-7.6-10.4-11.9-18-9.5c-7.6,2.3-11.9,10.4-9.5,18c0,0,0,0,0,0.1c-1.8,0.2-3.6,0.6-5.4,1.1
			c-1.3,0.4-2.6,0.9-3.8,1.5c-5.6-4.7-13.4-6.5-20.9-4.2c-11.8,3.6-18.5,16.2-14.8,28c2.5,8.2,9.3,13.9,17.2,15.4
			c-1.7,3.2-2.1,7.1-0.9,10.8c2.3,7.6,10.4,11.9,18,9.5c3.6-1.1,6.4-3.5,8.1-6.4c2.2,0.4,4.5,0.6,6.8,0.5
			c0.5,5.8,5.4,10.4,11.4,10.4c6.3,0,11.4-5.1,11.4-11.4c0-3.2-1.3-6-3.4-8.1l0,0c4.6,1.8,9.8,2.1,14.8,0.6
			C135.5,20.8,142.2,8.2,138.5-3.6z"/>
		<path id="puff_shadow_2_" class="st5" d="M194.1-12.3c-2.8-9.2-12.5-14.3-21.7-11.5c-0.2,0.1-0.3,0.1-0.5,0.2
			c2.4-2.8,3.4-6.8,2.2-10.5c-1.8-5.9-8.1-9.2-14-7.4s-9.2,8.1-7.4,14l0,0c-1.4,0.1-2.8,0.4-4.2,0.9c-1,0.3-2,0.7-2.9,1.1
			c-4.4-3.6-10.4-5-16.2-3.2c-9.2,2.8-14.3,12.5-11.5,21.7c2,6.3,7.2,10.8,13.3,11.9c-1.3,2.5-1.6,5.5-0.7,8.4
			c1.8,5.9,8.1,9.2,14,7.4c2.8-0.9,4.9-2.7,6.3-5c1.7,0.3,3.5,0.5,5.3,0.4c0.4,4.5,4.2,8,8.8,8c4.9,0,8.8-4,8.8-8.8
			c0-2.4-1-4.7-2.6-6.3l0,0c3.5,1.4,7.6,1.7,11.5,0.4C191.8,6.6,197-3.1,194.1-12.3z"/>
		<path id="puff_shadow_4_" class="st5" d="M147.9-44c-2.3-8-10.4-12.5-18-10c-0.1,0-0.3,0.1-0.4,0.1c2-2.5,2.8-5.9,1.8-9.2
			c-1.5-5.2-6.7-8.1-11.6-6.5s-7.6,7.1-6.1,12.2l0,0c-1.2,0.1-2.3,0.4-3.5,0.8c-0.8,0.3-1.7,0.6-2.4,1c-3.6-3.2-8.6-4.4-13.4-2.8
			c-7.6,2.5-11.8,11-9.5,19c1.6,5.6,6,9.4,11,10.4c-1.1,2.2-1.3,4.8-0.6,7.3c1.5,5.2,6.7,8.1,11.6,6.5c2.3-0.7,4.1-2.3,5.2-4.3
			c1.4,0.3,2.9,0.4,4.4,0.3c0.3,3.9,3.5,7,7.3,7c4,0,7.3-3.5,7.3-7.7c0-2.1-0.8-4.1-2.1-5.5l0,0c2.9,1.2,6.3,1.4,9.5,0.4
			C146-27.5,150.2-36,147.9-44z"/>
	</g>
</g>
</svg>
