<?xml version="1.0" encoding="utf-8"?>
<!-- Generator: Adobe Illustrator 19.2.0, SVG Export Plug-In . SVG Version: 6.00 Build 0)  -->
<svg version="1.1" id="Layer_1" xmlns="http://www.w3.org/2000/svg" xmlns:xlink="http://www.w3.org/1999/xlink" x="0px" y="0px"
	 viewBox="0 0 1000 1000" style="enable-background:new 0 0 1000 1000;" xml:space="preserve">
<style type="text/css">
	.st0{display:none;fill:#EB6361;}
	.st1{fill:#EBBD63;}
	.st2{opacity:0.1;}
	.st3{fill:url(#SVGID_1_);}
	.st4{fill:url(#SVGID_2_);}
	.st5{fill:url(#SVGID_3_);}
	.st6{fill:url(#SVGID_4_);}
	.st7{fill:url(#SVGID_5_);}
	.st8{fill:url(#SVGID_6_);}
	.st9{fill:url(#SVGID_7_);}
	.st10{fill:url(#SVGID_8_);}
	.st11{fill:url(#SVGID_9_);}
</style>

<g id="_x35__-_Grain_1_">
	<rect id="bg_2_" class="st0" width="1000" height="1000"/>
	<g id="grain_group_1_">
		<g id="grain_group">
			<g>
				<polygon class="st1" points="592,169 573,169 573,413.2 592,404.8 				"/>
				<path class="st1" d="M601.8,674.9l-88.4,38.8c-5,2.2-9.5,8.4-9.9,13.9l-3.5,46l-3.5-46c-0.4-5.5-4.8-11.7-9.9-13.9l-88.4-38.8
					c-5-2.2-8.8,0.4-8.4,5.9l7.4,96.4c0.4,5.5,4.8,11.7,9.9,13.9l88.4,38.8c1.7,0.7,3.2,0.9,4.5,0.6c1.3,0.3,2.8,0.1,4.5-0.6
					l88.4-38.8c5-2.2,9.5-8.4,9.9-13.9l7.4-96.4C610.6,675.4,606.8,672.7,601.8,674.9z"/>
				<path class="st1" d="M601.8,545.9l-88.4,38.8c-5,2.2-9.5,8.4-9.9,13.9l-3.5,46l-3.5-46c-0.4-5.5-4.8-11.7-9.9-13.9l-88.4-38.8
					c-5-2.2-8.8,0.4-8.4,5.9l7.4,96.4c0.4,5.5,4.8,11.7,9.9,13.9l88.4,38.8c1.7,0.7,3.2,0.9,4.5,0.6c1.3,0.3,2.8,0.1,4.5-0.6
					l88.4-38.8c5-2.2,9.5-8.4,9.9-13.9l7.4-96.4C610.6,546.3,606.8,543.6,601.8,545.9z"/>
				<path class="st1" d="M397.2,519.1c0.4,5.5,4.8,11.7,9.9,13.9l88.4,38.8c1.7,0.7,3.2,0.9,4.5,0.6c1.3,0.3,2.8,0.1,4.5-0.6
					l88.4-38.8c5-2.2,9.5-8.4,9.9-13.9l7.4-96.4c0.4-5.5-3.3-8.1-8.4-5.9l-88.4,38.8c-5,2.2-9.5,8.4-9.9,13.9l-3.5,46l-3.5-46
					c-0.4-5.5-4.8-11.7-9.9-13.9l-88.4-38.8c-5-2.2-8.8,0.4-8.4,5.9L397.2,519.1z"/>
				<path class="st1" d="M496.7,322.8l-41.6,69.4c-2.4,4-2.4,10.4,0,14.3l15.3,25.5l22.3,9.8c2.6,1.2,5.1,2.8,7.4,4.7
					c2.3-2,4.7-3.6,7.4-4.7l24.8-10.9l14.7-24.5c2.4-4,2.4-10.4,0-14.3l-41.6-69.3C502.9,318.9,499.1,318.9,496.7,322.8z"/>
				<polygon class="st1" points="552,169 533,169 533,339.4 552,371 				"/>
				<path class="st1" d="M511,307.6V169h-19v138.4c3-1.6,6-2.5,9.3-2.5C504.7,304.9,508,305.8,511,307.6z"/>
				<polygon class="st1" points="430,169 411,169 411,405.9 430,414.2 				"/>
				<polygon class="st1" points="471,169 452,169 452,368.7 471,337 				"/>
			</g>
		</g>
		<g id="grain_group_shadow" class="st2">
			<g>

					<linearGradient id="SVGID_1_" gradientUnits="userSpaceOnUse" x1="573" y1="708.917" x2="592" y2="708.917" gradientTransform="matrix(1 0 0 -1 0 1000)">
					<stop  offset="0.5" style="stop-color:#FFFFFF"/>
					<stop  offset="0.5" style="stop-color:#000000"/>
				</linearGradient>
				<polygon class="st3" points="592,169 573,169 573,413.2 592,404.8 				"/>

					<linearGradient id="SVGID_2_" gradientUnits="userSpaceOnUse" x1="389.8128" y1="247.556" x2="610.1871" y2="247.556" gradientTransform="matrix(1 0 0 -1 0 1000)">
					<stop  offset="0.5" style="stop-color:#FFFFFF"/>
					<stop  offset="0.5" style="stop-color:#000000"/>
				</linearGradient>
				<path class="st4" d="M601.8,674.9l-88.4,38.8c-5,2.2-9.5,8.4-9.9,13.9l-3.5,46l-3.5-46c-0.4-5.5-4.8-11.7-9.9-13.9l-88.4-38.8
					c-5-2.2-8.8,0.4-8.4,5.9l7.4,96.4c0.4,5.5,4.8,11.7,9.9,13.9l88.4,38.8c1.7,0.7,3.2,0.9,4.5,0.6c1.3,0.3,2.8,0.1,4.5-0.6
					l88.4-38.8c5-2.2,9.5-8.4,9.9-13.9l7.4-96.4C610.6,675.4,606.8,672.7,601.8,674.9z"/>

					<linearGradient id="SVGID_3_" gradientUnits="userSpaceOnUse" x1="389.8128" y1="376.634" x2="610.1871" y2="376.634" gradientTransform="matrix(1 0 0 -1 0 1000)">
					<stop  offset="0.5" style="stop-color:#FFFFFF"/>
					<stop  offset="0.5" style="stop-color:#000000"/>
				</linearGradient>
				<path class="st5" d="M601.8,545.9l-88.4,38.8c-5,2.2-9.5,8.4-9.9,13.9l-3.5,46l-3.5-46c-0.4-5.5-4.8-11.7-9.9-13.9l-88.4-38.8
					c-5-2.2-8.8,0.4-8.4,5.9l7.4,96.4c0.4,5.5,4.8,11.7,9.9,13.9l88.4,38.8c1.7,0.7,3.2,0.9,4.5,0.6c1.3,0.3,2.8,0.1,4.5-0.6
					l88.4-38.8c5-2.2,9.5-8.4,9.9-13.9l7.4-96.4C610.6,546.3,606.8,543.6,601.8,545.9z"/>

					<linearGradient id="SVGID_4_" gradientUnits="userSpaceOnUse" x1="389.8128" y1="505.7117" x2="610.1871" y2="505.7117" gradientTransform="matrix(1 0 0 -1 0 1000)">
					<stop  offset="0.5" style="stop-color:#FFFFFF"/>
					<stop  offset="0.5" style="stop-color:#000000"/>
				</linearGradient>
				<path class="st6" d="M397.2,519.1c0.4,5.5,4.8,11.7,9.9,13.9l88.4,38.8c1.7,0.7,3.2,0.9,4.5,0.6c1.3,0.3,2.8,0.1,4.5-0.6
					l88.4-38.8c5-2.2,9.5-8.4,9.9-13.9l7.4-96.4c0.4-5.5-3.3-8.1-8.4-5.9l-88.4,38.8c-5,2.2-9.5,8.4-9.9,13.9l-3.5,46l-3.5-46
					c-0.4-5.5-4.8-11.7-9.9-13.9l-88.4-38.8c-5-2.2-8.8,0.4-8.4,5.9L397.2,519.1z"/>

					<linearGradient id="SVGID_5_" gradientUnits="userSpaceOnUse" x1="453.2774" y1="616.7723" x2="548.6601" y2="616.7723" gradientTransform="matrix(1 0 0 -1 0 1000)">
					<stop  offset="0.5" style="stop-color:#FFFFFF"/>
					<stop  offset="0.5" style="stop-color:#000000"/>
				</linearGradient>
				<path class="st7" d="M496.7,322.8l-41.6,69.4c-2.4,4-2.4,10.4,0,14.3l15.3,25.5l22.3,9.8c2.6,1.2,5.1,2.8,7.4,4.7
					c2.3-2,4.7-3.6,7.4-4.7l24.8-10.9l14.7-24.5c2.4-4,2.4-10.4,0-14.3l-41.6-69.3C502.9,318.9,499.1,318.9,496.7,322.8z"/>

					<linearGradient id="SVGID_6_" gradientUnits="userSpaceOnUse" x1="533" y1="729.982" x2="552" y2="729.982" gradientTransform="matrix(1 0 0 -1 0 1000)">
					<stop  offset="0.5" style="stop-color:#FFFFFF"/>
					<stop  offset="0.5" style="stop-color:#000000"/>
				</linearGradient>
				<polygon class="st8" points="552,169 533,169 533,339.4 552,371 				"/>

					<linearGradient id="SVGID_7_" gradientUnits="userSpaceOnUse" x1="492" y1="761.7085" x2="511" y2="761.7085" gradientTransform="matrix(1 0 0 -1 0 1000)">
					<stop  offset="0.5" style="stop-color:#FFFFFF"/>
					<stop  offset="0.5" style="stop-color:#000000"/>
				</linearGradient>
				<path class="st9" d="M511,307.6V169h-19v138.4c3-1.6,6-2.5,9.3-2.5C504.7,304.9,508,305.8,511,307.6z"/>

					<linearGradient id="SVGID_8_" gradientUnits="userSpaceOnUse" x1="411" y1="708.392" x2="430" y2="708.392" gradientTransform="matrix(1 0 0 -1 0 1000)">
					<stop  offset="0.5" style="stop-color:#FFFFFF"/>
					<stop  offset="0.5" style="stop-color:#000000"/>
				</linearGradient>
				<polygon class="st10" points="430,169 411,169 411,405.9 430,414.2 				"/>

					<linearGradient id="SVGID_9_" gradientUnits="userSpaceOnUse" x1="452" y1="731.152" x2="471" y2="731.152" gradientTransform="matrix(1 0 0 -1 0 1000)">
					<stop  offset="0.5" style="stop-color:#FFFFFF"/>
					<stop  offset="0.5" style="stop-color:#000000"/>
				</linearGradient>
				<polygon class="st11" points="471,169 452,169 452,368.7 471,337 				"/>
			</g>
		</g>
	</g>
</g>

</svg>
