<?xml version="1.0" encoding="utf-8"?>
<!-- Generator: Adobe Illustrator 19.2.0, SVG Export Plug-In . SVG Version: 6.00 Build 0)  -->
<svg version="1.1" id="grainLayer" xmlns="http://www.w3.org/2000/svg" xmlns:xlink="http://www.w3.org/1999/xlink" x="0px"
	 y="0px" viewBox="0 0 222 663" style="enable-background:new 0 0 222 663;" xml:space="preserve">
<style type="text/css">
	.st0{display:none;fill:#EB6361;}
	.st1{fill:#EBBD63;}
	.st2{opacity:0.1;}
	.st3{fill:url(#SVGID_1_);}
	.st4{fill:url(#SVGID_2_);}
	.st5{fill:url(#SVGID_3_);}
	.st6{fill:url(#SVGID_4_);}
	.st7{fill:url(#SVGID_5_);}
	.st8{fill:url(#SVGID_6_);}
	.st9{fill:url(#SVGID_7_);}
	.st10{fill:url(#SVGID_8_);}
	.st11{fill:url(#SVGID_9_);}
</style>
<g id="grainGroup">
	<rect id="bg_2_" x="-390" y="-169" class="st0" width="1000" height="1000"/>
	<g id="grainGroup">
		<g id="grain_group">
			<g>
				<polygon class="st1" points="202,0 183,0 183,244.2 202,235.8 				"/>
				<path class="st1" d="M211.8,505.9l-88.4,38.8c-5,2.2-9.5,8.4-9.9,13.9l-3.5,46l-3.5-46c-0.4-5.5-4.8-11.7-9.9-13.9L8.2,505.9
					c-5-2.2-8.8,0.4-8.4,5.9l7.4,96.4c0.4,5.5,4.8,11.7,9.9,13.9l88.4,38.8c1.7,0.7,3.2,0.9,4.5,0.6c1.3,0.3,2.8,0.1,4.5-0.6
					l88.4-38.8c5-2.2,9.5-8.4,9.9-13.9l7.4-96.4C220.6,506.4,216.8,503.7,211.8,505.9z"/>
				<path class="st1" d="M211.8,376.9l-88.4,38.8c-5,2.2-9.5,8.4-9.9,13.9l-3.5,46l-3.5-46c-0.4-5.5-4.8-11.7-9.9-13.9L8.2,376.9
					c-5-2.2-8.8,0.4-8.4,5.9l7.4,96.4c0.4,5.5,4.8,11.7,9.9,13.9l88.4,38.8c1.7,0.7,3.2,0.9,4.5,0.6c1.3,0.3,2.8,0.1,4.5-0.6
					l88.4-38.8c5-2.2,9.5-8.4,9.9-13.9l7.4-96.4C220.6,377.3,216.8,374.6,211.8,376.9z"/>
				<path class="st1" d="M7.2,350.1c0.4,5.5,4.8,11.7,9.9,13.9l88.4,38.8c1.7,0.7,3.2,0.9,4.5,0.6c1.3,0.3,2.8,0.1,4.5-0.6
					l88.4-38.8c5-2.2,9.5-8.4,9.9-13.9l7.4-96.4c0.4-5.5-3.3-8.1-8.4-5.9l-88.4,38.8c-5,2.2-9.5,8.4-9.9,13.9l-3.5,46l-3.5-46
					c-0.4-5.5-4.8-11.7-9.9-13.9L8.2,247.8c-5-2.2-8.8,0.4-8.4,5.9L7.2,350.1z"/>
				<path class="st1" d="M106.7,153.8l-41.6,69.4c-2.4,4-2.4,10.4,0,14.3L80.4,263l22.3,9.8c2.6,1.2,5.1,2.8,7.4,4.7
					c2.3-2,4.7-3.6,7.4-4.7l24.8-10.9l14.7-24.5c2.4-4,2.4-10.4,0-14.3l-41.6-69.3C112.9,149.9,109.1,149.9,106.7,153.8z"/>
				<polygon class="st1" points="162,0 143,0 143,170.4 162,202 				"/>
				<path class="st1" d="M121,138.6V0h-19v138.4c3-1.6,6-2.5,9.3-2.5C114.7,135.9,118,136.8,121,138.6z"/>
				<polygon class="st1" points="40,0 21,0 21,236.9 40,245.2 				"/>
				<polygon class="st1" points="81,0 62,0 62,199.7 81,168 				"/>
			</g>
		</g>
		<g id="grain_group_shadow" class="st2">
			<g>

					<linearGradient id="SVGID_1_" gradientUnits="userSpaceOnUse" x1="183" y1="-109.9" x2="202" y2="-109.9" gradientTransform="matrix(1 0 0 1 0 232)">
					<stop  offset="0.5" style="stop-color:#FFFFFF"/>
					<stop  offset="0.5" style="stop-color:#000000"/>
				</linearGradient>
				<polygon class="st3" points="202,0 183,0 183,244.2 202,235.8 				"/>

					<linearGradient id="SVGID_2_" gradientUnits="userSpaceOnUse" x1="-0.2289" y1="351.3771" x2="220.2289" y2="351.3771" gradientTransform="matrix(1 0 0 1 0 232)">
					<stop  offset="0.5" style="stop-color:#FFFFFF"/>
					<stop  offset="0.5" style="stop-color:#000000"/>
				</linearGradient>
				<path class="st4" d="M211.8,505.9l-88.4,38.8c-5,2.2-9.5,8.4-9.9,13.9l-3.5,46l-3.5-46c-0.4-5.5-4.8-11.7-9.9-13.9L8.2,505.9
					c-5-2.2-8.8,0.4-8.4,5.9l7.4,96.4c0.4,5.5,4.8,11.7,9.9,13.9l88.4,38.8c1.7,0.7,3.2,0.9,4.5,0.6c1.3,0.3,2.8,0.1,4.5-0.6
					l88.4-38.8c5-2.2,9.5-8.4,9.9-13.9l7.4-96.4C220.6,506.4,216.8,503.7,211.8,505.9z"/>

					<linearGradient id="SVGID_3_" gradientUnits="userSpaceOnUse" x1="-0.2289" y1="222.3563" x2="220.2289" y2="222.3563" gradientTransform="matrix(1 0 0 1 0 232)">
					<stop  offset="0.5" style="stop-color:#FFFFFF"/>
					<stop  offset="0.5" style="stop-color:#000000"/>
				</linearGradient>
				<path class="st5" d="M211.8,376.9l-88.4,38.8c-5,2.2-9.5,8.4-9.9,13.9l-3.5,46l-3.5-46c-0.4-5.5-4.8-11.7-9.9-13.9L8.2,376.9
					c-5-2.2-8.8,0.4-8.4,5.9l7.4,96.4c0.4,5.5,4.8,11.7,9.9,13.9l88.4,38.8c1.7,0.7,3.2,0.9,4.5,0.6c1.3,0.3,2.8,0.1,4.5-0.6
					l88.4-38.8c5-2.2,9.5-8.4,9.9-13.9l7.4-96.4C220.6,377.3,216.8,374.6,211.8,376.9z"/>

					<linearGradient id="SVGID_4_" gradientUnits="userSpaceOnUse" x1="-0.2289" y1="93.2771" x2="220.2297" y2="93.2771" gradientTransform="matrix(1 0 0 1 0 232)">
					<stop  offset="0.5" style="stop-color:#FFFFFF"/>
					<stop  offset="0.5" style="stop-color:#000000"/>
				</linearGradient>
				<path class="st6" d="M7.2,350.1c0.4,5.5,4.8,11.7,9.9,13.9l88.4,38.8c1.7,0.7,3.2,0.9,4.5,0.6c1.3,0.3,2.8,0.1,4.5-0.6
					l88.4-38.8c5-2.2,9.5-8.4,9.9-13.9l7.4-96.4c0.4-5.5-3.3-8.1-8.4-5.9l-88.4,38.8c-5,2.2-9.5,8.4-9.9,13.9l-3.5,46l-3.5-46
					c-0.4-5.5-4.8-11.7-9.9-13.9L8.2,247.8c-5-2.2-8.8,0.4-8.4,5.9L7.2,350.1z"/>

					<linearGradient id="SVGID_5_" gradientUnits="userSpaceOnUse" x1="63.3" y1="-17.8125" x2="158.6827" y2="-17.8125" gradientTransform="matrix(1 0 0 1 0 232)">
					<stop  offset="0.5" style="stop-color:#FFFFFF"/>
					<stop  offset="0.5" style="stop-color:#000000"/>
				</linearGradient>
				<path class="st7" d="M106.7,153.8l-41.6,69.4c-2.4,4-2.4,10.4,0,14.3L80.4,263l22.3,9.8c2.6,1.2,5.1,2.8,7.4,4.7
					c2.3-2,4.7-3.6,7.4-4.7l24.8-10.9l14.7-24.5c2.4-4,2.4-10.4,0-14.3l-41.6-69.3C112.9,149.9,109.1,149.9,106.7,153.8z"/>

					<linearGradient id="SVGID_6_" gradientUnits="userSpaceOnUse" x1="143" y1="-131" x2="162" y2="-131" gradientTransform="matrix(1 0 0 1 0 232)">
					<stop  offset="0.5" style="stop-color:#FFFFFF"/>
					<stop  offset="0.5" style="stop-color:#000000"/>
				</linearGradient>
				<polygon class="st8" points="162,0 143,0 143,170.4 162,202 				"/>

					<linearGradient id="SVGID_7_" gradientUnits="userSpaceOnUse" x1="102" y1="-162.7" x2="121" y2="-162.7" gradientTransform="matrix(1 0 0 1 0 232)">
					<stop  offset="0.5" style="stop-color:#FFFFFF"/>
					<stop  offset="0.5" style="stop-color:#000000"/>
				</linearGradient>
				<path class="st9" d="M121,138.6V0h-19v138.4c3-1.6,6-2.5,9.3-2.5C114.7,135.9,118,136.8,121,138.6z"/>

					<linearGradient id="SVGID_8_" gradientUnits="userSpaceOnUse" x1="21" y1="-109.4" x2="40" y2="-109.4" gradientTransform="matrix(1 0 0 1 0 232)">
					<stop  offset="0.5" style="stop-color:#FFFFFF"/>
					<stop  offset="0.5" style="stop-color:#000000"/>
				</linearGradient>
				<polygon class="st10" points="40,0 21,0 21,236.9 40,245.2 				"/>

					<linearGradient id="SVGID_9_" gradientUnits="userSpaceOnUse" x1="62" y1="-132.15" x2="81" y2="-132.15" gradientTransform="matrix(1 0 0 1 0 232)">
					<stop  offset="0.5" style="stop-color:#FFFFFF"/>
					<stop  offset="0.5" style="stop-color:#000000"/>
				</linearGradient>
				<polygon class="st11" points="81,0 62,0 62,199.7 81,168 				"/>
			</g>
		</g>
	</g>
</g>
</svg>
