<?xml version="1.0" encoding="utf-8"?>
<!-- Generator: Adobe Illustrator 19.2.0, SVG Export Plug-In . SVG Version: 6.00 Build 0)  -->
<svg version="1.1" id="grinderLayer" xmlns="http://www.w3.org/2000/svg" xmlns:xlink="http://www.w3.org/1999/xlink" x="0px"
	 y="0px" viewBox="0 0 312 670" style="enable-background:new 0 0 312 670;" xml:space="preserve">
<style type="text/css">
	.st0{display:none;fill:#87766C;}
	.st1{fill:#EBBD63;}
	.st2{opacity:0.1;fill:url(#flake_shadow_1_);enable-background:new    ;}
	.st3{opacity:0.1;fill:url(#flake_shadow_2_);enable-background:new    ;}
	.st4{opacity:0.1;fill:url(#flake_shadow_3_);enable-background:new    ;}
	.st5{opacity:0.1;fill:url(#flake_shadow_4_);enable-background:new    ;}
	.st6{opacity:0.1;fill:url(#flake_shadow_5_);enable-background:new    ;}
	.st7{opacity:0.1;fill:url(#flake_shadow_6_);enable-background:new    ;}
	.st8{opacity:0.1;fill:url(#flake_shadow_7_);enable-background:new    ;}
	.st9{opacity:0.1;fill:url(#flake_shadow_8_);enable-background:new    ;}
	.st10{opacity:0.1;fill:url(#flake_shadow_9_);enable-background:new    ;}
	.st11{opacity:0.1;fill:url(#flake_shadow_10_);enable-background:new    ;}
	.st12{opacity:0.1;fill:url(#flake_shadow_11_);enable-background:new    ;}
	.st13{opacity:0.1;fill:url(#flake_shadow_12_);enable-background:new    ;}
	.st14{fill:#EB6361;}
	.st15{opacity:0.1;fill:url(#tub_shadow_1_);enable-background:new    ;}
</style>
<g id="grinderGroup">
	<rect id="bg_3_" x="-343" y="-99" class="st0" width="1000" height="1000"/>
	<g id="falling_grain">
		<g>
			<g>
				<g>
					<polygon id="flake_93_" class="st1" points="205.3,662.2 185.1,668.2 169.8,653.7 174.7,633.2 194.9,627.2 210.2,641.7
						"/>

						<linearGradient id="flake_shadow_1_" gradientUnits="userSpaceOnUse" x1="169.8" y1="415.7" x2="210.2" y2="415.7" gradientTransform="matrix(1 0 0 1 0 232)">
						<stop  offset="0.5" style="stop-color:#FFFFFF"/>
						<stop  offset="0.5" style="stop-color:#000000"/>
					</linearGradient>
					<polygon id="flake_shadow_93_" class="st2" points="205.3,662.2 185.1,668.2 169.8,653.7 174.7,633.2 194.9,627.2 210.2,641.7
											"/>
				</g>
			</g>
			<g>
				<g>
					<polygon id="flake_90_" class="st1" points="205.3,602.2 185.1,608.2 169.8,593.7 174.7,573.2 194.9,567.2 210.2,581.7
						"/>

						<linearGradient id="flake_shadow_2_" gradientUnits="userSpaceOnUse" x1="169.8" y1="355.7" x2="210.2" y2="355.7" gradientTransform="matrix(1 0 0 1 0 232)">
						<stop  offset="0.5" style="stop-color:#FFFFFF"/>
						<stop  offset="0.5" style="stop-color:#000000"/>
					</linearGradient>
					<polygon id="flake_shadow_90_" class="st3" points="205.3,602.2 185.1,608.2 169.8,593.7 174.7,573.2 194.9,567.2 210.2,581.7
											"/>
				</g>
			</g>
			<g>
				<g>
					<polygon id="flake_87_" class="st1" points="205.3,542.2 185.1,548.2 169.8,533.7 174.7,513.2 194.9,507.2 210.2,521.7
						"/>

						<linearGradient id="flake_shadow_3_" gradientUnits="userSpaceOnUse" x1="169.8" y1="295.7" x2="210.2" y2="295.7" gradientTransform="matrix(1 0 0 1 0 232)">
						<stop  offset="0.5" style="stop-color:#FFFFFF"/>
						<stop  offset="0.5" style="stop-color:#000000"/>
					</linearGradient>
					<polygon id="flake_shadow_87_" class="st4" points="205.3,542.2 185.1,548.2 169.8,533.7 174.7,513.2 194.9,507.2 210.2,521.7
											"/>
				</g>
			</g>
			<g>
				<g>
					<polygon id="flake_84_" class="st1" points="205.3,482.2 185.1,488.2 169.8,473.7 174.7,453.2 194.9,447.2 210.2,461.7
						"/>

						<linearGradient id="flake_shadow_4_" gradientUnits="userSpaceOnUse" x1="169.8" y1="235.7" x2="210.2" y2="235.7" gradientTransform="matrix(1 0 0 1 0 232)">
						<stop  offset="0.5" style="stop-color:#FFFFFF"/>
						<stop  offset="0.5" style="stop-color:#000000"/>
					</linearGradient>
					<polygon id="flake_shadow_84_" class="st5" points="205.3,482.2 185.1,488.2 169.8,473.7 174.7,453.2 194.9,447.2 210.2,461.7
											"/>
				</g>
			</g>
			<g>
				<g>
					<polygon id="flake_81_" class="st1" points="205.3,422.2 185.1,428.2 169.8,413.7 174.7,393.2 194.9,387.2 210.2,401.7
						"/>

						<linearGradient id="flake_shadow_5_" gradientUnits="userSpaceOnUse" x1="169.8" y1="175.7" x2="210.2" y2="175.7" gradientTransform="matrix(1 0 0 1 0 232)">
						<stop  offset="0.5" style="stop-color:#FFFFFF"/>
						<stop  offset="0.5" style="stop-color:#000000"/>
					</linearGradient>
					<polygon id="flake_shadow_81_" class="st6" points="205.3,422.2 185.1,428.2 169.8,413.7 174.7,393.2 194.9,387.2 210.2,401.7
											"/>
				</g>
			</g>
			<g>
				<g>
					<polygon id="flake_78_" class="st1" points="205.3,362.2 185.1,368.2 169.8,353.7 174.7,333.2 194.9,327.2 210.2,341.7
						"/>

						<linearGradient id="flake_shadow_6_" gradientUnits="userSpaceOnUse" x1="169.8" y1="115.7" x2="210.2" y2="115.7" gradientTransform="matrix(1 0 0 1 0 232)">
						<stop  offset="0.5" style="stop-color:#FFFFFF"/>
						<stop  offset="0.5" style="stop-color:#000000"/>
					</linearGradient>
					<polygon id="flake_shadow_78_" class="st7" points="205.3,362.2 185.1,368.2 169.8,353.7 174.7,333.2 194.9,327.2 210.2,341.7
											"/>
				</g>
			</g>
		</g>
		<g>
			<g>
				<g>
					<polygon id="flake_75_" class="st1" points="139.3,627.2 119.1,633.2 103.8,618.7 108.7,598.2 128.9,592.2 144.2,606.7
						"/>

						<linearGradient id="flake_shadow_7_" gradientUnits="userSpaceOnUse" x1="103.8" y1="380.7" x2="144.2" y2="380.7" gradientTransform="matrix(1 0 0 1 0 232)">
						<stop  offset="0.5" style="stop-color:#FFFFFF"/>
						<stop  offset="0.5" style="stop-color:#000000"/>
					</linearGradient>
					<polygon id="flake_shadow_75_" class="st8" points="139.3,627.2 119.1,633.2 103.8,618.7 108.7,598.2 128.9,592.2 144.2,606.7
											"/>
				</g>
			</g>
			<g>
				<g>
					<polygon id="flake_72_" class="st1" points="139.3,567.2 119.1,573.2 103.8,558.7 108.7,538.2 128.9,532.2 144.2,546.7
						"/>

						<linearGradient id="flake_shadow_8_" gradientUnits="userSpaceOnUse" x1="103.8" y1="320.7" x2="144.2" y2="320.7" gradientTransform="matrix(1 0 0 1 0 232)">
						<stop  offset="0.5" style="stop-color:#FFFFFF"/>
						<stop  offset="0.5" style="stop-color:#000000"/>
					</linearGradient>
					<polygon id="flake_shadow_72_" class="st9" points="139.3,567.2 119.1,573.2 103.8,558.7 108.7,538.2 128.9,532.2 144.2,546.7
											"/>
				</g>
			</g>
			<g>
				<g>
					<polygon id="flake_69_" class="st1" points="139.3,507.2 119.1,513.2 103.8,498.7 108.7,478.2 128.9,472.2 144.2,486.7
						"/>

						<linearGradient id="flake_shadow_9_" gradientUnits="userSpaceOnUse" x1="103.8" y1="260.7" x2="144.2" y2="260.7" gradientTransform="matrix(1 0 0 1 0 232)">
						<stop  offset="0.5" style="stop-color:#FFFFFF"/>
						<stop  offset="0.5" style="stop-color:#000000"/>
					</linearGradient>
					<polygon id="flake_shadow_69_" class="st10" points="139.3,507.2 119.1,513.2 103.8,498.7 108.7,478.2 128.9,472.2
						144.2,486.7 					"/>
				</g>
			</g>
			<g>
				<g>
					<polygon id="flake_66_" class="st1" points="139.3,447.2 119.1,453.2 103.8,438.7 108.7,418.2 128.9,412.2 144.2,426.7
						"/>

						<linearGradient id="flake_shadow_10_" gradientUnits="userSpaceOnUse" x1="103.8" y1="200.7" x2="144.2" y2="200.7" gradientTransform="matrix(1 0 0 1 0 232)">
						<stop  offset="0.5" style="stop-color:#FFFFFF"/>
						<stop  offset="0.5" style="stop-color:#000000"/>
					</linearGradient>
					<polygon id="flake_shadow_66_" class="st11" points="139.3,447.2 119.1,453.2 103.8,438.7 108.7,418.2 128.9,412.2
						144.2,426.7 					"/>
				</g>
			</g>
			<g>
				<g>
					<polygon id="flake_63_" class="st1" points="139.3,387.2 119.1,393.2 103.8,378.7 108.7,358.2 128.9,352.2 144.2,366.7
						"/>

						<linearGradient id="flake_shadow_11_" gradientUnits="userSpaceOnUse" x1="103.8" y1="140.7" x2="144.2" y2="140.7" gradientTransform="matrix(1 0 0 1 0 232)">
						<stop  offset="0.5" style="stop-color:#FFFFFF"/>
						<stop  offset="0.5" style="stop-color:#000000"/>
					</linearGradient>
					<polygon id="flake_shadow_63_" class="st12" points="139.3,387.2 119.1,393.2 103.8,378.7 108.7,358.2 128.9,352.2
						144.2,366.7 					"/>
				</g>
			</g>
			<g>
				<g>
					<polygon id="flake_60_" class="st1" points="139.3,327.2 119.1,333.2 103.8,318.7 108.7,298.2 128.9,292.2 144.2,306.7
						"/>

						<linearGradient id="flake_shadow_12_" gradientUnits="userSpaceOnUse" x1="103.8" y1="80.7" x2="144.2" y2="80.7" gradientTransform="matrix(1 0 0 1 0 232)">
						<stop  offset="0.5" style="stop-color:#FFFFFF"/>
						<stop  offset="0.5" style="stop-color:#000000"/>
					</linearGradient>
					<polygon id="flake_shadow_60_" class="st13" points="139.3,327.2 119.1,333.2 103.8,318.7 108.7,298.2 128.9,292.2
						144.2,306.7 					"/>
				</g>
			</g>
		</g>
	</g>
	<polygon id="tub" class="st14" points="64.1,311 2.2,1 311.8,1 249.8,311 	"/>
	<g id="cogs">
		<path class="st1" d="M169,177.3v-7.7l0.5-5l-12.5-3.2c-1-5.3-2.8-10.2-5.4-14.7l7.5-10.3l-8.2-9.8l-11.6,5.7
			c-4.1-3.2-8.7-5.8-13.7-7.6l-0.9-12.8l-12.5-2.2l-5.4,12.2c-5.2,0.2-10.2,1.3-14.8,3l-9.3-9.6l-11,6.4l3.9,13.5
			c-3.5,3.3-6.5,7.1-9,11.3l-14-1.5l-4.4,12l12.1,8.2c-0.2,1.9-0.4,3.9-0.4,5.9c0,2.7,0.2,5.3,0.6,7.9l-12,8.1l4.4,12l14.8-1.5
			c2.5,3.9,5.5,7.3,8.9,10.4l-4,14l11,6.4l10.2-10.5c4.4,1.4,9,2.3,13.8,2.4l5.8,13l12.5-2.2l1-14c4.6-1.8,8.9-4.2,12.7-7.3
			l12.2,5.9l8.2-9.8l-7.9-10.8c2.5-4.4,3.9-9.3,4.9-14.4L169,177.3z M109,207.3c-20.1,0-36.4-16.3-36.4-36.4s16.3-36.4,36.4-36.4
			s36.4,16.3,36.4,36.4S129.1,207.3,109,207.3z"/>
		<path class="st1" d="M265,138.2v-6.8l1.1-4.4l-10.6-2.8c-0.9-4.6-2.3-9-4.6-12.9l6.7-9l-7.1-8.6l-10.2,5c-3.6-2.8-7.6-5.1-12-6.7
			l-0.8-11.3l-11-1.9l-4.8,10.7c-4.6,0.2-8.9,1.1-13,2.6l-8.2-8.5l-9.7,5.6l3.4,11.8c-3.1,2.9-5.7,6.2-7.9,9.9l-12.3-1.3l-3.8,10.5
			l10.6,7.2c-0.2,1.7-0.3,3.4-0.3,5.2c0,2.4,0.2,4.7,0.6,6.9l-10.6,7.1l3.8,10.5l13-1.4c2.2,3.4,4.8,6.4,7.8,9.1l-3.5,12.3l9.7,5.6
			l8.9-9.2c3.8,1.3,7.9,2,12.1,2.1l5.1,11.4l11-1.9l0.9-12.3c4.1-1.6,7.8-3.7,11.2-6.4l10.7,5.2l7.2-8.6l-6.9-9.5
			c2.2-3.9,2.7-8.1,3.6-12.7L265,138.2z M213.6,164.6c-17.7,0-32-14.3-32-32s14.3-32,32-32s32,14.3,32,32S231.3,164.6,213.6,164.6z"
			/>
	</g>

		<linearGradient id="tub_shadow_1_" gradientUnits="userSpaceOnUse" x1="2.2" y1="-76" x2="311.8" y2="-76" gradientTransform="matrix(1 0 0 1 0 232)">
		<stop  offset="0.5" style="stop-color:#FFFFFF"/>
		<stop  offset="0.5" style="stop-color:#000000"/>
	</linearGradient>
	<polygon id="tub_shadow" class="st15" points="64.1,311 2.2,1 311.8,1 249.8,311 	"/>
</g>
</svg>
