<?xml version="1.0" encoding="utf-8"?>
<!-- Generator: Adobe Illustrator 19.2.0, SVG Export Plug-In . SVG Version: 6.00 Build 0)  -->
<svg version="1.1" id="Layer_1" xmlns="http://www.w3.org/2000/svg" xmlns:xlink="http://www.w3.org/1999/xlink" x="0px" y="0px"
	 viewBox="0 0 1000 1000" style="enable-background:new 0 0 1000 1000;" xml:space="preserve">
<style type="text/css">
	.st0{opacity:0.1;}
	.st1{display:none;fill:#87766C;}
	.st2{fill:#EBBD63;}
	.st3{opacity:0.1;fill:url(#flake_shadow_1_);enable-background:new    ;}
	.st4{opacity:0.1;fill:url(#flake_shadow_2_);enable-background:new    ;}
	.st5{opacity:0.1;fill:url(#flake_shadow_3_);enable-background:new    ;}
	.st6{opacity:0.1;fill:url(#flake_shadow_4_);enable-background:new    ;}
	.st7{opacity:0.1;fill:url(#flake_shadow_5_);enable-background:new    ;}
	.st8{opacity:0.1;fill:url(#flake_shadow_6_);enable-background:new    ;}
	.st9{opacity:0.1;fill:url(#flake_shadow_7_);enable-background:new    ;}
	.st10{opacity:0.1;fill:url(#flake_shadow_8_);enable-background:new    ;}
	.st11{opacity:0.1;fill:url(#flake_shadow_9_);enable-background:new    ;}
	.st12{opacity:0.1;fill:url(#flake_shadow_10_);enable-background:new    ;}
	.st13{opacity:0.1;fill:url(#flake_shadow_11_);enable-background:new    ;}
	.st14{opacity:0.1;fill:url(#flake_shadow_12_);enable-background:new    ;}
	.st15{fill:#EB6361;}
	.st16{opacity:0.1;fill:url(#tub_shadow_1_);enable-background:new    ;}
</style>

<g id="_x32__-_Grinder">
	<rect id="bg_3_" class="st1" width="1000" height="1000"/>
	<g id="falling_grain">
		<g>
			<g>
				<g>
					<polygon id="flake_93_" class="st2" points="548.3,761.2 528.1,767.2 512.8,752.7 517.7,732.2 537.9,726.2 553.2,740.7
						"/>

						<linearGradient id="flake_shadow_1_" gradientUnits="userSpaceOnUse" x1="512.795" y1="253.3135" x2="553.205" y2="253.3135" gradientTransform="matrix(1 0 0 -1 0 1000)">
						<stop  offset="0.5" style="stop-color:#FFFFFF"/>
						<stop  offset="0.5" style="stop-color:#000000"/>
					</linearGradient>
					<polygon id="flake_shadow_93_" class="st3" points="548.3,761.2 528.1,767.2 512.8,752.7 517.7,732.2 537.9,726.2 553.2,740.7
											"/>
				</g>
			</g>
			<g>
				<g>
					<polygon id="flake_90_" class="st2" points="548.3,701.2 528.1,707.2 512.8,692.7 517.7,672.2 537.9,666.2 553.2,680.7
						"/>

						<linearGradient id="flake_shadow_2_" gradientUnits="userSpaceOnUse" x1="512.795" y1="313.3135" x2="553.205" y2="313.3135" gradientTransform="matrix(1 0 0 -1 0 1000)">
						<stop  offset="0.5" style="stop-color:#FFFFFF"/>
						<stop  offset="0.5" style="stop-color:#000000"/>
					</linearGradient>
					<polygon id="flake_shadow_90_" class="st4" points="548.3,701.2 528.1,707.2 512.8,692.7 517.7,672.2 537.9,666.2 553.2,680.7
											"/>
				</g>
			</g>
			<g>
				<g>
					<polygon id="flake_87_" class="st2" points="548.3,641.2 528.1,647.2 512.8,632.7 517.7,612.2 537.9,606.2 553.2,620.7
						"/>

						<linearGradient id="flake_shadow_3_" gradientUnits="userSpaceOnUse" x1="512.795" y1="373.3135" x2="553.205" y2="373.3135" gradientTransform="matrix(1 0 0 -1 0 1000)">
						<stop  offset="0.5" style="stop-color:#FFFFFF"/>
						<stop  offset="0.5" style="stop-color:#000000"/>
					</linearGradient>
					<polygon id="flake_shadow_87_" class="st5" points="548.3,641.2 528.1,647.2 512.8,632.7 517.7,612.2 537.9,606.2 553.2,620.7
											"/>
				</g>
			</g>
			<g>
				<g>
					<polygon id="flake_84_" class="st2" points="548.3,581.2 528.1,587.2 512.8,572.7 517.7,552.2 537.9,546.2 553.2,560.7
						"/>

						<linearGradient id="flake_shadow_4_" gradientUnits="userSpaceOnUse" x1="512.795" y1="433.3135" x2="553.205" y2="433.3135" gradientTransform="matrix(1 0 0 -1 0 1000)">
						<stop  offset="0.5" style="stop-color:#FFFFFF"/>
						<stop  offset="0.5" style="stop-color:#000000"/>
					</linearGradient>
					<polygon id="flake_shadow_84_" class="st6" points="548.3,581.2 528.1,587.2 512.8,572.7 517.7,552.2 537.9,546.2 553.2,560.7
											"/>
				</g>
			</g>
			<g>
				<g>
					<polygon id="flake_81_" class="st2" points="548.3,521.2 528.1,527.2 512.8,512.7 517.7,492.2 537.9,486.2 553.2,500.7
						"/>

						<linearGradient id="flake_shadow_5_" gradientUnits="userSpaceOnUse" x1="512.795" y1="493.3135" x2="553.205" y2="493.3135" gradientTransform="matrix(1 0 0 -1 0 1000)">
						<stop  offset="0.5" style="stop-color:#FFFFFF"/>
						<stop  offset="0.5" style="stop-color:#000000"/>
					</linearGradient>
					<polygon id="flake_shadow_81_" class="st7" points="548.3,521.2 528.1,527.2 512.8,512.7 517.7,492.2 537.9,486.2 553.2,500.7
											"/>
				</g>
			</g>
			<g>
				<g>
					<polygon id="flake_78_" class="st2" points="548.3,461.2 528.1,467.2 512.8,452.7 517.7,432.2 537.9,426.2 553.2,440.7
						"/>

						<linearGradient id="flake_shadow_6_" gradientUnits="userSpaceOnUse" x1="512.795" y1="553.3135" x2="553.205" y2="553.3135" gradientTransform="matrix(1 0 0 -1 0 1000)">
						<stop  offset="0.5" style="stop-color:#FFFFFF"/>
						<stop  offset="0.5" style="stop-color:#000000"/>
					</linearGradient>
					<polygon id="flake_shadow_78_" class="st8" points="548.3,461.2 528.1,467.2 512.8,452.7 517.7,432.2 537.9,426.2 553.2,440.7
											"/>
				</g>
			</g>
		</g>
		<g>
			<g>
				<g>
					<polygon id="flake_75_" class="st2" points="482.3,726.2 462.1,732.2 446.8,717.7 451.7,697.2 471.9,691.2 487.2,705.7
						"/>

						<linearGradient id="flake_shadow_7_" gradientUnits="userSpaceOnUse" x1="446.794" y1="288.3135" x2="487.206" y2="288.3135" gradientTransform="matrix(1 0 0 -1 0 1000)">
						<stop  offset="0.5" style="stop-color:#FFFFFF"/>
						<stop  offset="0.5" style="stop-color:#000000"/>
					</linearGradient>
					<polygon id="flake_shadow_75_" class="st9" points="482.3,726.2 462.1,732.2 446.8,717.7 451.7,697.2 471.9,691.2 487.2,705.7
											"/>
				</g>
			</g>
			<g>
				<g>
					<polygon id="flake_72_" class="st2" points="482.3,666.2 462.1,672.2 446.8,657.7 451.7,637.2 471.9,631.2 487.2,645.7
						"/>

						<linearGradient id="flake_shadow_8_" gradientUnits="userSpaceOnUse" x1="446.794" y1="348.3135" x2="487.206" y2="348.3135" gradientTransform="matrix(1 0 0 -1 0 1000)">
						<stop  offset="0.5" style="stop-color:#FFFFFF"/>
						<stop  offset="0.5" style="stop-color:#000000"/>
					</linearGradient>
					<polygon id="flake_shadow_72_" class="st10" points="482.3,666.2 462.1,672.2 446.8,657.7 451.7,637.2 471.9,631.2
						487.2,645.7 					"/>
				</g>
			</g>
			<g>
				<g>
					<polygon id="flake_69_" class="st2" points="482.3,606.2 462.1,612.2 446.8,597.7 451.7,577.2 471.9,571.2 487.2,585.7
						"/>

						<linearGradient id="flake_shadow_9_" gradientUnits="userSpaceOnUse" x1="446.794" y1="408.3135" x2="487.206" y2="408.3135" gradientTransform="matrix(1 0 0 -1 0 1000)">
						<stop  offset="0.5" style="stop-color:#FFFFFF"/>
						<stop  offset="0.5" style="stop-color:#000000"/>
					</linearGradient>
					<polygon id="flake_shadow_69_" class="st11" points="482.3,606.2 462.1,612.2 446.8,597.7 451.7,577.2 471.9,571.2
						487.2,585.7 					"/>
				</g>
			</g>
			<g>
				<g>
					<polygon id="flake_66_" class="st2" points="482.3,546.2 462.1,552.2 446.8,537.7 451.7,517.2 471.9,511.2 487.2,525.7
						"/>

						<linearGradient id="flake_shadow_10_" gradientUnits="userSpaceOnUse" x1="446.794" y1="468.3135" x2="487.206" y2="468.3135" gradientTransform="matrix(1 0 0 -1 0 1000)">
						<stop  offset="0.5" style="stop-color:#FFFFFF"/>
						<stop  offset="0.5" style="stop-color:#000000"/>
					</linearGradient>
					<polygon id="flake_shadow_66_" class="st12" points="482.3,546.2 462.1,552.2 446.8,537.7 451.7,517.2 471.9,511.2
						487.2,525.7 					"/>
				</g>
			</g>
			<g>
				<g>
					<polygon id="flake_63_" class="st2" points="482.3,486.2 462.1,492.2 446.8,477.7 451.7,457.2 471.9,451.2 487.2,465.7
						"/>

						<linearGradient id="flake_shadow_11_" gradientUnits="userSpaceOnUse" x1="446.794" y1="528.3135" x2="487.206" y2="528.3135" gradientTransform="matrix(1 0 0 -1 0 1000)">
						<stop  offset="0.5" style="stop-color:#FFFFFF"/>
						<stop  offset="0.5" style="stop-color:#000000"/>
					</linearGradient>
					<polygon id="flake_shadow_63_" class="st13" points="482.3,486.2 462.1,492.2 446.8,477.7 451.7,457.2 471.9,451.2
						487.2,465.7 					"/>
				</g>
			</g>
			<g>
				<g>
					<polygon id="flake_60_" class="st2" points="482.3,426.2 462.1,432.2 446.8,417.7 451.7,397.2 471.9,391.2 487.2,405.7
						"/>

						<linearGradient id="flake_shadow_12_" gradientUnits="userSpaceOnUse" x1="446.794" y1="588.3135" x2="487.206" y2="588.3135" gradientTransform="matrix(1 0 0 -1 0 1000)">
						<stop  offset="0.5" style="stop-color:#FFFFFF"/>
						<stop  offset="0.5" style="stop-color:#000000"/>
					</linearGradient>
					<polygon id="flake_shadow_60_" class="st14" points="482.3,426.2 462.1,432.2 446.8,417.7 451.7,397.2 471.9,391.2
						487.2,405.7 					"/>
				</g>
			</g>
		</g>
	</g>
	<polygon id="tub" class="st15" points="407.1,410 345.2,100 654.8,100 592.8,410 	"/>
	<g id="cogs">
		<path class="st2" d="M512,276.3v-7.7l0.5-5l-12.5-3.2c-1-5.3-2.8-10.2-5.4-14.7l7.5-10.3l-8.2-9.8l-11.6,5.7
			c-4.1-3.2-8.7-5.8-13.7-7.6l-0.9-12.8l-12.5-2.2l-5.4,12.2c-5.2,0.2-10.2,1.3-14.8,3l-9.3-9.6l-11,6.4l3.9,13.5
			c-3.5,3.3-6.5,7.1-9,11.3l-14-1.5l-4.4,12l12.1,8.2c-0.2,1.9-0.4,3.9-0.4,5.9c0,2.7,0.2,5.3,0.6,7.9l-12,8.1l4.4,12l14.8-1.5
			c2.5,3.9,5.5,7.3,8.9,10.4l-4,14l11,6.4l10.2-10.5c4.4,1.4,9,2.3,13.8,2.4l5.8,13l12.5-2.2l1-14c4.6-1.8,8.9-4.2,12.7-7.3
			l12.2,5.9l8.2-9.8l-7.9-10.8c2.5-4.4,3.9-9.3,4.9-14.4L512,276.3z M452,306.3c-20.1,0-36.4-16.3-36.4-36.4
			c0-20.1,16.3-36.4,36.4-36.4c20.1,0,36.4,16.3,36.4,36.4C488.4,290,472.1,306.3,452,306.3z"/>
		<path class="st2" d="M608,237.2v-6.8l1.1-4.4l-10.6-2.8c-0.9-4.6-2.3-9-4.6-12.9l6.7-9l-7.1-8.6l-10.2,5c-3.6-2.8-7.6-5.1-12-6.7
			l-0.8-11.3l-11-1.9l-4.8,10.7c-4.6,0.2-8.9,1.1-13,2.6l-8.2-8.5l-9.7,5.6l3.4,11.8c-3.1,2.9-5.7,6.2-7.9,9.9l-12.3-1.3l-3.8,10.5
			l10.6,7.2c-0.2,1.7-0.3,3.4-0.3,5.2c0,2.4,0.2,4.7,0.6,6.9l-10.6,7.1l3.8,10.5l13-1.4c2.2,3.4,4.8,6.4,7.8,9.1l-3.5,12.3l9.7,5.6
			l8.9-9.2c3.8,1.3,7.9,2,12.1,2.1l5.1,11.4l11-1.9l0.9-12.3c4.1-1.6,7.8-3.7,11.2-6.4l10.7,5.2l7.2-8.6l-6.9-9.5
			c2.2-3.9,2.7-8.1,3.6-12.7L608,237.2z M556.6,263.6c-17.7,0-32-14.3-32-32s14.3-32,32-32c17.7,0,32,14.3,32,32
			S574.3,263.6,556.6,263.6z"/>
	</g>

		<linearGradient id="tub_shadow_1_" gradientUnits="userSpaceOnUse" x1="345.25" y1="745" x2="654.75" y2="745" gradientTransform="matrix(1 0 0 -1 0 1000)">
		<stop  offset="0.5" style="stop-color:#FFFFFF"/>
		<stop  offset="0.5" style="stop-color:#000000"/>
	</linearGradient>
	<polygon id="tub_shadow" class="st16" points="407.1,410 345.2,100 654.8,100 592.8,410 	"/>
</g>
</svg>
