<?xml version="1.0" encoding="utf-8"?>
<!-- Generator: Adobe Illustrator 19.2.0, SVG Export Plug-In . SVG Version: 6.00 Build 0)  -->
<svg version="1.1" id="Layer_1" xmlns="http://www.w3.org/2000/svg" xmlns:xlink="http://www.w3.org/1999/xlink" x="0px" y="0px"
	 viewBox="0 0 1000 1000" style="enable-background:new 0 0 1000 1000;" xml:space="preserve">
<style type="text/css">
	.st0{display:none;fill:#6C8784;}
	.st1{opacity:0.2;}
	.st2{display:none;opacity:0.2;enable-background:new    ;}
	.st3{opacity:0.7;fill:#EBBD63;enable-background:new    ;}
	.st4{opacity:0.2;fill:url(#glass_shadow_1_);enable-background:new    ;}
	.st5{display:none;fill:#FFFFFF;}
	.st6{opacity:0.1;}
</style>
<g id="_x36__-_Glass">
	<rect id="bg_5_" class="st0" width="1000" height="1000"/>
	<g id="Glass">
		<g id="glass" class="st1">
			<path d="M601.7,769.3c-32.7-8.7-58-9.3-72.7-25.3s-15.3-60,5.3-98.7s51.1-101.8,57.3-116.7c19.8-47,22.7-82.7,22.7-121.3
				s-26-176-26-176s5.3-9.3-17.3-15.3s-71-5.3-71-5.3s-48.3-0.7-71,5.3s-17.3,15.3-17.3,15.3s-26,137.3-26,176s2.8,74.3,22.7,121.3
				c6.3,14.8,36.7,78,57.3,116.7s20,82.7,5.3,98.7s-40,16.7-72.7,25.3s-4,14-4,14c53.3,6,105.7,6,105.7,6s52.3,0,105.7-6
				C605.7,783.3,634.3,778,601.7,769.3z"/>
		</g>
		<path id="glass_1_" class="st2" d="M601.7,769.3c-32.7-8.7-58-9.3-72.7-25.3s-15.3-60,5.3-98.7s51.1-101.8,57.3-116.7
			c19.8-47,22.7-82.7,22.7-121.3s-26-176-26-176s5.3-9.3-17.3-15.3s-71-5.3-71-5.3s-48.3-0.7-71,5.3s-17.3,15.3-17.3,15.3
			s-26,137.3-26,176s2.8,74.3,22.7,121.3c6.3,14.8,36.7,78,57.3,116.7s20,82.7,5.3,98.7s-40,16.7-72.7,25.3s-4,14-4,14
			c53.3,6,105.7,6,105.7,6s52.3,0,105.7-6C605.7,783.3,634.3,778,601.7,769.3z"/>
		<path class="st3" d="M576.7,251H423.3c-6.9,37.6-22.6,127.4-22.6,156.3c0,40.9,1.8,73.7,21.5,115.5
			c56.9,121.2,104.5,123.2,155.7,0c21.9-52.8,21.5-74.6,21.5-115.5C599.3,378.4,583.6,288.6,576.7,251z"/>
		
			<linearGradient id="glass_shadow_1_" gradientUnits="userSpaceOnUse" x1="382.6995" y1="500" x2="617.3005" y2="500" gradientTransform="matrix(1 0 0 -1 0 1000)">
			<stop  offset="0.5" style="stop-color:#FFFFFF"/>
			<stop  offset="0.5" style="stop-color:#000000"/>
		</linearGradient>
		<path id="glass_shadow" class="st4" d="M601.7,769.3c-32.7-8.7-58-9.3-72.7-25.3s-15.3-60,5.3-98.7s51.1-101.8,57.3-116.7
			c19.8-47,22.7-82.7,22.7-121.3s-26-176-26-176s5.3-9.3-17.3-15.3s-71-5.3-71-5.3s-48.3-0.7-71,5.3s-17.3,15.3-17.3,15.3
			s-26,137.3-26,176s2.8,74.3,22.7,121.3c6.3,14.8,36.7,78,57.3,116.7s20,82.7,5.3,98.7s-40,16.7-72.7,25.3s-4,14-4,14
			c53.3,6,105.7,6,105.7,6s52.3,0,105.7-6C605.7,783.3,634.3,778,601.7,769.3z"/>
		<path id="puff_shadow_3_" class="st5" d="M521.5,206.7c-3.6-11.8-16.2-18.5-28-14.8c-0.2,0.1-0.4,0.1-0.6,0.2
			c3.1-3.6,4.3-8.7,2.8-13.6c-2.3-7.6-10.4-11.9-18-9.5c-7.6,2.3-11.9,10.4-9.5,18c0,0,0,0,0,0.1c-1.8,0.2-3.6,0.6-5.4,1.1
			c-1.3,0.4-2.6,0.9-3.8,1.5c-5.6-4.7-13.4-6.5-20.9-4.2c-11.8,3.6-18.5,16.2-14.8,28c2.5,8.2,9.3,13.9,17.2,15.4
			c-1.7,3.2-2.1,7.1-0.9,10.8c2.3,7.6,10.4,11.9,18,9.5c3.6-1.1,6.4-3.5,8.1-6.4c2.2,0.4,4.5,0.6,6.8,0.5
			c0.5,5.8,5.4,10.4,11.4,10.4c6.3,0,11.4-5.1,11.4-11.4c0-3.2-1.3-6-3.4-8.1c0,0,0,0,0,0c4.6,1.8,9.8,2.1,14.8,0.6
			C518.5,231.1,525.2,218.5,521.5,206.7z"/>
		<path id="puff_shadow_2_" class="st5" d="M577.1,198c-2.8-9.2-12.5-14.3-21.7-11.5c-0.2,0.1-0.3,0.1-0.5,0.2
			c2.4-2.8,3.4-6.8,2.2-10.5c-1.8-5.9-8.1-9.2-14-7.4s-9.2,8.1-7.4,14c0,0,0,0,0,0c-1.4,0.1-2.8,0.4-4.2,0.9c-1,0.3-2,0.7-2.9,1.1
			c-4.4-3.6-10.4-5-16.2-3.2c-9.2,2.8-14.3,12.5-11.5,21.7c2,6.3,7.2,10.8,13.3,11.9c-1.3,2.5-1.6,5.5-0.7,8.4
			c1.8,5.9,8.1,9.2,14,7.4c2.8-0.9,4.9-2.7,6.3-5c1.7,0.3,3.5,0.5,5.3,0.4c0.4,4.5,4.2,8,8.8,8c4.9,0,8.8-4,8.8-8.8
			c0-2.4-1-4.7-2.6-6.3c0,0,0,0,0,0c3.5,1.4,7.6,1.7,11.5,0.4C574.8,216.9,580,207.2,577.1,198z"/>
		<path id="puff_shadow_4_" class="st5" d="M530.9,166.3c-2.3-8-10.4-12.5-18-10c-0.1,0-0.3,0.1-0.4,0.1c2-2.5,2.8-5.9,1.8-9.2
			c-1.5-5.2-6.7-8.1-11.6-6.5c-4.9,1.6-7.6,7.1-6.1,12.2c0,0,0,0,0,0c-1.2,0.1-2.3,0.4-3.5,0.8c-0.8,0.3-1.7,0.6-2.4,1
			c-3.6-3.2-8.6-4.4-13.4-2.8c-7.6,2.5-11.8,11-9.5,19c1.6,5.6,6,9.4,11,10.4c-1.1,2.2-1.3,4.8-0.6,7.3c1.5,5.2,6.7,8.1,11.6,6.5
			c2.3-0.7,4.1-2.3,5.2-4.3c1.4,0.3,2.9,0.4,4.4,0.3c0.3,3.9,3.5,7,7.3,7c4,0,7.3-3.5,7.3-7.7c0-2.1-0.8-4.1-2.1-5.5c0,0,0,0,0,0
			c2.9,1.2,6.3,1.4,9.5,0.4C529,182.8,533.2,174.3,530.9,166.3z"/>
	</g>
</g>
<g id="_x35__-_Grain_1_">
	<g id="grain_group_1_">
		<g id="grain_group">
		</g>
		<g id="grain_group_shadow" class="st6">
		</g>
	</g>
</g>
<g id="_x34__-_Tap">
</g>
<g id="_x33__-_Bottle">
	<g id="bg">
	</g>
	<g id="bottle">
		<g id="Layer_5">
		</g>
		<g id="label">
		</g>
	</g>
</g>
<g id="_x32__-_Grinder">
</g>
<g id="_x31__-_Boiler">
	<g id="jar_group">
	</g>
	<g id="puff_group">
	</g>
</g>
<g id="Not_an_artboard">
	
		<image style="display:none;overflow:visible;enable-background:new    ;" width="450" height="470" xlink:href="46A25748A0C8DFD4.jpeg"  transform="matrix(1.5603 0 0 1.5603 318.5273 133.3408)">
	</image>
</g>
</svg>
