<svg xmlns="http://www.w3.org/2000/svg" id="Layer_1" viewBox="0 0 1792 1792">
  <style>
    .st0{fill:rgba(255,255,255,.6);}
  </style>
  <path d="M782 1078c-.7 2-4.8 1.8-12.5-.5s-18.2-6.2-31.5-11.5l-20-9c-29.3-13.3-58.3-29.7-87-49-4.7-3.3-18.3-13.8-41-31.5s-35.3-27.2-38-28.5c-44.7 68.7-89.3 129-134 181-54 63.3-89 100-105 110-2.7 1.3-9.2 2.7-19.5 4s-16.5 1.3-18.5 0c4-2.7 31.3-33.3 82-92 14-16 42.5-54.3 85.5-115s69.2-100 78.5-118c11.3-20 28.3-52.8 51-98.5s34.7-71.5 36-77.5c-5.3-.7-42 10.3-110 33-5.3 1.3-14.5 3.8-27.5 7.5S446 789.3 436 792s-15.7 4.3-17 5c-1.3 1.3-2 4.8-2 10.5s-.3 8.8-1 9.5c-3.3 6.7-13.7 11.7-31 15-15.3 4.7-31 4.7-47 0-12-2.7-21.3-9.7-28-21-2.7-4-4.3-11.7-5-23 4-1.3 12.2-3 24.5-5s22.2-4 29.5-6c38.7-10.7 73.7-21.3 105-32 66.7-23.3 100.7-35 102-35 6.7-1.3 21-7.8 43-19.5s36.7-18.8 44-21.5c6-2 13.2-4.7 21.5-8s13.2-5.2 14.5-5.5 3.3-.2 6 .5c1.3 8 1 19-1 33 0 1.3-4.2 10.3-12.5 27s-17.2 34.5-26.5 53.5-15 30.2-17 33.5c-16.7 33.3-42.3 77-77 131l64 28c8 4 32.8 14.7 74.5 32s64.2 26.7 67.5 28c2.7.7 6.2 9.2 10.5 25.5s5.8 26.5 4.5 30.5zM577 592c2 10 .7 19.3-4 28-8 15.3-24.7 28-50 38-20 8-40 12-60 12-17.3-2-33.7-10.7-49-26-9.3-10-15.3-23.7-18-41l1-3c2 2 8.5 3.7 19.5 5s19.8 1.3 26.5 0 26-6.7 58-16c24-8 42.3-12.7 55-14 11.3 0 18.3 5.7 21 17zm698 129l63 227-139-42 76-185zM167 1521l694-232V257L167 490v1031zm1241-317l102 31-181-657-100-31-216 536 102 31 45-110 211 65 37 135zM905 242l573 184V46L905 242zm311 1323l158 13-54 160-40-66c-86.7 55.3-178.7 91.3-276 108-38.7 8-69 12-91 12h-84c-52.7 0-119.2-13-199.5-39S488 1698.7 446 1668c-5.3-4.7-8-10-8-16 0-5.3 1.7-9.8 5-13.5s7.7-5.5 13-5.5c2.7 0 8.7 2.5 18 7.5s19.5 10.5 30.5 16.5 17.8 9.7 20.5 11c48.7 24.7 101.8 45.2 159.5 61.5S794.7 1754 842 1754c63.3 0 119-4.8 167-14.5s100.3-26.5 157-50.5c10-4.7 20.2-9.8 30.5-15.5s21.7-12 34-19 21.8-12.5 28.5-16.5l-43-73zm448-1079v1079l-774-246c-9.3 4-134.3 46.5-375 127.5S151.7 1568 147 1568c-8.7 0-14.7-4.3-18-13 0-.7-.3-1.7-1-3V474c2-6 3.3-9.3 4-10 3.3-4 10-7.7 20-11 70.7-23.3 120.3-40 149-50V19l558 198c1.3 0 54.8-18.3 160.5-55s211-72.8 316-108.5S1494.3 0 1497 0c13.3 0 20 7 20 21v418l147 47z" class="st0"/>
</svg>
